<?xml version="1.0" standalone="no"?>
<!DOCTYPE svg PUBLIC "-//W3C//DTD SVG 1.1//EN" "http://www.w3.org/Graphics/SVG/1.1/DTD/svg11.dtd" >
<svg xmlns="http://www.w3.org/2000/svg" xmlns:xlink="http://www.w3.org/1999/xlink" version="1.1">
<metadata>
Created by FontForge 20161013 at Tue May 13 23:42:12 2014
 By ,,,
Copyright 2014 Dalton Maag Ltd. Modification of this file requires prior written permission from Dalton Maag Ltd.
</metadata>
<defs>
<font id="AmazonEmber-Bold" horiz-adv-x="586" >
  <font-face 
    font-family="Amazon Ember"
    font-weight="700"
    font-stretch="normal"
    units-per-em="1000"
    panose-1="2 11 7 3 2 2 4 2 2 4"
    ascent="800"
    descent="-200"
    x-height="511"
    cap-height="693"
    bbox="-220 -289 1307 979"
    underline-thickness="80"
    underline-position="-229"
    unicode-range="U+0008-FFFD"
  />
<missing-glyph horiz-adv-x="500" 
d="M50 0v750h400v-750h-400zM400 700h-300v-650h300v650z" />
    <glyph glyph-name="ff" unicode="ff" horiz-adv-x="730" 
d="M437 0v403h-196v-403h-146v403h-81v90l81 15v46q0 200 185 200q49 0 90 -18v-99q-28 4 -51 4q-44 0 -61 -15.5t-17 -52.5v-62h196v43q0 101 46.5 150.5t141.5 49.5q27 0 56 -5.5t51 -14.5v-99q-40 6 -68 6q-46 0 -63.5 -15t-17.5 -53v-62h143v-108h-143v-403h-146z" />
    <glyph glyph-name="fi" unicode="fi" horiz-adv-x="657" 
d="M95 0v403h-81v90l81 15v46q0 200 185 200q49 0 90 -18v-99q-28 4 -51 4q-44 0 -61 -15.5t-17 -52.5v-62h342v-511h-146v403h-196v-403h-146zM510 590q-38 0 -61 21t-23 57t23 57t61 21t61 -21t23 -57t-23 -57t-61 -21z" />
    <glyph glyph-name="fl" unicode="fl" horiz-adv-x="688" 
d="M95 0v403h-81v90l81 15v46q0 200 185 200q49 0 90 -18v-99q-28 4 -51 4q-44 0 -61 -15.5t-17 -52.5v-62h129v-108h-129v-403h-146zM658 10q-42 -17 -90 -17q-135 0 -135 151v596h146v-584q0 -28 9.5 -39.5t31.5 -11.5q14 0 38 3v-98z" />
    <glyph glyph-name="ffi" unicode="ffi" horiz-adv-x="999" 
d="M437 0v403h-196v-403h-146v403h-81v90l81 15v46q0 200 185 200q49 0 90 -18v-99q-28 4 -51 4q-44 0 -61 -15.5t-17 -52.5v-62h196v43q0 200 185 200q49 0 90 -18v-99q-28 4 -51 4q-44 0 -61 -15.5t-17 -52.5v-62h342v-511h-146v403h-196v-403h-146zM852 590q-38 0 -61 21
t-23 57t23 57t61 21t61 -21t23 -57t-23 -57t-61 -21z" />
    <glyph glyph-name="ffl" unicode="ffl" horiz-adv-x="1030" 
d="M437 0v403h-196v-403h-146v403h-81v90l81 15v46q0 200 185 200q49 0 90 -18v-99q-28 4 -51 4q-44 0 -61 -15.5t-17 -52.5v-62h196v43q0 200 185 200q49 0 90 -18v-99q-28 4 -51 4q-44 0 -61 -15.5t-17 -52.5v-62h129v-108h-129v-403h-146zM1000 10q-42 -17 -90 -17
q-135 0 -135 151v596h146v-584q0 -28 9.5 -39.5t31.5 -11.5q14 0 38 3v-98z" />
    <glyph glyph-name=".notdef" horiz-adv-x="500" 
d="M50 0v750h400v-750h-400zM400 700h-300v-650h300v650z" />
    <glyph glyph-name=".null" horiz-adv-x="0" 
 />
    <glyph glyph-name=".null" horiz-adv-x="0" 
 />
    <glyph glyph-name=".null" horiz-adv-x="0" 
 />
    <glyph glyph-name="nonmarkingreturn" unicode="&#x9;" horiz-adv-x="262" 
 />
    <glyph glyph-name="nonmarkingreturn" unicode="&#xd;" horiz-adv-x="262" 
 />
    <glyph glyph-name="space" unicode=" " horiz-adv-x="262" 
 />
    <glyph glyph-name="exclam" unicode="!" horiz-adv-x="296" 
d="M90 231l-22 460q40 19 80 19t80 -19l-22 -460h-116zM148 -13q-40 0 -65 25t-25 65t25 65t65 25t65 -25t25 -65t-25 -65t-65 -25z" />
    <glyph glyph-name="quotedbl" unicode="&#x22;" horiz-adv-x="452" 
d="M74 432l-18 258q31 17 68 17t68 -17l-18 -258h-100zM278 432l-18 258q31 17 68 17t68 -17l-18 -258h-100z" />
    <glyph glyph-name="numbersign" unicode="#" 
d="M72 0l27 171h-83v96h98l25 162h-93v96h108l27 168h104l-27 -168h125l27 168h104l-27 -168h83v-96h-98l-25 -162h93v-96h-108l-27 -171h-104l27 171h-125l-27 -171h-104zM218 267h125l25 162h-125z" />
    <glyph glyph-name="dollar" unicode="$" 
d="M255 -130v122q-109 8 -191 61v112q72 -33 114 -47t77 -17v193l-40 15q-84 31 -122 74.5t-38 107.5q0 85 55 141t145 64v121h74v-122q78 -8 151 -49v-112q-83 43 -151 52v-192l35 -13q91 -33 130 -76t39 -107q0 -83 -55.5 -138.5t-148.5 -66.5v-123h-74zM406 189
q0 30 -18 49.5t-59 34.5v-171q33 4 55 29t22 58zM180 500q0 -29 17.5 -49t57.5 -36v172q-35 -5 -55 -28.5t-20 -58.5z" />
    <glyph glyph-name="percent" unicode="%" horiz-adv-x="940" 
d="M250 0l332 693h108l-332 -693h-108zM735 -8q-82 0 -127.5 54t-45.5 151q0 99 45.5 153t127.5 54t127.5 -54t45.5 -151q0 -99 -45.5 -153t-127.5 -54zM735 76q65 0 65 121q0 63 -16 93t-49 30q-65 0 -65 -121q0 -63 16 -93t49 -30zM205 289q-82 0 -127.5 54t-45.5 151
q0 99 45.5 153t127.5 54t127.5 -54t45.5 -151q0 -99 -45.5 -153t-127.5 -54zM205 373q65 0 65 121q0 63 -16 93t-49 30q-65 0 -65 -121q0 -63 16 -93t49 -30z" />
    <glyph glyph-name="ampersand" unicode="&#x26;" horiz-adv-x="744" 
d="M33 180q0 136 144 197q-48 57 -65.5 92t-17.5 77q0 75 56.5 119.5t151.5 44.5t151.5 -40.5t56.5 -109.5q0 -55 -38.5 -105.5t-106.5 -84.5l-17 -9l142 -156q36 64 36 154v29h120v-39q0 -65 -19 -123.5t-55 -105.5q26 -18 77 -18q31 0 63 4v-95q-17 -8 -47 -13.5t-56 -5.5
q-36 0 -65 11.5t-58 36.5q-88 -57 -203 -57q-119 0 -184.5 51.5t-65.5 145.5zM288 93q65 0 115 26l-167 192q-33 -22 -51 -53t-18 -68q0 -97 121 -97zM220 542q0 -26 12 -46.5t58 -70.5l18 9q38 20 59 50t21 63q0 31 -23 49.5t-61 18.5q-39 0 -61.5 -19.5t-22.5 -53.5z" />
    <glyph glyph-name="quotesingle" unicode="'" horiz-adv-x="248" 
d="M74 432l-18 258q31 17 68 17t68 -17l-18 -258h-100z" />
    <glyph glyph-name="parenleft" unicode="(" horiz-adv-x="351" 
d="M198 -144q-68 95 -104 210.5t-36 238.5q0 122 36 238t104 211h139q-60 -93 -92.5 -209t-32.5 -240t32.5 -240t92.5 -209h-139z" />
    <glyph glyph-name="parenright" unicode=")" horiz-adv-x="351" 
d="M153 754q68 -95 104 -211t36 -238q0 -123 -36 -238.5t-104 -210.5h-139q60 93 92.5 209t32.5 240t-32.5 240t-92.5 209h139z" />
    <glyph glyph-name="asterisk" unicode="*" horiz-adv-x="404" 
d="M140 347q-27 4 -49.5 20.5t-36.5 42.5l92 90l-112 20q-2 10 -2 20q0 46 35 79l101 -55l-19 121q26 13 53 13t53 -13l-19 -121l101 55q35 -33 35 -79q0 -10 -2 -20l-112 -20l92 -90q-14 -26 -36.5 -42.5t-49.5 -20.5l-62 118z" />
    <glyph glyph-name="plus" unicode="+" 
d="M231 109v182h-171v112h171v182h124v-182h171v-112h-171v-182h-124z" />
    <glyph glyph-name="comma" unicode="," horiz-adv-x="284" 
d="M24 -159l59 313h42q49 0 70 -12.5t21 -41.5q0 -22 -18 -66l-78 -193h-96z" />
    <glyph glyph-name="hyphen" unicode="-" horiz-adv-x="402" 
d="M42 198v120h318v-120h-318z" />
    <glyph glyph-name="period" unicode="." horiz-adv-x="284" 
d="M142 -13q-40 0 -65 25t-25 65t25 65t65 25t65 -25t25 -65t-25 -65t-65 -25z" />
    <glyph glyph-name="slash" unicode="/" horiz-adv-x="516" 
d="M14 -144l341 898h147l-341 -898h-147z" />
    <glyph glyph-name="zero" unicode="0" 
d="M293 105q61 0 87 56t26 187q0 130 -26 186t-87 56t-87 -56t-26 -186q0 -131 26 -187t87 -56zM293 -15q-127 0 -195 94t-68 269q0 174 68.5 268t194.5 94t194.5 -94t68.5 -268q0 -175 -68 -269t-195 -94z" />
    <glyph glyph-name="one" unicode="1" 
d="M271 0v547l-178 -56v114l195 88h131v-693h-148z" />
    <glyph glyph-name="two" unicode="2" 
d="M73 630q56 43 109.5 61.5t118.5 18.5q95 0 152.5 -53t57.5 -140q0 -52 -29 -108t-92 -126.5t-169 -166.5h318v-116h-484v108q128 129 191.5 201.5t88 116.5t24.5 81q0 38 -23 59.5t-62 21.5q-44 0 -96 -20t-105 -57v119z" />
    <glyph glyph-name="three" unicode="3" 
d="M316 404q96 -5 151 -57t55 -137q0 -66 -32.5 -117t-94.5 -79.5t-145 -28.5q-94 0 -189 41v113q112 -38 184 -38q64 0 97.5 27.5t33.5 80.5q0 47 -31 69.5t-96 22.5q-13 0 -44.5 -2.5t-48.5 -4.5v92l179 193h-265v114h422v-110z" />
    <glyph glyph-name="four" unicode="4" 
d="M345 0v137h-323v107l314 449h136v-444h88v-112h-88v-137h-127zM345 249v266l-186 -266h186z" />
    <glyph glyph-name="five" unicode="5" 
d="M57 139q118 -38 198 -38q62 0 94 28t32 82t-32 79.5t-99 25.5q-74 0 -164 -10v90l18 297h393v-114h-270l-11 -164q41 10 86 10q103 0 165 -57.5t62 -153.5q0 -66 -32 -118t-93 -81.5t-142 -29.5q-109 0 -205 42v112z" />
    <glyph glyph-name="six" unicode="6" 
d="M355 596q-82 0 -122.5 -51t-46.5 -163q79 42 157 42q93 0 150 -55.5t57 -146.5q0 -69 -31 -122.5t-88.5 -84t-134.5 -30.5q-127 0 -191 84.5t-64 251.5q0 120 34.5 207.5t101 134.5t160.5 47q44 0 90 -10t78 -27v-104q-30 12 -72.5 19.5t-77.5 7.5zM295 314
q-49 0 -108 -25q2 -100 29 -145t86 -45q102 0 102 109q0 51 -28 78.5t-81 27.5z" />
    <glyph glyph-name="seven" unicode="7" 
d="M126 0l260 577h-347v116h495v-109l-249 -584h-159z" />
    <glyph glyph-name="eight" unicode="8" 
d="M523 525q0 -52 -29 -95t-79 -68q71 -34 102 -73.5t31 -98.5q0 -97 -67 -151t-189 -54q-118 0 -186 50t-68 137q0 59 33.5 108.5t92.5 76.5q-51 29 -75 66.5t-24 89.5q0 89 62.5 143t165.5 54q102 0 166 -51.5t64 -133.5zM243 320q-31 -23 -48 -53.5t-17 -66.5
q0 -52 29.5 -78.5t86.5 -26.5q55 0 84.5 25t29.5 71q0 35 -25.5 58t-96.5 53zM201 521q0 -35 23.5 -61.5t74.5 -47.5l37 -16q51 48 51 111q0 48 -24.5 73.5t-71.5 25.5q-44 0 -67 -22t-23 -63z" />
    <glyph glyph-name="nine" unicode="9" 
d="M66 136q37 -16 85 -26.5t84 -10.5q79 0 115.5 46t43.5 152q-73 -41 -148 -41q-95 0 -151 57.5t-56 155.5q0 68 30 122.5t87 86.5t132 32q124 0 189 -85t65 -248q0 -191 -75 -291.5t-218 -100.5q-50 0 -100 13t-83 34v104zM291 366q51 0 105 24v1q0 106 -27 155.5
t-84 49.5q-47 0 -73.5 -30t-26.5 -83q0 -117 106 -117z" />
    <glyph glyph-name="colon" unicode=":" horiz-adv-x="284" 
d="M142 -13q-40 0 -65 25t-25 65t25 65t65 25t65 -25t25 -65t-25 -65t-65 -25zM142 342q-40 0 -65 25t-25 65t25 65t65 25t65 -25t25 -65t-25 -65t-65 -25z" />
    <glyph glyph-name="semicolon" unicode=";" horiz-adv-x="284" 
d="M24 -159l59 313h42q49 0 70 -12.5t21 -41.5q0 -22 -18 -66l-78 -193h-96zM142 342q-40 0 -65 25t-25 65t25 65t65 25t65 -25t25 -65t-25 -65t-65 -25z" />
    <glyph glyph-name="less" unicode="&#x3c;" 
d="M68 290v114l450 188v-128l-314 -116l314 -115v-131z" />
    <glyph glyph-name="equal" unicode="=" 
d="M60 403v112h466v-112h-466zM60 183v112h466v-112h-466z" />
    <glyph glyph-name="greater" unicode="&#x3e;" 
d="M518 404v-114l-450 -188v128l314 116l-314 115v131z" />
    <glyph glyph-name="question" unicode="?" horiz-adv-x="444" 
d="M275 519q0 36 -22.5 55.5t-64.5 19.5q-70 0 -157 -42v111q86 47 184 47q95 0 148.5 -47t53.5 -129q0 -69 -40 -120t-130 -98v-85h-114l-12 135l52 28q55 29 78.5 57.5t23.5 67.5zM192 -13q-40 0 -65 25t-25 65t25 65t65 25t65 -25t25 -65t-25 -65t-65 -25z" />
    <glyph glyph-name="at" unicode="@" horiz-adv-x="975" 
d="M437 -116q79 0 172 29v-94q-83 -37 -184 -37q-118 0 -203.5 45t-131.5 131.5t-46 207.5q0 140 62 256t177 185.5t262 69.5q181 0 283.5 -96.5t102.5 -267.5q0 -92 -29 -165t-83 -115.5t-124 -42.5q-46 0 -80 17t-51 48q-26 -30 -65 -48.5t-78 -18.5q-75 0 -115 47
t-40 135q0 75 29.5 143.5t81.5 112.5t112 44q71 0 113 -53l15 38h102l-53 -310q-3 -19 -3 -27q0 -17 10.5 -26.5t29.5 -9.5q31 0 57.5 28.5t42.5 81.5t16 120q0 128 -71.5 195.5t-206.5 67.5q-104 0 -189 -50.5t-135.5 -143.5t-50.5 -213q0 -137 70 -210.5t201 -73.5z
M468 84q45 0 81 44q0 11 3 33l33 195q-34 18 -67 18q-31 0 -58.5 -24.5t-44.5 -69t-17 -98.5q0 -98 70 -98z" />
    <glyph glyph-name="A" unicode="A" horiz-adv-x="665" 
d="M496 0l-49 158h-237l-47 -158h-157l244 693h165l244 -693h-163zM242 266h174l-88 290z" />
    <glyph glyph-name="B" unicode="B" horiz-adv-x="632" 
d="M80 0v693h249q100 0 161.5 -51t61.5 -133q0 -51 -23.5 -87.5t-69.5 -56.5q64 -19 97.5 -62.5t33.5 -106.5q0 -90 -67 -143t-180 -53h-263zM222 302v-195h118q102 0 102 96q0 99 -109 99h-111zM222 586v-182h87q97 0 97 90q0 92 -89 92h-95z" />
    <glyph glyph-name="C" unicode="C" horiz-adv-x="615" 
d="M584 18q-81 -31 -181 -31q-169 0 -256 90.5t-87 265.5q0 173 91 268t256 95q88 0 167 -28v-118q-91 20 -149 20q-104 0 -155.5 -55t-51.5 -168v-23q0 -112 50 -166.5t153 -54.5q58 0 163 23v-118z" />
    <glyph glyph-name="D" unicode="D" horiz-adv-x="711" 
d="M80 0v693h249q155 0 238.5 -89.5t83.5 -256.5q0 -166 -83.5 -256.5t-235.5 -90.5h-252zM230 577v-461h86q181 0 181 221v20q0 220 -182 220h-85z" />
    <glyph glyph-name="E" unicode="E" horiz-adv-x="578" 
d="M80 0v693h456v-116h-306v-164h249v-116h-249v-181h306v-116h-456z" />
    <glyph glyph-name="F" unicode="F" horiz-adv-x="540" 
d="M80 0v693h436v-116h-286v-174h228v-116h-228v-287h-150z" />
    <glyph glyph-name="G" unicode="G" horiz-adv-x="709" 
d="M429 107q31 0 74 5v169h-130v108h268v-347q-47 -25 -112 -39t-132 -14q-162 0 -249.5 91t-87.5 259q0 178 90.5 271.5t262.5 93.5q118 0 203 -41v-114q-104 33 -187 33q-111 0 -163 -55.5t-52 -174.5v-18q0 -118 51.5 -172.5t163.5 -54.5z" />
    <glyph glyph-name="H" unicode="H" horiz-adv-x="736" 
d="M506 0v295h-276v-295h-150v693h150v-282h276v282h150v-693h-150z" />
    <glyph glyph-name="I" unicode="I" horiz-adv-x="318" 
d="M84 0v693h150v-693h-150z" />
    <glyph glyph-name="J" unicode="J" horiz-adv-x="455" 
d="M22 121q56 -14 107 -14q54 0 77 26.5t23 89.5v470h150v-467q0 -243 -229 -243q-34 0 -63 5.5t-65 17.5v115z" />
    <glyph glyph-name="K" unicode="K" horiz-adv-x="672" 
d="M80 0v693h150v-297l251 297h169l-282 -322l306 -371h-179l-265 329v-329h-150z" />
    <glyph glyph-name="L" unicode="L" horiz-adv-x="543" 
d="M80 0v693h150v-573h304v-120h-454z" />
    <glyph glyph-name="M" unicode="M" horiz-adv-x="864" 
d="M652 0v480l-153 -311h-134l-153 311v-480h-132v693h164l189 -394l190 394h161v-693h-132z" />
    <glyph glyph-name="N" unicode="N" horiz-adv-x="734" 
d="M212 481v-481h-132v693h160l282 -485v485h132v-693h-160z" />
    <glyph glyph-name="O" unicode="O" horiz-adv-x="796" 
d="M214 347q0 -118 47 -180t137 -62t137 62t47 180t-47 179.5t-137 61.5t-137 -61.5t-47 -179.5zM60 347q0 110 39.5 192t116 126.5t182.5 44.5q103 0 179 -43t117.5 -124.5t41.5 -195.5q0 -110 -39.5 -192t-116 -127t-182.5 -45q-103 0 -179 43t-117.5 125t-41.5 196z" />
    <glyph glyph-name="P" unicode="P" horiz-adv-x="619" 
d="M226 253v-253h-146v693h265q108 0 171 -59t63 -161t-63 -161t-171 -59h-119zM226 365h102q50 0 76.5 27.5t26.5 80.5t-26.5 80.5t-76.5 27.5h-102v-216z" />
    <glyph glyph-name="Q" unicode="Q" horiz-adv-x="796" 
d="M60 347q0 110 39.5 192t116 126.5t182.5 44.5q103 0 179 -43t117.5 -124.5t41.5 -195.5q0 -133 -56.5 -223t-160.5 -123q42 -23 90 -35.5t113 -17.5v-122q-90 10 -178.5 51.5t-158.5 106.5q-152 4 -238.5 100.5t-86.5 262.5zM214 347q0 -118 47 -180t137 -62t137 62
t47 180t-47 179.5t-137 61.5t-137 -61.5t-47 -179.5z" />
    <glyph glyph-name="R" unicode="R" horiz-adv-x="637" 
d="M80 0v693h267q108 0 171 -57t63 -155q0 -60 -33 -108t-93 -75l172 -298h-155l-150 269h-98v-269h-144zM224 373h104q105 0 105 106q0 104 -103 104h-106v-210z" />
    <glyph glyph-name="S" unicode="S" horiz-adv-x="585" 
d="M215 303q-89 33 -128 80.5t-39 120.5q0 94 69.5 150t186.5 56q98 0 192 -36v-114q-97 30 -180 30q-118 0 -118 -76q0 -28 20.5 -46t76.5 -38l74 -27q93 -34 132.5 -79.5t39.5 -118.5q0 -103 -74 -162.5t-203 -59.5q-56 0 -112 10.5t-96 28.5v114q50 -15 107 -24t103 -9
q59 0 91 21.5t32 61.5q0 31 -19.5 49t-78.5 40z" />
    <glyph glyph-name="T" unicode="T" horiz-adv-x="596" 
d="M223 0v573h-211v120h572v-120h-211v-573h-150z" />
    <glyph glyph-name="U" unicode="U" horiz-adv-x="724" 
d="M498 693h150v-439q0 -129 -74.5 -200t-211.5 -71t-211.5 70.5t-74.5 201.5v438h150v-445q0 -70 35 -106.5t101 -36.5t101 36.5t35 106.5v445z" />
    <glyph glyph-name="V" unicode="V" horiz-adv-x="663" 
d="M252 0l-246 693h166l162 -546l161 546h162l-246 -693h-159z" />
    <glyph glyph-name="W" unicode="W" horiz-adv-x="954" 
d="M585 0l-110 489l-106 -489h-163l-192 693h166l110 -530l110 513h158l112 -511l108 528h162l-191 -693h-164z" />
    <glyph glyph-name="X" unicode="X" horiz-adv-x="630" 
d="M457 0l-145 256l-143 -256h-165l225 360l-208 333h169l127 -225l127 225h165l-211 -331l228 -362h-169z" />
    <glyph glyph-name="Y" unicode="Y" horiz-adv-x="630" 
d="M239 0v256l-229 437h165l142 -324l146 324h157l-233 -439v-254h-148z" />
    <glyph glyph-name="Z" unicode="Z" horiz-adv-x="598" 
d="M38 0v108l357 469h-339v116h501v-108l-355 -469h358v-116h-522z" />
    <glyph glyph-name="bracketleft" unicode="[" horiz-adv-x="370" 
d="M80 -144v898h274v-110h-124v-678h124v-110h-274z" />
    <glyph glyph-name="backslash" unicode="\" horiz-adv-x="516" 
d="M355 -144l-341 898h147l341 -898h-147z" />
    <glyph glyph-name="bracketright" unicode="]" horiz-adv-x="370" 
d="M16 -144v110h124v678h-124v110h274v-898h-274z" />
    <glyph glyph-name="asciicircum" unicode="^" 
d="M411 284l-118 283l-121 -283h-138l200 409h118l200 -409h-141z" />
    <glyph glyph-name="underscore" unicode="_" horiz-adv-x="500" 
d="M0 -168v114h500v-114h-500z" />
    <glyph glyph-name="grave" unicode="`" horiz-adv-x="612" 
d="M314 600l-134 169h156l96 -169h-118z" />
    <glyph glyph-name="a" unicode="a" horiz-adv-x="546" 
d="M363 0l-12 45q-31 -28 -71.5 -44.5t-78.5 -16.5q-74 0 -118.5 42t-44.5 112q0 48 24 84.5t69 57.5t106 21q48 0 106 -13v50q0 46 -19 63t-70 17q-82 0 -181 -31v97q37 19 93 30.5t114 11.5q103 0 150.5 -41.5t47.5 -130.5v-354h-115zM242 82q25 0 51.5 11t49.5 30v87
q-44 7 -79 7q-87 0 -87 -70q0 -31 17 -48t48 -17z" />
    <glyph glyph-name="b" unicode="b" horiz-adv-x="615" 
d="M70 0v740h146v-268q29 25 68 39.5t77 14.5q97 0 153.5 -71t56.5 -192q0 -79 -26 -141t-75 -97.5t-113 -35.5q-46 0 -86 16t-67 45l-13 -50h-121zM314 416q-52 0 -98 -27v-263q44 -27 98 -27q56 0 82.5 38t26.5 120q0 83 -26 121t-83 38z" />
    <glyph glyph-name="c" unicode="c" horiz-adv-x="473" 
d="M439 22q-27 -16 -65 -24.5t-79 -8.5q-122 0 -186.5 68t-64.5 196q0 127 68 198t189 71q73 0 135 -32v-97q-59 17 -108 17q-70 0 -103 -35.5t-33 -112.5v-14q0 -76 32.5 -111.5t100.5 -35.5q49 0 114 18v-97z" />
    <glyph glyph-name="d" unicode="d" horiz-adv-x="612" 
d="M415 0l-12 45q-62 -56 -147 -56q-63 0 -111 31.5t-74.5 91.5t-26.5 141q0 124 59 198.5t156 74.5q79 0 137 -45v259h146v-740h-127zM304 99q48 0 92 28v264q-43 25 -99 25q-53 0 -79 -39.5t-26 -119.5t27.5 -119t84.5 -39z" />
    <glyph glyph-name="e" unicode="e" horiz-adv-x="541" 
d="M179 220q4 -66 40 -95.5t113 -29.5q67 0 156 25v-97q-35 -18 -83.5 -28t-100.5 -10q-127 0 -193.5 69t-66.5 202q0 128 66 199t183 71q99 0 152.5 -54.5t53.5 -155.5q0 -22 -3 -50t-7 -46h-310zM288 425q-49 0 -77.5 -29.5t-32.5 -85.5h196v17q0 98 -86 98z" />
    <glyph glyph-name="f" unicode="f" horiz-adv-x="388" 
d="M95 0v403h-81v90l81 15v46q0 101 46.5 150.5t141.5 49.5q27 0 56 -5.5t51 -14.5v-99q-40 6 -68 6q-46 0 -63.5 -15t-17.5 -53v-62h143v-108h-143v-403h-146z" />
    <glyph glyph-name="g" unicode="g" horiz-adv-x="596" 
d="M382 62q-57 -51 -134 -51q-93 0 -148.5 69.5t-55.5 185.5q0 118 56 189t150 71q42 0 79 -15t66 -44l11 44h120v-471q0 -122 -68 -190t-188 -68q-97 0 -184 43v98q99 -31 171 -31q66 0 95.5 30.5t29.5 99.5v40zM293 119q23 0 46.5 7.5t42.5 20.5v246q-41 25 -96 25
q-96 0 -96 -148q0 -77 25 -114t78 -37z" />
    <glyph glyph-name="h" unicode="h" horiz-adv-x="612" 
d="M398 0v335q0 41 -18 60t-55 19q-55 0 -109 -34v-380h-146v740h146v-275q86 61 180 61q71 0 109.5 -38.5t38.5 -109.5v-378h-146z" />
    <glyph glyph-name="i" unicode="i" horiz-adv-x="294" 
d="M74 0v511h146v-511h-146zM147 590q-38 0 -61 21t-23 57t23 57t61 21t61 -21t23 -57t-23 -57t-61 -21z" />
    <glyph glyph-name="j" unicode="j" horiz-adv-x="294" 
d="M74 511h146v-565q0 -83 -38 -123.5t-116 -40.5q-53 0 -101 16v99q30 -3 57 -3q28 0 40 11t12 37v569zM147 590q-38 0 -61 21t-23 57t23 57t61 21t61 -21t23 -57t-23 -57t-61 -21z" />
    <glyph glyph-name="k" unicode="k" horiz-adv-x="582" 
d="M70 0v740h145v-447l177 218h174l-211 -244l227 -267h-178l-189 233v-233h-145z" />
    <glyph glyph-name="l" unicode="l" horiz-adv-x="325" 
d="M295 10q-42 -17 -90 -17q-135 0 -135 151v596h146v-584q0 -28 9.5 -39.5t31.5 -11.5q14 0 38 3v-98z" />
    <glyph glyph-name="m" unicode="m" horiz-adv-x="917" 
d="M703 0v346q0 68 -61 68q-54 0 -109 -26v-10v-378h-146v346q0 68 -61 68q-56 0 -110 -27v-387h-146v511h120l13 -49q53 35 95.5 49.5t87.5 14.5q90 0 127 -64q51 34 96 49t93 15q70 0 108.5 -39t38.5 -109v-378h-146z" />
    <glyph glyph-name="n" unicode="n" horiz-adv-x="612" 
d="M398 0v335q0 41 -18 60t-55 19q-55 0 -109 -34v-380h-146v511h120l14 -55q90 70 192 70q71 0 109.5 -38.5t38.5 -109.5v-378h-146z" />
    <glyph glyph-name="o" unicode="o" horiz-adv-x="594" 
d="M297 -15q-119 0 -186 71.5t-67 199.5q0 127 67 198.5t186 71.5t186 -71.5t67 -198.5q0 -128 -67 -199.5t-186 -71.5zM297 97q105 0 105 159q0 158 -105 158t-105 -158q0 -159 105 -159z" />
    <glyph glyph-name="p" unicode="p" horiz-adv-x="615" 
d="M70 -206v717h120l12 -48q30 29 72.5 46t86.5 17q97 0 153.5 -71t56.5 -192q0 -79 -26 -141t-75 -97.5t-113 -35.5q-41 0 -78 13t-63 36v-244h-146zM314 416q-52 0 -98 -27v-263q44 -27 98 -27q56 0 82.5 38t26.5 120q0 83 -26 121t-83 38z" />
    <glyph glyph-name="q" unicode="q" horiz-adv-x="612" 
d="M396 -206v245q-61 -50 -140 -50q-63 0 -111 31.5t-74.5 91.5t-26.5 141t25.5 142.5t74 96t114.5 34.5q91 0 153 -59l11 44h120v-717h-146zM304 99q48 0 92 28v264q-43 25 -99 25q-53 0 -79 -39.5t-26 -119.5t27.5 -119t84.5 -39z" />
    <glyph glyph-name="r" unicode="r" horiz-adv-x="405" 
d="M70 0v511h120l18 -76q40 44 75.5 62.5t75.5 18.5q19 0 40 -3v-135q-28 6 -62 6q-65 0 -121 -23v-361h-146z" />
    <glyph glyph-name="s" unicode="s" horiz-adv-x="445" 
d="M287 141q0 20 -11.5 31t-46.5 24l-78 31q-61 24 -88 59t-27 89q0 68 54.5 109.5t145.5 41.5q84 0 155 -33v-97q-76 23 -142 23q-41 0 -60 -10t-19 -32q0 -17 11.5 -27.5t48.5 -25.5l76 -31q62 -25 88.5 -58t26.5 -86q0 -74 -56.5 -119.5t-148.5 -45.5q-103 0 -182 41v97
q99 -31 181 -31q72 0 72 50z" />
    <glyph glyph-name="t" unicode="t" horiz-adv-x="394" 
d="M374 13q-54 -21 -121 -21q-85 0 -125.5 40t-40.5 124v247h-77v90l81 16l22 140h120v-138h138v-108h-138v-240q0 -32 16 -45t54 -13q31 0 71 6v-98z" />
    <glyph glyph-name="u" unicode="u" horiz-adv-x="600" 
d="M410 0l-14 54q-89 -69 -186 -69q-68 0 -106 40.5t-38 111.5v374h146v-333q0 -81 70 -81q52 0 102 32v382h146v-511h-120z" />
    <glyph glyph-name="v" unicode="v" horiz-adv-x="534" 
d="M198 0l-194 511h155l109 -380l111 380h151l-193 -511h-139z" />
    <glyph glyph-name="w" unicode="w" horiz-adv-x="798" 
d="M487 0l-88 359l-89 -359h-141l-163 511h154l85 -369l92 369h131l94 -370l80 370h150l-164 -511h-141z" />
    <glyph glyph-name="x" unicode="x" horiz-adv-x="506" 
d="M345 0l-97 162l-93 -162h-151l171 258l-169 253h157l93 -155l87 155h151l-167 -245l175 -266h-157z" />
    <glyph glyph-name="y" unicode="y" horiz-adv-x="536" 
d="M206 -8l-202 519h155l114 -382l108 382h151l-216 -580q-29 -79 -71 -114t-106 -35q-50 0 -97 16v99q32 -3 57 -3q42 0 65 19.5t39 67.5z" />
    <glyph glyph-name="z" unicode="z" horiz-adv-x="493" 
d="M32 0v104l263 299h-253v108h414v-104l-266 -299h271v-108h-429z" />
    <glyph glyph-name="braceleft" unicode="{" horiz-adv-x="396" 
d="M380 -135q-37 -17 -90 -17q-83 0 -131 51t-48 140v149q0 33 -15 47.5t-49 14.5h-21v110h21q34 0 49 14.5t15 47.5v149q0 89 48 140t131 51q53 0 90 -17v-98q-30 5 -60 5q-59 0 -59 -67v-160q0 -49 -23.5 -77.5t-76.5 -42.5q53 -14 76.5 -42.5t23.5 -77.5v-160
q0 -67 59 -67q30 0 60 5v-98z" />
    <glyph glyph-name="bar" unicode="|" horiz-adv-x="320" 
d="M86 -206v960h148v-960h-148z" />
    <glyph glyph-name="braceright" unicode="}" horiz-adv-x="396" 
d="M16 745q37 17 90 17q83 0 131 -51t48 -140v-149q0 -33 15 -47.5t49 -14.5h21v-110h-21q-34 0 -49 -14.5t-15 -47.5v-149q0 -89 -48 -140t-131 -51q-53 0 -90 17v98q30 -5 60 -5q59 0 59 67v160q0 50 23.5 78t76.5 42q-53 14 -76.5 42t-23.5 78v160q0 67 -59 67
q-30 0 -60 -5v98z" />
    <glyph glyph-name="asciitilde" unicode="~" 
d="M50 253q-7 38 -7 60q0 62 36 98t98 36t135 -53q32 -23 48 -30.5t32 -7.5q38 0 41 41l3 44h100q7 -38 7 -60q0 -62 -36 -98t-98 -36t-135 53q-32 23 -48 30.5t-32 7.5q-38 0 -41 -41l-3 -44h-100z" />
    <glyph glyph-name="uni00A0" unicode="&#xa0;" horiz-adv-x="262" 
 />
    <glyph glyph-name="exclamdown" unicode="&#xa1;" horiz-adv-x="296" 
d="M206 278l22 -460q-40 -19 -80 -19t-80 19l22 460h116zM148 522q40 0 65 -25t25 -65t-25 -65t-65 -25t-65 25t-25 65t25 65t65 25z" />
    <glyph glyph-name="cent" unicode="&#xa2;" 
d="M320 -130v149q-114 6 -173 72.5t-59 188.5q0 76 27 133t79 90.5t126 39.5v150h74v-152q64 -8 108 -29v-97q-60 15 -108 16v-300q45 3 111 18v-97q-46 -24 -111 -31v-151h-74zM226 275q0 -61 23 -95t71 -44v290q-48 -10 -71 -44t-23 -93v-14z" />
    <glyph glyph-name="sterling" unicode="&#xa3;" 
d="M544 116v-116h-467v104q39 28 58 68t19 95v9t-1 10h-100v108h85q-7 32 -12.5 60.5t-5.5 52.5q0 59 28.5 104t81.5 70.5t125 25.5q52 0 99 -13t82 -38v-110q-39 18 -84.5 29.5t-81.5 11.5q-106 0 -106 -100q0 -34 11 -93h193v-108h-176q1 -4 1 -8.5v-9.5q0 -48 -16.5 -85
t-51.5 -67h319z" />
    <glyph glyph-name="currency" unicode="&#xa4;" 
d="M293 114q-57 0 -107 22l-79 -84l-86 76l77 79q-40 58 -40 133t40 133l-77 79l86 76l79 -84q50 22 107 22t106 -22l80 84l86 -76l-78 -79q41 -57 41 -133t-41 -133l78 -79l-86 -76l-80 84q-49 -22 -106 -22zM293 212q53 0 81 33t28 95t-28 95t-81 33t-81 -33t-28 -95
t28 -95t81 -33z" />
    <glyph glyph-name="yen" unicode="&#xa5;" 
d="M220 0v142h-162v86h162v26l-24 49h-138v86h97l-147 304h163l121 -326l129 326h157l-149 -304h95v-86h-137l-25 -52v-23h162v-86h-162v-142h-142z" />
    <glyph glyph-name="brokenbar" unicode="&#xa6;" horiz-adv-x="320" 
d="M86 -206v357h148v-357h-148zM86 397v357h148v-357h-148z" />
    <glyph glyph-name="section" unicode="&#xa7;" horiz-adv-x="482" 
d="M32 295q0 45 26.5 80t72.5 49q-43 22 -62.5 54t-19.5 81q0 67 54.5 109t140.5 42q90 0 167 -36v-97q-90 26 -154 26q-39 0 -57.5 -11t-18.5 -35q0 -18 12 -30t42 -24l85 -35q69 -29 99.5 -62.5t30.5 -81.5q0 -103 -91 -139q73 -47 73 -121q0 -77 -53 -118.5t-150 -41.5
q-104 0 -186 41v97q96 -31 181 -31q37 0 56.5 13t19.5 38q0 19 -13.5 31.5t-64.5 32.5l-75 29q-62 24 -88.5 56.5t-26.5 83.5zM164 316q0 -27 14.5 -42.5t52.5 -31.5l40 -17q23 10 35 30t12 47q0 49 -71 76l-19 7q-30 -7 -47 -25t-17 -44z" />
    <glyph glyph-name="dieresis" unicode="&#xa8;" horiz-adv-x="612" 
d="M190 587q-36 0 -57.5 19.5t-21.5 53.5t21.5 53.5t57.5 19.5t57.5 -19.5t21.5 -53.5t-21.5 -53.5t-57.5 -19.5zM422 587q-36 0 -57.5 19.5t-21.5 53.5t21.5 53.5t57.5 19.5t57.5 -19.5t21.5 -53.5t-21.5 -53.5t-57.5 -19.5z" />
    <glyph glyph-name="copyright" unicode="&#xa9;" horiz-adv-x="782" 
d="M391 -17q-104 0 -187.5 44.5t-132.5 127t-49 190.5q0 102 45.5 184t130 130t193.5 48q104 0 187.5 -44.5t132.5 -127t49 -190.5q0 -102 -45 -184t-129.5 -130t-194.5 -48zM391 63q80 0 142 34t96.5 98t34.5 150q0 83 -33 146.5t-95 99.5t-145 36q-80 0 -141.5 -34
t-96.5 -98t-35 -150q0 -83 33 -146.5t95 -99.5t145 -36zM514 163q-47 -22 -100 -22q-94 0 -144.5 53t-50.5 153q0 97 52 151.5t144 54.5q25 0 50.5 -5t43.5 -14v-79q-46 10 -81 10q-47 0 -72 -27.5t-25 -78.5v-22q0 -106 102 -106q34 0 81 14v-82z" />
    <glyph glyph-name="ordfeminine" unicode="&#xaa;" horiz-adv-x="410" 
d="M261 346l-11 34q-53 -44 -112 -44q-49 0 -78.5 27.5t-29.5 74.5q0 52 38 83.5t101 31.5q36 0 77 -10v39q0 48 -52 48q-63 0 -140 -21v71q72 30 155 30q141 0 141 -116v-248h-89zM350 276v-82h-313v82h313zM179 409q28 0 67 23v52q-33 6 -60 6q-25 0 -38.5 -11t-13.5 -31
q0 -39 45 -39z" />
    <glyph glyph-name="guillemotleft" unicode="&#xab;" horiz-adv-x="611" 
d="M178 51l-136 208l136 208h140l-122 -208l122 -208h-140zM423 51l-136 208l136 208h140l-122 -208l122 -208h-140z" />
    <glyph glyph-name="logicalnot" unicode="&#xac;" 
d="M402 203v175h-342v112h466v-287h-124z" />
    <glyph glyph-name="uni00AD" unicode="&#xad;" horiz-adv-x="402" 
d="M42 198v120h318v-120h-318z" />
    <glyph glyph-name="registered" unicode="&#xae;" horiz-adv-x="534" 
d="M267 271q-69 0 -124.5 29.5t-88 85t-32.5 126.5q0 68 30 123t86 87t129 32q69 0 124.5 -29.5t88 -85t32.5 -126.5q0 -68 -30 -123t-86 -87t-129 -32zM267 319q84 0 135.5 53t51.5 141t-51 140.5t-136 52.5q-84 0 -135.5 -53t-51.5 -141t51 -140.5t136 -52.5zM171 384v262
h104q44 0 68.5 -22.5t24.5 -63.5q0 -48 -48 -70l66 -106h-68l-55 95h-32v-95h-60zM231 529h33q39 0 39 30q0 16 -9.5 25t-26.5 9h-36v-64z" />
    <glyph glyph-name="macron" unicode="&#xaf;" horiz-adv-x="612" 
d="M137 623v90h338v-90h-338z" />
    <glyph glyph-name="degree" unicode="&#xb0;" horiz-adv-x="382" 
d="M191 413q-67 0 -106 39t-39 105t39 105t106 39t106 -39t39 -105t-39 -105t-106 -39zM191 491q27 0 42 17.5t15 48.5t-15 48.5t-42 17.5t-42 -17.5t-15 -48.5t15 -48.5t42 -17.5z" />
    <glyph glyph-name="plusminus" unicode="&#xb1;" 
d="M231 178v182h-171v112h171v182h124v-182h171v-112h-171v-182h-124zM60 1v112h466v-112h-466z" />
    <glyph glyph-name="uni00B2" unicode="&#xb2;" horiz-adv-x="410" 
d="M67 749q31 21 67.5 33t72.5 12q61 0 97.5 -32t36.5 -85q0 -37 -37.5 -85.5t-121.5 -117.5h173v-84h-296v72q99 89 135.5 132.5t36.5 74.5q0 18 -13 28.5t-35 10.5q-21 0 -53 -12t-63 -32v85z" />
    <glyph glyph-name="uni00B3" unicode="&#xb3;" horiz-adv-x="410" 
d="M189 382q-71 0 -120 25v78q60 -19 110 -19q37 0 58 12.5t21 34.5q0 23 -18 33.5t-57 10.5q-14 0 -58 -4v50l103 101h-155v82h263v-72l-100 -98h7q53 0 84 -27t31 -74q0 -64 -44 -98.5t-125 -34.5z" />
    <glyph glyph-name="acute" unicode="&#xb4;" horiz-adv-x="612" 
d="M180 600l96 169h156l-134 -169h-118z" />
    <glyph glyph-name="mu" unicode="&#xb5;" 
d="M53 511h146v-333q0 -41 19 -61t59 -20q51 0 94 37v377h146v-363q0 -43 44 -43q15 0 35 4v-99q-42 -17 -90 -17q-43 0 -70.5 15.5t-43.5 48.5q-66 -72 -139 -72q-36 0 -64 14v-205h-136v717z" />
    <glyph glyph-name="paragraph" unicode="&#xb6;" horiz-adv-x="624" 
d="M429 -104v693h-84v-795h-111v434q-97 16 -149.5 73t-52.5 147q0 116 75 180.5t210 64.5h223v-797h-111z" />
    <glyph glyph-name="periodcentered" unicode="&#xb7;" horiz-adv-x="284" 
d="M142 168q-40 0 -65 25t-25 65t25 65t65 25t65 -25t25 -65t-25 -65t-65 -25z" />
    <glyph glyph-name="cedilla" unicode="&#xb8;" horiz-adv-x="612" 
d="M298 -59q44 0 70.5 -21t26.5 -56q0 -45 -29.5 -81.5t-96.5 -71.5l-53 48q37 21 57 42t20 39q0 22 -33 22q-11 0 -32 -3v71q33 11 70 11z" />
    <glyph glyph-name="uni00B9" unicode="&#xb9;" horiz-adv-x="410" 
d="M187 390v294l-119 -37v81l129 58h96v-396h-106z" />
    <glyph glyph-name="ordmasculine" unicode="&#xba;" horiz-adv-x="428" 
d="M377 276v-82h-326v82h326zM214 328q-84 0 -131 50t-47 140q0 89 47.5 140.5t130.5 51.5t130.5 -51.5t47.5 -140.5q0 -90 -47 -140t-131 -50zM214 412q37 0 53.5 25.5t16.5 80.5t-17 81.5t-53 26.5t-53 -26.5t-17 -81.5t16.5 -80.5t53.5 -25.5z" />
    <glyph glyph-name="guillemotright" unicode="&#xbb;" horiz-adv-x="611" 
d="M188 467l136 -208l-136 -208h-140l122 208l-122 208h140zM433 467l136 -208l-136 -208h-140l122 208l-122 208h140z" />
    <glyph glyph-name="onequarter" unicode="&#xbc;" horiz-adv-x="940" 
d="M256 0l332 693h108l-332 -693h-108zM760 0v77h-194v74l184 251h102v-250h54v-75h-54v-77h-92zM659 152h101v138zM187 297v294l-119 -37v81l129 58h96v-396h-106z" />
    <glyph glyph-name="onehalf" unicode="&#xbd;" horiz-adv-x="940" 
d="M237 0l332 693h108l-332 -693h-108zM597 359q31 21 67.5 33t72.5 12q61 0 97.5 -32t36.5 -85q0 -37 -37.5 -85.5t-121.5 -117.5h173v-84h-296v72q99 89 135.5 132.5t36.5 74.5q0 18 -13 28.5t-35 10.5q-21 0 -53 -12t-63 -32v85zM187 297v294l-119 -37v81l129 58h96v-396
h-106z" />
    <glyph glyph-name="threequarters" unicode="&#xbe;" horiz-adv-x="940" 
d="M273 0l332 693h108l-332 -693h-108zM760 0v77h-194v74l184 251h102v-250h54v-75h-54v-77h-92zM659 152h101v138zM189 289q-71 0 -120 25v78q60 -19 110 -19q37 0 58 12.5t21 34.5q0 23 -18 33.5t-57 10.5q-14 0 -58 -4v50l103 101h-155v82h263v-72l-100 -98h7
q53 0 84 -27t31 -74q0 -64 -44 -98.5t-125 -34.5z" />
    <glyph glyph-name="questiondown" unicode="&#xbf;" horiz-adv-x="444" 
d="M169 -10q0 -36 22.5 -55.5t64.5 -19.5q70 0 157 42v-111q-86 -47 -184 -47q-95 0 -148.5 47t-53.5 129q0 69 40 120t130 98v85h114l12 -135l-52 -28q-55 -29 -78.5 -57.5t-23.5 -67.5zM252 522q40 0 65 -25t25 -65t-25 -65t-65 -25t-65 25t-25 65t25 65t65 25z" />
    <glyph glyph-name="Agrave" unicode="&#xc0;" horiz-adv-x="665" 
d="M496 0l-49 158h-237l-47 -158h-157l244 693h165l244 -693h-163zM242 266h174l-88 290zM268 769l-133 129h154l101 -129h-122z" />
    <glyph glyph-name="Aacute" unicode="&#xc1;" horiz-adv-x="665" 
d="M496 0l-49 158h-237l-47 -158h-157l244 693h165l244 -693h-163zM242 266h174l-88 290zM268 769l101 129h154l-133 -129h-122z" />
    <glyph glyph-name="Acircumflex" unicode="&#xc2;" horiz-adv-x="665" 
d="M496 0l-49 158h-237l-47 -158h-157l244 693h165l244 -693h-163zM242 266h174l-88 290zM404 769l-76 75l-76 -75h-128l130 141h148l130 -141h-128z" />
    <glyph glyph-name="Atilde" unicode="&#xc3;" horiz-adv-x="665" 
d="M496 0l-49 158h-237l-47 -158h-157l244 693h165l244 -693h-163zM242 266h174l-88 290zM399 843q22 0 23 29l2 34h81q3 -20 3 -39q0 -47 -29.5 -75t-78.5 -28q-56 0 -94 37q-19 18 -28 23.5t-19 5.5q-22 0 -23 -29l-2 -34h-81q-3 20 -3 39q0 47 29.5 75t78.5 28
q56 0 94 -37q19 -18 28 -23.5t19 -5.5z" />
    <glyph glyph-name="Adieresis" unicode="&#xc4;" horiz-adv-x="665" 
d="M496 0l-49 158h-237l-47 -158h-157l244 693h165l244 -693h-163zM242 266h174l-88 290zM215 770q-37 0 -59 20t-22 54t22 54.5t59 20.5t59 -20.5t22 -54.5t-22 -54t-59 -20zM443 770q-37 0 -59 20t-22 54t22 54.5t59 20.5t59 -20.5t22 -54.5t-22 -54t-59 -20z" />
    <glyph glyph-name="Aring" unicode="&#xc5;" horiz-adv-x="665" 
d="M496 0l-49 158h-237l-47 -158h-157l244 693h165l244 -693h-163zM242 266h174l-88 290zM329 733q-54 0 -87.5 28.5t-33.5 76.5t33.5 76.5t87.5 28.5t87.5 -28.5t33.5 -76.5t-33.5 -76.5t-87.5 -28.5zM329 793q20 0 31 12t11 33t-11 33t-31 12t-31 -12t-11 -33t11 -33
t31 -12z" />
    <glyph glyph-name="AE" unicode="&#xc6;" horiz-adv-x="971" 
d="M473 0v158h-220l-79 -158h-168l376 693h547v-116h-306v-164h249v-116h-249v-181h306v-116h-456zM307 266h166v311h-10z" />
    <glyph glyph-name="Ccedilla" unicode="&#xc7;" horiz-adv-x="615" 
d="M584 18q-81 -31 -181 -31q-169 0 -256 90.5t-87 265.5q0 173 91 268t256 95q88 0 167 -28v-118q-91 20 -149 20q-104 0 -155.5 -55t-51.5 -168v-23q0 -112 50 -166.5t153 -54.5q58 0 163 23v-118zM381 -59q44 0 70.5 -21t26.5 -56q0 -45 -29.5 -81.5t-96.5 -71.5l-54 49
q36 20 56 41.5t20 38.5q0 20 -31 20q-11 0 -32 -3v73q33 11 70 11z" />
    <glyph glyph-name="Egrave" unicode="&#xc8;" horiz-adv-x="578" 
d="M80 0v693h456v-116h-306v-164h249v-116h-249v-181h306v-116h-456zM247 769l-133 129h154l101 -129h-122z" />
    <glyph glyph-name="Eacute" unicode="&#xc9;" horiz-adv-x="578" 
d="M80 0v693h456v-116h-306v-164h249v-116h-249v-181h306v-116h-456zM247 769l101 129h154l-133 -129h-122z" />
    <glyph glyph-name="Ecircumflex" unicode="&#xca;" horiz-adv-x="578" 
d="M80 0v693h456v-116h-306v-164h249v-116h-249v-181h306v-116h-456zM383 769l-76 75l-76 -75h-128l130 141h148l130 -141h-128z" />
    <glyph glyph-name="Edieresis" unicode="&#xcb;" horiz-adv-x="578" 
d="M80 0v693h456v-116h-306v-164h249v-116h-249v-181h306v-116h-456zM194 770q-37 0 -59 20t-22 54t22 54.5t59 20.5t59 -20.5t22 -54.5t-22 -54t-59 -20zM422 770q-37 0 -59 20t-22 54t22 54.5t59 20.5t59 -20.5t22 -54.5t-22 -54t-59 -20z" />
    <glyph glyph-name="Igrave" unicode="&#xcc;" horiz-adv-x="318" 
d="M84 0v693h150v-693h-150zM98 769l-133 129h154l101 -129h-122z" />
    <glyph glyph-name="Iacute" unicode="&#xcd;" horiz-adv-x="318" 
d="M84 0v693h150v-693h-150zM98 769l101 129h154l-133 -129h-122z" />
    <glyph glyph-name="Icircumflex" unicode="&#xce;" horiz-adv-x="318" 
d="M84 0v693h150v-693h-150zM234 769l-76 75l-76 -75h-128l130 141h148l130 -141h-128z" />
    <glyph glyph-name="Idieresis" unicode="&#xcf;" horiz-adv-x="318" 
d="M84 0v693h150v-693h-150zM45 770q-37 0 -59 20t-22 54t22 54.5t59 20.5t59 -20.5t22 -54.5t-22 -54t-59 -20zM273 770q-37 0 -59 20t-22 54t22 54.5t59 20.5t59 -20.5t22 -54.5t-22 -54t-59 -20z" />
    <glyph glyph-name="Eth" unicode="&#xd0;" horiz-adv-x="721" 
d="M90 0v306h-80v102h80v285h249q155 0 238.5 -89.5t83.5 -256.5q0 -166 -83.5 -256.5t-235.5 -90.5h-252zM240 306v-190h86q181 0 181 221v20q0 220 -182 220h-85v-169h137v-102h-137z" />
    <glyph glyph-name="Ntilde" unicode="&#xd1;" horiz-adv-x="734" 
d="M212 481v-481h-132v693h160l282 -485v485h132v-693h-160zM451 843q22 0 23 29l2 34h81q3 -20 3 -39q0 -47 -29.5 -75t-78.5 -28q-56 0 -94 37q-19 18 -28 23.5t-19 5.5q-22 0 -23 -29l-2 -34h-81q-3 20 -3 39q0 47 29.5 75t78.5 28q56 0 94 -37q19 -18 28 -23.5t19 -5.5z
" />
    <glyph glyph-name="Ograve" unicode="&#xd2;" horiz-adv-x="796" 
d="M214 347q0 -118 47 -180t137 -62t137 62t47 180t-47 179.5t-137 61.5t-137 -61.5t-47 -179.5zM60 347q0 110 39.5 192t116 126.5t182.5 44.5q103 0 179 -43t117.5 -124.5t41.5 -195.5q0 -110 -39.5 -192t-116 -127t-182.5 -45q-103 0 -179 43t-117.5 125t-41.5 196z
M337 769l-133 129h154l101 -129h-122z" />
    <glyph glyph-name="Oacute" unicode="&#xd3;" horiz-adv-x="796" 
d="M214 347q0 -118 47 -180t137 -62t137 62t47 180t-47 179.5t-137 61.5t-137 -61.5t-47 -179.5zM60 347q0 110 39.5 192t116 126.5t182.5 44.5q103 0 179 -43t117.5 -124.5t41.5 -195.5q0 -110 -39.5 -192t-116 -127t-182.5 -45q-103 0 -179 43t-117.5 125t-41.5 196z
M337 769l101 129h154l-133 -129h-122z" />
    <glyph glyph-name="Ocircumflex" unicode="&#xd4;" horiz-adv-x="796" 
d="M214 347q0 -118 47 -180t137 -62t137 62t47 180t-47 179.5t-137 61.5t-137 -61.5t-47 -179.5zM60 347q0 110 39.5 192t116 126.5t182.5 44.5q103 0 179 -43t117.5 -124.5t41.5 -195.5q0 -110 -39.5 -192t-116 -127t-182.5 -45q-103 0 -179 43t-117.5 125t-41.5 196z
M473 769l-76 75l-76 -75h-128l130 141h148l130 -141h-128z" />
    <glyph glyph-name="Otilde" unicode="&#xd5;" horiz-adv-x="796" 
d="M214 347q0 -118 47 -180t137 -62t137 62t47 180t-47 179.5t-137 61.5t-137 -61.5t-47 -179.5zM60 347q0 110 39.5 192t116 126.5t182.5 44.5q103 0 179 -43t117.5 -124.5t41.5 -195.5q0 -110 -39.5 -192t-116 -127t-182.5 -45q-103 0 -179 43t-117.5 125t-41.5 196z
M468 843q22 0 23 29l2 34h81q3 -20 3 -39q0 -47 -29.5 -75t-78.5 -28q-56 0 -94 37q-19 18 -28 23.5t-19 5.5q-22 0 -23 -29l-2 -34h-81q-3 20 -3 39q0 47 29.5 75t78.5 28q56 0 94 -37q19 -18 28 -23.5t19 -5.5z" />
    <glyph glyph-name="Odieresis" unicode="&#xd6;" horiz-adv-x="796" 
d="M214 347q0 -118 47 -180t137 -62t137 62t47 180t-47 179.5t-137 61.5t-137 -61.5t-47 -179.5zM60 347q0 110 39.5 192t116 126.5t182.5 44.5q103 0 179 -43t117.5 -124.5t41.5 -195.5q0 -110 -39.5 -192t-116 -127t-182.5 -45q-103 0 -179 43t-117.5 125t-41.5 196z
M284 770q-37 0 -59 20t-22 54t22 54.5t59 20.5t59 -20.5t22 -54.5t-22 -54t-59 -20zM512 770q-37 0 -59 20t-22 54t22 54.5t59 20.5t59 -20.5t22 -54.5t-22 -54t-59 -20z" />
    <glyph glyph-name="multiply" unicode="&#xd7;" 
d="M153 120l-75 75l139 145l-137 144l77 77l136 -142l136 142l77 -77l-137 -144l139 -145l-75 -75l-140 148z" />
    <glyph glyph-name="Oslash" unicode="&#xd8;" horiz-adv-x="796" 
d="M60 347q0 110 39.5 192t116 126.5t182.5 44.5q113 0 194 -53l62 77l72 -57l-66 -82q76 -95 76 -248q0 -110 -39.5 -192t-116 -127t-182.5 -45q-111 0 -189 49l-65 -81l-72 57l67 84q-79 96 -79 255zM214 347q0 -81 21 -135l274 341q-44 35 -111 35q-90 0 -137 -61.5
t-47 -179.5zM582 347q0 72 -19 127l-271 -338q41 -31 106 -31q90 0 137 62t47 180z" />
    <glyph glyph-name="Ugrave" unicode="&#xd9;" horiz-adv-x="724" 
d="M498 693h150v-439q0 -129 -74.5 -200t-211.5 -71t-211.5 70.5t-74.5 201.5v438h150v-445q0 -70 35 -106.5t101 -36.5t101 36.5t35 106.5v445zM301 769l-133 129h154l101 -129h-122z" />
    <glyph glyph-name="Uacute" unicode="&#xda;" horiz-adv-x="724" 
d="M498 693h150v-439q0 -129 -74.5 -200t-211.5 -71t-211.5 70.5t-74.5 201.5v438h150v-445q0 -70 35 -106.5t101 -36.5t101 36.5t35 106.5v445zM301 769l101 129h154l-133 -129h-122z" />
    <glyph glyph-name="Ucircumflex" unicode="&#xdb;" horiz-adv-x="724" 
d="M498 693h150v-439q0 -129 -74.5 -200t-211.5 -71t-211.5 70.5t-74.5 201.5v438h150v-445q0 -70 35 -106.5t101 -36.5t101 36.5t35 106.5v445zM437 769l-76 75l-76 -75h-128l130 141h148l130 -141h-128z" />
    <glyph glyph-name="Udieresis" unicode="&#xdc;" horiz-adv-x="724" 
d="M498 693h150v-439q0 -129 -74.5 -200t-211.5 -71t-211.5 70.5t-74.5 201.5v438h150v-445q0 -70 35 -106.5t101 -36.5t101 36.5t35 106.5v445zM248 770q-37 0 -59 20t-22 54t22 54.5t59 20.5t59 -20.5t22 -54.5t-22 -54t-59 -20zM476 770q-37 0 -59 20t-22 54t22 54.5
t59 20.5t59 -20.5t22 -54.5t-22 -54t-59 -20z" />
    <glyph glyph-name="Yacute" unicode="&#xdd;" horiz-adv-x="630" 
d="M239 0v256l-229 437h165l142 -324l146 324h157l-233 -439v-254h-148zM258 769l101 129h154l-133 -129h-122z" />
    <glyph glyph-name="Thorn" unicode="&#xde;" horiz-adv-x="615" 
d="M226 135v-135h-146v693h146v-122h115q108 0 171 -58.5t63 -159.5t-63 -159.5t-171 -58.5h-115zM226 247h98q50 0 76.5 27t26.5 79t-26.5 79t-76.5 27h-98v-212z" />
    <glyph glyph-name="germandbls" unicode="&#xdf;" horiz-adv-x="644" 
d="M333 754q102 0 160 -44.5t58 -121.5q0 -45 -19.5 -80t-68.5 -77q-21 -18 -28 -30t-7 -26q0 -26 66 -62l37 -20q50 -27 73.5 -62.5t23.5 -82.5q0 -74 -57 -118.5t-153 -44.5q-69 0 -142 29v105q82 -28 136 -28q37 0 58.5 15t21.5 41q0 18 -13 31.5t-46 31.5l-39 21
q-52 28 -75.5 59.5t-23.5 72.5q0 37 16 66t57 66q26 24 35.5 40.5t9.5 38.5q0 35 -22.5 54.5t-64.5 19.5q-58 0 -86 -38.5t-28 -117.5v-492h-142v491q0 126 68.5 194.5t194.5 68.5z" />
    <glyph glyph-name="agrave" unicode="&#xe0;" horiz-adv-x="546" 
d="M363 0l-12 45q-31 -28 -71.5 -44.5t-78.5 -16.5q-74 0 -118.5 42t-44.5 112q0 48 24 84.5t69 57.5t106 21q48 0 106 -13v50q0 46 -19 63t-70 17q-82 0 -181 -31v97q37 19 93 30.5t114 11.5q103 0 150.5 -41.5t47.5 -130.5v-354h-115zM242 82q25 0 51.5 11t49.5 30v87
q-44 7 -79 7q-87 0 -87 -70q0 -31 17 -48t48 -17zM206 600l-134 169h156l96 -169h-118z" />
    <glyph glyph-name="aacute" unicode="&#xe1;" horiz-adv-x="546" 
d="M363 0l-12 45q-31 -28 -71.5 -44.5t-78.5 -16.5q-74 0 -118.5 42t-44.5 112q0 48 24 84.5t69 57.5t106 21q48 0 106 -13v50q0 46 -19 63t-70 17q-82 0 -181 -31v97q37 19 93 30.5t114 11.5q103 0 150.5 -41.5t47.5 -130.5v-354h-115zM242 82q25 0 51.5 11t49.5 30v87
q-44 7 -79 7q-87 0 -87 -70q0 -31 17 -48t48 -17zM206 600l96 169h156l-134 -169h-118z" />
    <glyph glyph-name="acircumflex" unicode="&#xe2;" horiz-adv-x="546" 
d="M363 0l-12 45q-31 -28 -71.5 -44.5t-78.5 -16.5q-74 0 -118.5 42t-44.5 112q0 48 24 84.5t69 57.5t106 21q48 0 106 -13v50q0 46 -19 63t-70 17q-82 0 -181 -31v97q37 19 93 30.5t114 11.5q103 0 150.5 -41.5t47.5 -130.5v-354h-115zM242 82q25 0 51.5 11t49.5 30v87
q-44 7 -79 7q-87 0 -87 -70q0 -31 17 -48t48 -17zM350 600l-85 98l-85 -98h-114l127 170h144l127 -170h-114z" />
    <glyph glyph-name="atilde" unicode="&#xe3;" horiz-adv-x="546" 
d="M363 0l-12 45q-31 -28 -71.5 -44.5t-78.5 -16.5q-74 0 -118.5 42t-44.5 112q0 48 24 84.5t69 57.5t106 21q48 0 106 -13v50q0 46 -19 63t-70 17q-82 0 -181 -31v97q37 19 93 30.5t114 11.5q103 0 150.5 -41.5t47.5 -130.5v-354h-115zM242 82q25 0 51.5 11t49.5 30v87
q-44 7 -79 7q-87 0 -87 -70q0 -31 17 -48t48 -17zM335 672q22 0 24 31l2 34h80q3 -17 3 -39q0 -47 -29.5 -75t-78.5 -28q-55 0 -94 38q-21 20 -29 25t-18 5q-22 0 -24 -31l-2 -34h-80q-3 24 -3 39q0 47 29.5 75t78.5 28q55 0 94 -38q21 -20 29 -25t18 -5z" />
    <glyph glyph-name="adieresis" unicode="&#xe4;" horiz-adv-x="546" 
d="M363 0l-12 45q-31 -28 -71.5 -44.5t-78.5 -16.5q-74 0 -118.5 42t-44.5 112q0 48 24 84.5t69 57.5t106 21q48 0 106 -13v50q0 46 -19 63t-70 17q-82 0 -181 -31v97q37 19 93 30.5t114 11.5q103 0 150.5 -41.5t47.5 -130.5v-354h-115zM242 82q25 0 51.5 11t49.5 30v87
q-44 7 -79 7q-87 0 -87 -70q0 -31 17 -48t48 -17zM149 587q-36 0 -57.5 19.5t-21.5 53.5t21.5 53.5t57.5 19.5t57.5 -19.5t21.5 -53.5t-21.5 -53.5t-57.5 -19.5zM381 587q-36 0 -57.5 19.5t-21.5 53.5t21.5 53.5t57.5 19.5t57.5 -19.5t21.5 -53.5t-21.5 -53.5t-57.5 -19.5z
" />
    <glyph glyph-name="aring" unicode="&#xe5;" horiz-adv-x="546" 
d="M363 0l-12 45q-31 -28 -71.5 -44.5t-78.5 -16.5q-74 0 -118.5 42t-44.5 112q0 48 24 84.5t69 57.5t106 21q48 0 106 -13v50q0 46 -19 63t-70 17q-82 0 -181 -31v97q37 19 93 30.5t114 11.5q103 0 150.5 -41.5t47.5 -130.5v-354h-115zM242 82q25 0 51.5 11t49.5 30v87
q-44 7 -79 7q-87 0 -87 -70q0 -31 17 -48t48 -17zM265 585q-59 0 -95 31t-36 83t36 83t95 31t95 -31t36 -83t-36 -83t-95 -31zM265 650q21 0 33 13t12 36t-12 36t-33 13t-33 -13t-12 -36t12 -36t33 -13z" />
    <glyph glyph-name="ae" unicode="&#xe6;" horiz-adv-x="851" 
d="M267 526q55 0 98.5 -18.5t68.5 -52.5q68 71 166 71q101 0 155 -54t54 -156q0 -59 -10 -104h-315q6 -62 43.5 -89.5t114.5 -27.5q65 0 156 25v-97q-35 -18 -83.5 -28t-100.5 -10q-143 0 -205 83q-34 -36 -91 -60t-109 -24q-79 0 -125 41t-46 112q0 76 55 123t144 47
q63 0 123 -10v26q0 49 -26 72t-80 23q-80 0 -181 -31v97q32 17 89 29.5t105 12.5zM243 82q32 0 68 17t61 43q-10 32 -13 78q-43 3 -95 3q-87 0 -87 -75q0 -32 17 -49t49 -17zM595 425q-51 0 -80 -32t-32 -91h201v17q0 55 -21.5 80.5t-67.5 25.5z" />
    <glyph glyph-name="ccedilla" unicode="&#xe7;" horiz-adv-x="473" 
d="M439 22q-27 -16 -65 -24.5t-79 -8.5q-122 0 -186.5 68t-64.5 196q0 127 68 198t189 71q73 0 135 -32v-97q-59 17 -108 17q-70 0 -103 -35.5t-33 -112.5v-14q0 -76 32.5 -111.5t100.5 -35.5q49 0 114 18v-97zM283 -59q44 0 70.5 -21t26.5 -56q0 -45 -29.5 -81.5
t-96.5 -71.5l-53 48q37 21 57 42t20 39q0 22 -33 22q-11 0 -32 -3v71q33 11 70 11z" />
    <glyph glyph-name="egrave" unicode="&#xe8;" horiz-adv-x="541" 
d="M179 220q4 -66 40 -95.5t113 -29.5q67 0 156 25v-97q-35 -18 -83.5 -28t-100.5 -10q-127 0 -193.5 69t-66.5 202q0 128 66 199t183 71q99 0 152.5 -54.5t53.5 -155.5q0 -22 -3 -50t-7 -46h-310zM288 425q-49 0 -77.5 -29.5t-32.5 -85.5h196v17q0 98 -86 98zM225 600
l-134 169h156l96 -169h-118z" />
    <glyph glyph-name="eacute" unicode="&#xe9;" horiz-adv-x="541" 
d="M179 220q4 -66 40 -95.5t113 -29.5q67 0 156 25v-97q-35 -18 -83.5 -28t-100.5 -10q-127 0 -193.5 69t-66.5 202q0 128 66 199t183 71q99 0 152.5 -54.5t53.5 -155.5q0 -22 -3 -50t-7 -46h-310zM288 425q-49 0 -77.5 -29.5t-32.5 -85.5h196v17q0 98 -86 98zM225 600
l96 169h156l-134 -169h-118z" />
    <glyph glyph-name="ecircumflex" unicode="&#xea;" horiz-adv-x="541" 
d="M179 220q4 -66 40 -95.5t113 -29.5q67 0 156 25v-97q-35 -18 -83.5 -28t-100.5 -10q-127 0 -193.5 69t-66.5 202q0 128 66 199t183 71q99 0 152.5 -54.5t53.5 -155.5q0 -22 -3 -50t-7 -46h-310zM288 425q-49 0 -77.5 -29.5t-32.5 -85.5h196v17q0 98 -86 98zM369 600
l-85 98l-85 -98h-114l127 170h144l127 -170h-114z" />
    <glyph glyph-name="edieresis" unicode="&#xeb;" horiz-adv-x="541" 
d="M179 220q4 -66 40 -95.5t113 -29.5q67 0 156 25v-97q-35 -18 -83.5 -28t-100.5 -10q-127 0 -193.5 69t-66.5 202q0 128 66 199t183 71q99 0 152.5 -54.5t53.5 -155.5q0 -22 -3 -50t-7 -46h-310zM288 425q-49 0 -77.5 -29.5t-32.5 -85.5h196v17q0 98 -86 98zM168 587
q-36 0 -57.5 19.5t-21.5 53.5t21.5 53.5t57.5 19.5t57.5 -19.5t21.5 -53.5t-21.5 -53.5t-57.5 -19.5zM400 587q-36 0 -57.5 19.5t-21.5 53.5t21.5 53.5t57.5 19.5t57.5 -19.5t21.5 -53.5t-21.5 -53.5t-57.5 -19.5z" />
    <glyph glyph-name="igrave" unicode="&#xec;" horiz-adv-x="294" 
d="M74 0v511h146v-511h-146zM88 600l-134 169h156l96 -169h-118z" />
    <glyph glyph-name="iacute" unicode="&#xed;" horiz-adv-x="294" 
d="M74 0v511h146v-511h-146zM88 600l96 169h156l-134 -169h-118z" />
    <glyph glyph-name="icircumflex" unicode="&#xee;" horiz-adv-x="294" 
d="M74 0v511h146v-511h-146zM232 600l-85 98l-85 -98h-114l127 170h144l127 -170h-114z" />
    <glyph glyph-name="idieresis" unicode="&#xef;" horiz-adv-x="294" 
d="M74 0v511h146v-511h-146zM31 587q-36 0 -57.5 19.5t-21.5 53.5t21.5 53.5t57.5 19.5t57.5 -19.5t21.5 -53.5t-21.5 -53.5t-57.5 -19.5zM263 587q-36 0 -57.5 19.5t-21.5 53.5t21.5 53.5t57.5 19.5t57.5 -19.5t21.5 -53.5t-21.5 -53.5t-57.5 -19.5z" />
    <glyph glyph-name="eth" unicode="&#xf0;" horiz-adv-x="576" 
d="M155 579l65 59q-52 17 -100 24v108q102 -12 184 -52l79 73l52 -55l-65 -60q80 -62 121 -158t41 -220q0 -160 -60 -236.5t-185 -76.5q-113 0 -178 67.5t-65 184.5q0 73 27 129t77.5 88t118.5 32q43 0 80.5 -15.5t66.5 -44.5q-44 132 -120 179l-87 -80zM288 91
q105 0 105 145q0 72 -26.5 109t-78.5 37q-100 0 -100 -146q0 -71 25.5 -108t74.5 -37z" />
    <glyph glyph-name="ntilde" unicode="&#xf1;" horiz-adv-x="612" 
d="M398 0v335q0 41 -18 60t-55 19q-55 0 -109 -34v-380h-146v511h120l14 -55q90 70 192 70q71 0 109.5 -38.5t38.5 -109.5v-378h-146zM384 672q22 0 24 31l2 34h80q3 -17 3 -39q0 -47 -29.5 -75t-78.5 -28q-55 0 -94 38q-21 20 -29 25t-18 5q-22 0 -24 -31l-2 -34h-80
q-3 24 -3 39q0 47 29.5 75t78.5 28q55 0 94 -38q21 -20 29 -25t18 -5z" />
    <glyph glyph-name="ograve" unicode="&#xf2;" horiz-adv-x="594" 
d="M297 -15q-119 0 -186 71.5t-67 199.5q0 127 67 198.5t186 71.5t186 -71.5t67 -198.5q0 -128 -67 -199.5t-186 -71.5zM297 97q105 0 105 159q0 158 -105 158t-105 -158q0 -159 105 -159zM238 600l-134 169h156l96 -169h-118z" />
    <glyph glyph-name="oacute" unicode="&#xf3;" horiz-adv-x="594" 
d="M297 -15q-119 0 -186 71.5t-67 199.5q0 127 67 198.5t186 71.5t186 -71.5t67 -198.5q0 -128 -67 -199.5t-186 -71.5zM297 97q105 0 105 159q0 158 -105 158t-105 -158q0 -159 105 -159zM238 600l96 169h156l-134 -169h-118z" />
    <glyph glyph-name="ocircumflex" unicode="&#xf4;" horiz-adv-x="594" 
d="M297 -15q-119 0 -186 71.5t-67 199.5q0 127 67 198.5t186 71.5t186 -71.5t67 -198.5q0 -128 -67 -199.5t-186 -71.5zM297 97q105 0 105 159q0 158 -105 158t-105 -158q0 -159 105 -159zM382 600l-85 98l-85 -98h-114l127 170h144l127 -170h-114z" />
    <glyph glyph-name="otilde" unicode="&#xf5;" horiz-adv-x="594" 
d="M297 -15q-119 0 -186 71.5t-67 199.5q0 127 67 198.5t186 71.5t186 -71.5t67 -198.5q0 -128 -67 -199.5t-186 -71.5zM297 97q105 0 105 159q0 158 -105 158t-105 -158q0 -159 105 -159zM367 672q22 0 24 31l2 34h80q3 -17 3 -39q0 -47 -29.5 -75t-78.5 -28q-55 0 -94 38
q-21 20 -29 25t-18 5q-22 0 -24 -31l-2 -34h-80q-3 24 -3 39q0 47 29.5 75t78.5 28q55 0 94 -38q21 -20 29 -25t18 -5z" />
    <glyph glyph-name="odieresis" unicode="&#xf6;" horiz-adv-x="594" 
d="M297 -15q-119 0 -186 71.5t-67 199.5q0 127 67 198.5t186 71.5t186 -71.5t67 -198.5q0 -128 -67 -199.5t-186 -71.5zM297 97q105 0 105 159q0 158 -105 158t-105 -158q0 -159 105 -159zM181 587q-36 0 -57.5 19.5t-21.5 53.5t21.5 53.5t57.5 19.5t57.5 -19.5t21.5 -53.5
t-21.5 -53.5t-57.5 -19.5zM413 587q-36 0 -57.5 19.5t-21.5 53.5t21.5 53.5t57.5 19.5t57.5 -19.5t21.5 -53.5t-21.5 -53.5t-57.5 -19.5z" />
    <glyph glyph-name="divide" unicode="&#xf7;" 
d="M293 86q-34 0 -55 21t-21 54q0 34 21 55t55 21t55 -21t21 -55q0 -33 -21 -54t-55 -21zM60 291v112h466v-112h-466zM293 457q-34 0 -55 21t-21 54q0 34 21 55t55 21t55 -21t21 -55q0 -33 -21 -54t-55 -21z" />
    <glyph glyph-name="oslash" unicode="&#xf8;" horiz-adv-x="594" 
d="M55 10l46 58q-57 69 -57 188q0 127 67 198.5t186 71.5q84 0 141 -36l47 59l59 -48l-49 -61q55 -69 55 -184q0 -128 -67 -199.5t-186 -71.5q-78 0 -138 33l-45 -56zM192 256q0 -38 6 -67l162 203q-25 22 -63 22q-105 0 -105 -158zM297 97q105 0 105 159q0 31 -5 61
l-160 -201q23 -19 60 -19z" />
    <glyph glyph-name="ugrave" unicode="&#xf9;" horiz-adv-x="600" 
d="M410 0l-14 54q-89 -69 -186 -69q-68 0 -106 40.5t-38 111.5v374h146v-333q0 -81 70 -81q52 0 102 32v382h146v-511h-120zM239 600l-134 169h156l96 -169h-118z" />
    <glyph glyph-name="uacute" unicode="&#xfa;" horiz-adv-x="600" 
d="M410 0l-14 54q-89 -69 -186 -69q-68 0 -106 40.5t-38 111.5v374h146v-333q0 -81 70 -81q52 0 102 32v382h146v-511h-120zM239 600l96 169h156l-134 -169h-118z" />
    <glyph glyph-name="ucircumflex" unicode="&#xfb;" horiz-adv-x="600" 
d="M410 0l-14 54q-89 -69 -186 -69q-68 0 -106 40.5t-38 111.5v374h146v-333q0 -81 70 -81q52 0 102 32v382h146v-511h-120zM383 600l-85 98l-85 -98h-114l127 170h144l127 -170h-114z" />
    <glyph glyph-name="udieresis" unicode="&#xfc;" horiz-adv-x="600" 
d="M410 0l-14 54q-89 -69 -186 -69q-68 0 -106 40.5t-38 111.5v374h146v-333q0 -81 70 -81q52 0 102 32v382h146v-511h-120zM182 587q-36 0 -57.5 19.5t-21.5 53.5t21.5 53.5t57.5 19.5t57.5 -19.5t21.5 -53.5t-21.5 -53.5t-57.5 -19.5zM414 587q-36 0 -57.5 19.5
t-21.5 53.5t21.5 53.5t57.5 19.5t57.5 -19.5t21.5 -53.5t-21.5 -53.5t-57.5 -19.5z" />
    <glyph glyph-name="yacute" unicode="&#xfd;" horiz-adv-x="536" 
d="M206 -8l-202 519h155l114 -382l108 382h151l-216 -580q-29 -79 -71 -114t-106 -35q-50 0 -97 16v99q32 -3 57 -3q42 0 65 19.5t39 67.5zM214 600l96 169h156l-134 -169h-118z" />
    <glyph glyph-name="thorn" unicode="&#xfe;" horiz-adv-x="615" 
d="M357 -11q-40 0 -77 13t-64 36v-244h-146v946h146v-268q29 25 68 39.5t77 14.5q97 0 153.5 -71t56.5 -192q0 -79 -26 -141t-75 -97.5t-113 -35.5zM314 416q-52 0 -98 -27v-263q44 -27 98 -27q56 0 82.5 38t26.5 120q0 83 -26 121t-83 38z" />
    <glyph glyph-name="ydieresis" unicode="&#xff;" horiz-adv-x="536" 
d="M206 -8l-202 519h155l114 -382l108 382h151l-216 -580q-29 -79 -71 -114t-106 -35q-50 0 -97 16v99q32 -3 57 -3q42 0 65 19.5t39 67.5zM157 587q-36 0 -57.5 19.5t-21.5 53.5t21.5 53.5t57.5 19.5t57.5 -19.5t21.5 -53.5t-21.5 -53.5t-57.5 -19.5zM389 587
q-36 0 -57.5 19.5t-21.5 53.5t21.5 53.5t57.5 19.5t57.5 -19.5t21.5 -53.5t-21.5 -53.5t-57.5 -19.5z" />
    <glyph glyph-name="Amacron" unicode="&#x100;" horiz-adv-x="665" 
d="M496 0l-49 158h-237l-47 -158h-157l244 693h165l244 -693h-163zM242 266h174l-88 290zM160 791v90h338v-90h-338z" />
    <glyph glyph-name="amacron" unicode="&#x101;" horiz-adv-x="546" 
d="M363 0l-12 45q-31 -28 -71.5 -44.5t-78.5 -16.5q-74 0 -118.5 42t-44.5 112q0 48 24 84.5t69 57.5t106 21q48 0 106 -13v50q0 46 -19 63t-70 17q-82 0 -181 -31v97q37 19 93 30.5t114 11.5q103 0 150.5 -41.5t47.5 -130.5v-354h-115zM242 82q25 0 51.5 11t49.5 30v87
q-44 7 -79 7q-87 0 -87 -70q0 -31 17 -48t48 -17zM96 623v90h338v-90h-338z" />
    <glyph glyph-name="Abreve" unicode="&#x102;" horiz-adv-x="665" 
d="M496 0l-49 158h-237l-47 -158h-157l244 693h165l244 -693h-163zM242 266h174l-88 290zM329 762q-73 0 -114.5 32t-41.5 89q0 17 3 27h82l1 -13q4 -47 70 -47q65 0 70 47l1 13h82q3 -10 3 -27q0 -57 -41.5 -89t-114.5 -32z" />
    <glyph glyph-name="abreve" unicode="&#x103;" horiz-adv-x="546" 
d="M363 0l-12 45q-31 -28 -71.5 -44.5t-78.5 -16.5q-74 0 -118.5 42t-44.5 112q0 48 24 84.5t69 57.5t106 21q48 0 106 -13v50q0 46 -19 63t-70 17q-82 0 -181 -31v97q37 19 93 30.5t114 11.5q103 0 150.5 -41.5t47.5 -130.5v-354h-115zM242 82q25 0 51.5 11t49.5 30v87
q-44 7 -79 7q-87 0 -87 -70q0 -31 17 -48t48 -17zM265 596q-71 0 -113.5 36.5t-42.5 97.5q0 19 3 32h82l3 -27q3 -27 19.5 -39.5t48.5 -12.5t48.5 12.5t19.5 39.5l3 27h82q3 -13 3 -32q0 -61 -42.5 -97.5t-113.5 -36.5z" />
    <glyph glyph-name="Aogonek" unicode="&#x104;" horiz-adv-x="665" 
d="M659 0q-82 -62 -82 -115q0 -34 46 -34q19 0 46 6v-75q-36 -13 -78 -13q-59 0 -91.5 24t-32.5 67q0 75 92 140h-63l-49 158h-237l-47 -158h-157l244 693h165zM242 266h174l-88 290z" />
    <glyph glyph-name="aogonek" unicode="&#x105;" horiz-adv-x="546" 
d="M478 0q-42 -32 -62 -60.5t-20 -56.5q0 -34 49 -34q14 0 45 6v-73q-36 -13 -78 -13q-59 0 -91.5 24t-32.5 67q0 75 92 140h-17l-12 45q-31 -28 -71.5 -44.5t-78.5 -16.5q-74 0 -118.5 42t-44.5 112q0 48 24 84.5t69 57.5t106 21q48 0 106 -13v50q0 46 -19 63t-70 17
q-82 0 -181 -31v97q37 19 93 30.5t114 11.5q103 0 150.5 -41.5t47.5 -130.5v-354zM242 82q25 0 51.5 11t49.5 30v87q-44 7 -79 7q-87 0 -87 -70q0 -31 17 -48t48 -17z" />
    <glyph glyph-name="Cacute" unicode="&#x106;" horiz-adv-x="617" 
d="M584 18q-81 -31 -181 -31q-169 0 -256 90.5t-87 265.5q0 173 91 268t256 95q88 0 167 -28v-118q-91 20 -149 20q-104 0 -155.5 -55t-51.5 -168v-23q0 -112 50 -166.5t153 -54.5q58 0 163 23v-118zM331 769l101 129h154l-133 -129h-122z" />
    <glyph glyph-name="cacute" unicode="&#x107;" horiz-adv-x="473" 
d="M439 22q-27 -16 -65 -24.5t-79 -8.5q-122 0 -186.5 68t-64.5 196q0 127 68 198t189 71q73 0 135 -32v-97q-59 17 -108 17q-70 0 -103 -35.5t-33 -112.5v-14q0 -76 32.5 -111.5t100.5 -35.5q49 0 114 18v-97zM217 600l96 169h156l-134 -169h-118z" />
    <glyph glyph-name="Ccircumflex" unicode="&#x108;" horiz-adv-x="626" 
d="M584 18q-81 -31 -181 -31q-169 0 -256 90.5t-87 265.5q0 173 91 268t256 95q88 0 167 -28v-118q-91 20 -149 20q-104 0 -155.5 -55t-51.5 -168v-23q0 -112 50 -166.5t153 -54.5q58 0 163 23v-118zM467 769l-76 75l-76 -75h-128l130 141h148l130 -141h-128z" />
    <glyph glyph-name="ccircumflex" unicode="&#x109;" horiz-adv-x="473" 
d="M439 22q-27 -16 -65 -24.5t-79 -8.5q-122 0 -186.5 68t-64.5 196q0 127 68 198t189 71q73 0 135 -32v-97q-59 17 -108 17q-70 0 -103 -35.5t-33 -112.5v-14q0 -76 32.5 -111.5t100.5 -35.5q49 0 114 18v-97zM361 600l-85 98l-85 -98h-114l127 170h144l127 -170h-114z" />
    <glyph glyph-name="Cdotaccent" unicode="&#x10a;" horiz-adv-x="615" 
d="M584 18q-81 -31 -181 -31q-169 0 -256 90.5t-87 265.5q0 173 91 268t256 95q88 0 167 -28v-118q-91 20 -149 20q-104 0 -155.5 -55t-51.5 -168v-23q0 -112 50 -166.5t153 -54.5q58 0 163 23v-118zM392 770q-39 0 -62.5 21.5t-23.5 58.5t23.5 58.5t62.5 21.5t62.5 -21.5
t23.5 -58.5t-23.5 -58.5t-62.5 -21.5z" />
    <glyph glyph-name="cdotaccent" unicode="&#x10b;" horiz-adv-x="473" 
d="M439 22q-27 -16 -65 -24.5t-79 -8.5q-122 0 -186.5 68t-64.5 196q0 127 68 198t189 71q73 0 135 -32v-97q-59 17 -108 17q-70 0 -103 -35.5t-33 -112.5v-14q0 -76 32.5 -111.5t100.5 -35.5q49 0 114 18v-97zM276 590q-38 0 -61 21t-23 57t23 57t61 21t61 -21t23 -57
t-23 -57t-61 -21z" />
    <glyph glyph-name="Ccaron" unicode="&#x10c;" horiz-adv-x="627" 
d="M584 18q-81 -31 -181 -31q-169 0 -256 90.5t-87 265.5q0 173 91 268t256 95q88 0 167 -28v-118q-91 20 -149 20q-104 0 -155.5 -55t-51.5 -168v-23q0 -112 50 -166.5t153 -54.5q58 0 163 23v-118zM319 769l-131 141h146l58 -83l58 83h146l-131 -141h-146z" />
    <glyph glyph-name="ccaron" unicode="&#x10d;" horiz-adv-x="473" 
d="M439 22q-27 -16 -65 -24.5t-79 -8.5q-122 0 -186.5 68t-64.5 196q0 127 68 198t189 71q73 0 135 -32v-97q-59 17 -108 17q-70 0 -103 -35.5t-33 -112.5v-14q0 -76 32.5 -111.5t100.5 -35.5q49 0 114 18v-97zM205 600l-128 170h132l67 -107l67 107h132l-128 -170h-142z
" />
    <glyph glyph-name="Dcaron" unicode="&#x10e;" horiz-adv-x="711" 
d="M80 0v693h249q155 0 238.5 -89.5t83.5 -256.5q0 -166 -83.5 -256.5t-235.5 -90.5h-252zM230 577v-461h86q181 0 181 221v20q0 220 -182 220h-85zM252 769l-131 141h146l58 -83l58 83h146l-131 -141h-146z" />
    <glyph glyph-name="dcaron" unicode="&#x10f;" horiz-adv-x="682" 
d="M415 0l-12 45q-62 -56 -147 -56q-63 0 -111 31.5t-74.5 91.5t-26.5 141q0 124 59 198.5t156 74.5q79 0 137 -45v259h146v-740h-127zM304 99q48 0 92 28v264q-43 25 -99 25q-53 0 -79 -39.5t-26 -119.5t27.5 -119t84.5 -39zM609 537v203q28 12 64 12q43 0 69 -20l-41 -195
h-92z" />
    <glyph glyph-name="Dcroat" unicode="&#x110;" horiz-adv-x="721" 
d="M90 0v306h-80v102h80v285h249q155 0 238.5 -89.5t83.5 -256.5q0 -166 -83.5 -256.5t-235.5 -90.5h-252zM240 306v-190h86q181 0 181 221v20q0 220 -182 220h-85v-169h137v-102h-137z" />
    <glyph glyph-name="dcroat" unicode="&#x111;" horiz-adv-x="612" 
d="M415 0l-12 45q-62 -56 -147 -56q-63 0 -111 31.5t-74.5 91.5t-26.5 141q0 124 59 198.5t156 74.5q79 0 137 -45v103h-152v88h152v68h146v-68h66v-88h-66v-584h-127zM304 99q48 0 92 28v264q-43 25 -99 25q-53 0 -79 -39.5t-26 -119.5t27.5 -119t84.5 -39z" />
    <glyph glyph-name="Emacron" unicode="&#x112;" horiz-adv-x="578" 
d="M80 0v693h456v-116h-306v-164h249v-116h-249v-181h306v-116h-456zM139 791v90h338v-90h-338z" />
    <glyph glyph-name="emacron" unicode="&#x113;" horiz-adv-x="541" 
d="M179 220q4 -66 40 -95.5t113 -29.5q67 0 156 25v-97q-35 -18 -83.5 -28t-100.5 -10q-127 0 -193.5 69t-66.5 202q0 128 66 199t183 71q99 0 152.5 -54.5t53.5 -155.5q0 -22 -3 -50t-7 -46h-310zM288 425q-49 0 -77.5 -29.5t-32.5 -85.5h196v17q0 98 -86 98zM115 623v90
h338v-90h-338z" />
    <glyph glyph-name="Ebreve" unicode="&#x114;" horiz-adv-x="578" 
d="M80 0v693h456v-116h-306v-164h249v-116h-249v-181h306v-116h-456zM308 762q-73 0 -114.5 32t-41.5 89q0 17 3 27h82l1 -13q4 -47 70 -47q65 0 70 47l1 13h82q3 -10 3 -27q0 -57 -41.5 -89t-114.5 -32z" />
    <glyph glyph-name="ebreve" unicode="&#x115;" horiz-adv-x="541" 
d="M179 220q4 -66 40 -95.5t113 -29.5q67 0 156 25v-97q-35 -18 -83.5 -28t-100.5 -10q-127 0 -193.5 69t-66.5 202q0 128 66 199t183 71q99 0 152.5 -54.5t53.5 -155.5q0 -22 -3 -50t-7 -46h-310zM288 425q-49 0 -77.5 -29.5t-32.5 -85.5h196v17q0 98 -86 98zM284 596
q-71 0 -113.5 36.5t-42.5 97.5q0 19 3 32h82l3 -27q3 -27 19.5 -39.5t48.5 -12.5t48.5 12.5t19.5 39.5l3 27h82q3 -13 3 -32q0 -61 -42.5 -97.5t-113.5 -36.5z" />
    <glyph glyph-name="Edotaccent" unicode="&#x116;" horiz-adv-x="578" 
d="M80 0v693h456v-116h-306v-164h249v-116h-249v-181h306v-116h-456zM308 770q-39 0 -62.5 21.5t-23.5 58.5t23.5 58.5t62.5 21.5t62.5 -21.5t23.5 -58.5t-23.5 -58.5t-62.5 -21.5z" />
    <glyph glyph-name="edotaccent" unicode="&#x117;" horiz-adv-x="541" 
d="M179 220q4 -66 40 -95.5t113 -29.5q67 0 156 25v-97q-35 -18 -83.5 -28t-100.5 -10q-127 0 -193.5 69t-66.5 202q0 128 66 199t183 71q99 0 152.5 -54.5t53.5 -155.5q0 -22 -3 -50t-7 -46h-310zM288 425q-49 0 -77.5 -29.5t-32.5 -85.5h196v17q0 98 -86 98zM284 590
q-38 0 -61 21t-23 57t23 57t61 21t61 -21t23 -57t-23 -57t-61 -21z" />
    <glyph glyph-name="Eogonek" unicode="&#x118;" horiz-adv-x="578" 
d="M536 0q-82 -62 -82 -115q0 -34 46 -34q19 0 46 6v-75q-36 -13 -78 -13q-59 0 -91.5 24t-32.5 67q0 75 92 140h-356v693h456v-116h-306v-164h249v-116h-249v-181h306v-116z" />
    <glyph glyph-name="eogonek" unicode="&#x119;" horiz-adv-x="541" 
d="M445 -218q-36 -13 -78 -13q-60 0 -92 25t-32 72q0 32 24 64t66 57q-11 -2 -29 -2q-127 0 -193.5 69t-66.5 202q0 128 66 199t183 71q99 0 152.5 -54.5t53.5 -155.5q0 -20 -3 -48.5t-7 -47.5h-310q4 -66 40 -95.5t113 -29.5q65 0 156 25v-97q-60 -23 -98.5 -61t-38.5 -74
q0 -39 49 -39q14 0 45 6v-73zM288 425q-49 0 -77.5 -29.5t-32.5 -85.5h196v17q0 98 -86 98z" />
    <glyph glyph-name="Ecaron" unicode="&#x11a;" horiz-adv-x="578" 
d="M80 0v693h456v-116h-306v-164h249v-116h-249v-181h306v-116h-456zM235 769l-131 141h146l58 -83l58 83h146l-131 -141h-146z" />
    <glyph glyph-name="ecaron" unicode="&#x11b;" horiz-adv-x="541" 
d="M179 220q4 -66 40 -95.5t113 -29.5q67 0 156 25v-97q-35 -18 -83.5 -28t-100.5 -10q-127 0 -193.5 69t-66.5 202q0 128 66 199t183 71q99 0 152.5 -54.5t53.5 -155.5q0 -22 -3 -50t-7 -46h-310zM288 425q-49 0 -77.5 -29.5t-32.5 -85.5h196v17q0 98 -86 98zM213 600
l-128 170h132l67 -107l67 107h132l-128 -170h-142z" />
    <glyph glyph-name="Gcircumflex" unicode="&#x11c;" horiz-adv-x="709" 
d="M429 107q31 0 74 5v169h-130v108h268v-347q-47 -25 -112 -39t-132 -14q-162 0 -249.5 91t-87.5 259q0 178 90.5 271.5t262.5 93.5q118 0 203 -41v-114q-104 33 -187 33q-111 0 -163 -55.5t-52 -174.5v-18q0 -118 51.5 -172.5t163.5 -54.5zM476 769l-76 75l-76 -75h-128
l130 141h148l130 -141h-128z" />
    <glyph glyph-name="gcircumflex" unicode="&#x11d;" horiz-adv-x="596" 
d="M382 62q-57 -51 -134 -51q-93 0 -148.5 69.5t-55.5 185.5q0 118 56 189t150 71q42 0 79 -15t66 -44l11 44h120v-471q0 -122 -68 -190t-188 -68q-97 0 -184 43v98q99 -31 171 -31q66 0 95.5 30.5t29.5 99.5v40zM293 119q23 0 46.5 7.5t42.5 20.5v246q-41 25 -96 25
q-96 0 -96 -148q0 -77 25 -114t78 -37zM379 600l-85 98l-85 -98h-114l127 170h144l127 -170h-114z" />
    <glyph glyph-name="Gbreve" unicode="&#x11e;" horiz-adv-x="709" 
d="M429 107q31 0 74 5v169h-130v108h268v-347q-47 -25 -112 -39t-132 -14q-162 0 -249.5 91t-87.5 259q0 178 90.5 271.5t262.5 93.5q118 0 203 -41v-114q-104 33 -187 33q-111 0 -163 -55.5t-52 -174.5v-18q0 -118 51.5 -172.5t163.5 -54.5zM401 762q-73 0 -114.5 32
t-41.5 89q0 17 3 27h82l1 -13q4 -47 70 -47q65 0 70 47l1 13h82q3 -10 3 -27q0 -57 -41.5 -89t-114.5 -32z" />
    <glyph glyph-name="gbreve" unicode="&#x11f;" horiz-adv-x="596" 
d="M382 62q-57 -51 -134 -51q-93 0 -148.5 69.5t-55.5 185.5q0 118 56 189t150 71q42 0 79 -15t66 -44l11 44h120v-471q0 -122 -68 -190t-188 -68q-97 0 -184 43v98q99 -31 171 -31q66 0 95.5 30.5t29.5 99.5v40zM293 119q23 0 46.5 7.5t42.5 20.5v246q-41 25 -96 25
q-96 0 -96 -148q0 -77 25 -114t78 -37zM294 596q-71 0 -113.5 36.5t-42.5 97.5q0 19 3 32h82l3 -27q3 -27 19.5 -39.5t48.5 -12.5t48.5 12.5t19.5 39.5l3 27h82q3 -13 3 -32q0 -61 -42.5 -97.5t-113.5 -36.5z" />
    <glyph glyph-name="Gdotaccent" unicode="&#x120;" horiz-adv-x="709" 
d="M429 107q31 0 74 5v169h-130v108h268v-347q-47 -25 -112 -39t-132 -14q-162 0 -249.5 91t-87.5 259q0 178 90.5 271.5t262.5 93.5q118 0 203 -41v-114q-104 33 -187 33q-111 0 -163 -55.5t-52 -174.5v-18q0 -118 51.5 -172.5t163.5 -54.5zM401 770q-39 0 -62.5 21.5
t-23.5 58.5t23.5 58.5t62.5 21.5t62.5 -21.5t23.5 -58.5t-23.5 -58.5t-62.5 -21.5z" />
    <glyph glyph-name="gdotaccent" unicode="&#x121;" horiz-adv-x="596" 
d="M382 62q-57 -51 -134 -51q-93 0 -148.5 69.5t-55.5 185.5q0 118 56 189t150 71q42 0 79 -15t66 -44l11 44h120v-471q0 -122 -68 -190t-188 -68q-97 0 -184 43v98q99 -31 171 -31q66 0 95.5 30.5t29.5 99.5v40zM293 119q23 0 46.5 7.5t42.5 20.5v246q-41 25 -96 25
q-96 0 -96 -148q0 -77 25 -114t78 -37zM294 590q-38 0 -61 21t-23 57t23 57t61 21t61 -21t23 -57t-23 -57t-61 -21z" />
    <glyph glyph-name="uni0122" unicode="&#x122;" horiz-adv-x="709" 
d="M429 107q31 0 74 5v169h-130v108h268v-347q-47 -25 -112 -39t-132 -14q-162 0 -249.5 91t-87.5 259q0 178 90.5 271.5t262.5 93.5q118 0 203 -41v-114q-104 33 -187 33q-111 0 -163 -55.5t-52 -174.5v-18q0 -118 51.5 -172.5t163.5 -54.5zM314 -286l36 224h49
q73 0 73 -46q0 -10 -4.5 -24t-17.5 -46l-47 -108h-89z" />
    <glyph glyph-name="uni0123" unicode="&#x123;" horiz-adv-x="596" 
d="M382 62q-57 -51 -134 -51q-93 0 -148.5 69.5t-55.5 185.5q0 118 56 189t150 71q42 0 79 -15t66 -44l11 44h120v-471q0 -122 -68 -190t-188 -68q-97 0 -184 43v98q99 -31 171 -31q66 0 95.5 30.5t29.5 99.5v40zM293 119q23 0 46.5 7.5t42.5 20.5v246q-41 25 -96 25
q-96 0 -96 -148q0 -77 25 -114t78 -37zM385 820l-37 -232h-46q-73 0 -73 47q0 20 21 69l48 116h87z" />
    <glyph glyph-name="Hcircumflex" unicode="&#x124;" horiz-adv-x="736" 
d="M506 0v295h-276v-295h-150v693h150v-282h276v282h150v-693h-150zM443 769l-76 75l-76 -75h-128l130 141h148l130 -141h-128z" />
    <glyph glyph-name="hcircumflex" unicode="&#x125;" horiz-adv-x="612" 
d="M398 0v335q0 41 -18 60t-55 19q-55 0 -109 -34v-380h-146v740h146v-275q86 61 180 61q71 0 109.5 -38.5t38.5 -109.5v-378h-146zM218 789l-76 75l-76 -75h-128l130 141h148l130 -141h-128z" />
    <glyph glyph-name="Hbar" unicode="&#x126;" horiz-adv-x="756" 
d="M516 0v295h-276v-295h-150v498h-80v94h80v101h150v-101h276v101h150v-101h80v-94h-80v-498h-150zM516 411v87h-276v-87h276z" />
    <glyph glyph-name="hbar" unicode="&#x127;" horiz-adv-x="612" 
d="M398 0v335q0 41 -18 60t-55 19q-55 0 -109 -34v-380h-146v584h-66v88h66v68h146v-68h157v-88h-157v-119q86 61 180 61q71 0 109.5 -38.5t38.5 -109.5v-378h-146z" />
    <glyph glyph-name="Itilde" unicode="&#x128;" horiz-adv-x="318" 
d="M84 0v693h150v-693h-150zM229 843q22 0 23 29l2 34h81q3 -20 3 -39q0 -47 -29.5 -75t-78.5 -28q-56 0 -94 37q-19 18 -28 23.5t-19 5.5q-22 0 -23 -29l-2 -34h-81q-3 20 -3 39q0 47 29.5 75t78.5 28q56 0 94 -37q19 -18 28 -23.5t19 -5.5z" />
    <glyph glyph-name="itilde" unicode="&#x129;" horiz-adv-x="294" 
d="M74 0v511h146v-511h-146zM217 672q22 0 24 31l2 34h80q3 -17 3 -39q0 -47 -29.5 -75t-78.5 -28q-55 0 -94 38q-21 20 -29 25t-18 5q-22 0 -24 -31l-2 -34h-80q-3 24 -3 39q0 47 29.5 75t78.5 28q55 0 94 -38q21 -20 29 -25t18 -5z" />
    <glyph glyph-name="Imacron" unicode="&#x12a;" horiz-adv-x="318" 
d="M84 0v693h150v-693h-150zM-10 791v90h338v-90h-338z" />
    <glyph glyph-name="imacron" unicode="&#x12b;" horiz-adv-x="294" 
d="M74 0v511h146v-511h-146zM-22 623v90h338v-90h-338z" />
    <glyph glyph-name="Ibreve" unicode="&#x12c;" horiz-adv-x="318" 
d="M84 0v693h150v-693h-150zM159 762q-73 0 -114.5 32t-41.5 89q0 17 3 27h82l1 -13q4 -47 70 -47q65 0 70 47l1 13h82q3 -10 3 -27q0 -57 -41.5 -89t-114.5 -32z" />
    <glyph glyph-name="ibreve" unicode="&#x12d;" horiz-adv-x="294" 
d="M74 0v511h146v-511h-146zM147 596q-71 0 -113.5 36.5t-42.5 97.5q0 19 3 32h82l3 -27q3 -27 19.5 -39.5t48.5 -12.5t48.5 12.5t19.5 39.5l3 27h82q3 -13 3 -32q0 -61 -42.5 -97.5t-113.5 -36.5z" />
    <glyph glyph-name="Iogonek" unicode="&#x12e;" horiz-adv-x="318" 
d="M84 693h150v-693q-82 -62 -82 -115q0 -34 46 -34q19 0 46 6v-75q-36 -13 -78 -13q-59 0 -91.5 24t-32.5 67q0 75 92 140h-50v693z" />
    <glyph glyph-name="iogonek" unicode="&#x12f;" horiz-adv-x="294" 
d="M74 511h146v-511q-42 -32 -62 -60.5t-20 -56.5q0 -34 49 -34q14 0 45 6v-73q-36 -13 -78 -13q-59 0 -91.5 24t-32.5 67q0 75 92 140h-48v511zM147 590q-38 0 -61 21t-23 57t23 57t61 21t61 -21t23 -57t-23 -57t-61 -21z" />
    <glyph glyph-name="Idotaccent" unicode="&#x130;" horiz-adv-x="318" 
d="M84 0v693h150v-693h-150zM159 770q-39 0 -62.5 21.5t-23.5 58.5t23.5 58.5t62.5 21.5t62.5 -21.5t23.5 -58.5t-23.5 -58.5t-62.5 -21.5z" />
    <glyph glyph-name="dotlessi" unicode="&#x131;" horiz-adv-x="294" 
d="M74 0v511h146v-511h-146z" />
    <glyph glyph-name="IJ" unicode="&#x132;" horiz-adv-x="761" 
d="M328 121q56 -14 107 -14q54 0 77 26.5t23 89.5v470h150v-467q0 -243 -229 -243q-34 0 -63 5.5t-65 17.5v115zM84 0v693h150v-693h-150z" />
    <glyph glyph-name="ij" unicode="&#x133;" horiz-adv-x="588" 
d="M368 511h146v-565q0 -83 -38 -123.5t-116 -40.5q-53 0 -101 16v99q30 -3 57 -3q28 0 40 11t12 37v569zM441 590q-38 0 -61 21t-23 57t23 57t61 21t61 -21t23 -57t-23 -57t-61 -21zM74 0v511h146v-511h-146zM147 590q-38 0 -61 21t-23 57t23 57t61 21t61 -21t23 -57
t-23 -57t-61 -21z" />
    <glyph glyph-name="Jcircumflex" unicode="&#x134;" horiz-adv-x="455" 
d="M22 121q56 -14 107 -14q54 0 77 26.5t23 89.5v470h150v-467q0 -243 -229 -243q-34 0 -63 5.5t-65 17.5v115zM379 769l-76 75l-76 -75h-128l130 141h148l130 -141h-128z" />
    <glyph glyph-name="jcircumflex" unicode="&#x135;" horiz-adv-x="294" 
d="M74 511h146v-565q0 -83 -38 -123.5t-116 -40.5q-53 0 -101 16v99q30 -3 57 -3q28 0 40 11t12 37v569zM232 600l-85 98l-85 -98h-114l127 170h144l127 -170h-114z" />
    <glyph glyph-name="uni0136" unicode="&#x136;" horiz-adv-x="672" 
d="M80 0v693h150v-297l251 297h169l-282 -322l306 -371h-179l-265 329v-329h-150zM269 -286l36 224h49q73 0 73 -46q0 -10 -4.5 -24t-17.5 -46l-47 -108h-89z" />
    <glyph glyph-name="uni0137" unicode="&#x137;" horiz-adv-x="582" 
d="M70 0v740h145v-447l177 218h174l-211 -244l227 -267h-178l-189 233v-233h-145zM214 -286l36 224h46q73 0 73 -47q0 -20 -21 -69l-47 -108h-87z" />
    <glyph glyph-name="kgreenlandic" unicode="&#x138;" horiz-adv-x="582" 
d="M70 0v511h145v-229l177 229h174l-211 -254l227 -257h-178l-189 222v-222h-145z" />
    <glyph glyph-name="Lacute" unicode="&#x139;" horiz-adv-x="543" 
d="M80 0v693h150v-573h304v-120h-454zM94 769l101 129h154l-133 -129h-122z" />
    <glyph glyph-name="lacute" unicode="&#x13a;" horiz-adv-x="325" 
d="M295 10q-42 -17 -90 -17q-135 0 -135 151v596h146v-584q0 -28 9.5 -39.5t31.5 -11.5q14 0 38 3v-98zM82 789l101 129h154l-133 -129h-122z" />
    <glyph glyph-name="uni013B" unicode="&#x13b;" horiz-adv-x="543" 
d="M80 0v693h150v-573h304v-120h-454zM217 -286l36 224h49q73 0 73 -46q0 -10 -4.5 -24t-17.5 -46l-47 -108h-89z" />
    <glyph glyph-name="uni013C" unicode="&#x13c;" horiz-adv-x="325" 
d="M295 10q-42 -17 -90 -17q-135 0 -135 151v596h146v-584q0 -28 9.5 -39.5t31.5 -11.5q14 0 38 3v-98zM106 -286l36 224h46q73 0 73 -47q0 -20 -21 -69l-47 -108h-87z" />
    <glyph glyph-name="Lcaron" unicode="&#x13d;" horiz-adv-x="543" 
d="M80 0v693h150v-573h304v-120h-454zM325 517v203q28 12 64 12q43 0 69 -20l-41 -195h-92z" />
    <glyph glyph-name="lcaron" unicode="&#x13e;" horiz-adv-x="356" 
d="M295 10q-42 -17 -90 -17q-135 0 -135 151v596h146v-584q0 -28 9.5 -39.5t31.5 -11.5q14 0 38 3v-98zM283 537v203q28 12 64 12q43 0 69 -20l-41 -195h-92z" />
    <glyph glyph-name="Ldot" unicode="&#x13f;" horiz-adv-x="543" 
d="M80 0v693h150v-573h304v-120h-454zM418 312q-35 0 -57 20.5t-22 52.5t22 52.5t57 20.5t57 -20.5t22 -52.5t-22 -52.5t-57 -20.5z" />
    <glyph glyph-name="ldot" unicode="&#x140;" horiz-adv-x="446" 
d="M295 10q-42 -17 -90 -17q-135 0 -135 151v596h146v-584q0 -28 9.5 -39.5t31.5 -11.5q14 0 38 3v-98zM365 298q-35 0 -57 20.5t-22 52.5t22 52.5t57 20.5t57 -20.5t22 -52.5t-22 -52.5t-57 -20.5z" />
    <glyph glyph-name="Lslash" unicode="&#x141;" horiz-adv-x="574" 
d="M116 0v235l-89 -53v105l89 51v355h150v-268l161 94v-106l-161 -94v-199h304v-120h-454z" />
    <glyph glyph-name="lslash" unicode="&#x142;" horiz-adv-x="355" 
d="M315 10q-42 -17 -90 -17q-135 0 -135 151v136l-82 -49v91l82 48v370h146v-284l89 53v-91l-89 -53v-209q0 -28 9.5 -39.5t31.5 -11.5q14 0 38 3v-98z" />
    <glyph glyph-name="Nacute" unicode="&#x143;" horiz-adv-x="734" 
d="M212 481v-481h-132v693h160l282 -485v485h132v-693h-160zM320 769l101 129h154l-133 -129h-122z" />
    <glyph glyph-name="nacute" unicode="&#x144;" horiz-adv-x="612" 
d="M398 0v335q0 41 -18 60t-55 19q-55 0 -109 -34v-380h-146v511h120l14 -55q90 70 192 70q71 0 109.5 -38.5t38.5 -109.5v-378h-146zM255 600l96 169h156l-134 -169h-118z" />
    <glyph glyph-name="uni0145" unicode="&#x145;" horiz-adv-x="734" 
d="M212 481v-481h-132v693h160l282 -485v485h132v-693h-160zM263 -286l36 224h49q73 0 73 -46q0 -10 -4.5 -24t-17.5 -46l-47 -108h-89z" />
    <glyph glyph-name="uni0146" unicode="&#x146;" horiz-adv-x="612" 
d="M398 0v335q0 41 -18 60t-55 19q-55 0 -109 -34v-380h-146v511h120l14 -55q90 70 192 70q71 0 109.5 -38.5t38.5 -109.5v-378h-146zM218 -286l36 224h46q73 0 73 -47q0 -20 -21 -69l-47 -108h-87z" />
    <glyph glyph-name="Ncaron" unicode="&#x147;" horiz-adv-x="734" 
d="M212 481v-481h-132v693h160l282 -485v485h132v-693h-160zM308 769l-131 141h146l58 -83l58 83h146l-131 -141h-146z" />
    <glyph glyph-name="ncaron" unicode="&#x148;" horiz-adv-x="612" 
d="M398 0v335q0 41 -18 60t-55 19q-55 0 -109 -34v-380h-146v511h120l14 -55q90 70 192 70q71 0 109.5 -38.5t38.5 -109.5v-378h-146zM243 600l-128 170h132l67 -107l67 107h132l-128 -170h-142z" />
    <glyph glyph-name="napostrophe" unicode="&#x149;" horiz-adv-x="810" 
d="M596 0v335q0 41 -18 60t-55 19q-55 0 -109 -34v-380h-146v511h120l14 -55q90 70 192 70q71 0 109.5 -38.5t38.5 -109.5v-378h-146zM51 401l45 292h56q81 0 81 -53q0 -21 -18 -68l-68 -171h-96z" />
    <glyph glyph-name="Eng" unicode="&#x14a;" horiz-adv-x="734" 
d="M514 0l-302 488v-488h-132v693h160l282 -464v464h132v-668q0 -243 -229 -243q-32 0 -58.5 4.5t-59.5 15.5v113q53 -11 97 -11q53 0 81.5 23t28.5 66v7z" />
    <glyph glyph-name="eng" unicode="&#x14b;" horiz-adv-x="612" 
d="M398 335q0 41 -18 60t-55 19q-55 0 -109 -34v-380h-146v511h120l14 -55q90 70 192 70q71 0 109.5 -38.5t38.5 -109.5v-380q0 -112 -47 -164t-147 -52q-53 0 -101 16v97q27 -3 57 -3q39 0 58.5 9t26.5 30t7 59v345z" />
    <glyph glyph-name="Omacron" unicode="&#x14c;" horiz-adv-x="796" 
d="M214 347q0 -118 47 -180t137 -62t137 62t47 180t-47 179.5t-137 61.5t-137 -61.5t-47 -179.5zM60 347q0 110 39.5 192t116 126.5t182.5 44.5q103 0 179 -43t117.5 -124.5t41.5 -195.5q0 -110 -39.5 -192t-116 -127t-182.5 -45q-103 0 -179 43t-117.5 125t-41.5 196z
M229 791v90h338v-90h-338z" />
    <glyph glyph-name="omacron" unicode="&#x14d;" horiz-adv-x="594" 
d="M297 -15q-119 0 -186 71.5t-67 199.5q0 127 67 198.5t186 71.5t186 -71.5t67 -198.5q0 -128 -67 -199.5t-186 -71.5zM297 97q105 0 105 159q0 158 -105 158t-105 -158q0 -159 105 -159zM128 623v90h338v-90h-338z" />
    <glyph glyph-name="Obreve" unicode="&#x14e;" horiz-adv-x="796" 
d="M214 347q0 -118 47 -180t137 -62t137 62t47 180t-47 179.5t-137 61.5t-137 -61.5t-47 -179.5zM60 347q0 110 39.5 192t116 126.5t182.5 44.5q103 0 179 -43t117.5 -124.5t41.5 -195.5q0 -110 -39.5 -192t-116 -127t-182.5 -45q-103 0 -179 43t-117.5 125t-41.5 196z
M398 762q-73 0 -114.5 32t-41.5 89q0 17 3 27h82l1 -13q4 -47 70 -47q65 0 70 47l1 13h82q3 -10 3 -27q0 -57 -41.5 -89t-114.5 -32z" />
    <glyph glyph-name="obreve" unicode="&#x14f;" horiz-adv-x="594" 
d="M297 -15q-119 0 -186 71.5t-67 199.5q0 127 67 198.5t186 71.5t186 -71.5t67 -198.5q0 -128 -67 -199.5t-186 -71.5zM297 97q105 0 105 159q0 158 -105 158t-105 -158q0 -159 105 -159zM297 596q-71 0 -113.5 36.5t-42.5 97.5q0 19 3 32h82l3 -27q3 -27 19.5 -39.5
t48.5 -12.5t48.5 12.5t19.5 39.5l3 27h82q3 -13 3 -32q0 -61 -42.5 -97.5t-113.5 -36.5z" />
    <glyph glyph-name="Ohungarumlaut" unicode="&#x150;" horiz-adv-x="796" 
d="M214 347q0 -118 47 -180t137 -62t137 62t47 180t-47 179.5t-137 61.5t-137 -61.5t-47 -179.5zM60 347q0 110 39.5 192t116 126.5t182.5 44.5q103 0 179 -43t117.5 -124.5t41.5 -195.5q0 -110 -39.5 -192t-116 -127t-182.5 -45q-103 0 -179 43t-117.5 125t-41.5 196z
M335 898h154l-133 -129h-122zM533 898h154l-133 -129h-122z" />
    <glyph glyph-name="ohungarumlaut" unicode="&#x151;" horiz-adv-x="594" 
d="M297 -15q-119 0 -186 71.5t-67 199.5q0 127 67 198.5t186 71.5t186 -71.5t67 -198.5q0 -128 -67 -199.5t-186 -71.5zM297 97q105 0 105 159q0 158 -105 158t-105 -158q0 -159 105 -159zM139 600l97 170h156l-135 -170h-118zM349 600l97 170h156l-135 -170h-118z" />
    <glyph glyph-name="OE" unicode="&#x152;" horiz-adv-x="1072" 
d="M582 0v75q-72 -92 -210 -92q-95 0 -165.5 43t-108.5 125t-38 196q0 111 36.5 192.5t107 126t168.5 44.5q138 0 210 -92v75h448v-116h-308v-164h251v-116h-251v-181h308v-116h-448zM214 347q0 -118 46.5 -180t134.5 -62q89 0 138 63.5t49 176.5v4q0 112 -49.5 175.5
t-137.5 63.5t-134.5 -61.5t-46.5 -179.5z" />
    <glyph glyph-name="oe" unicode="&#x153;" horiz-adv-x="921" 
d="M687 -15q-150 0 -207 104q-54 -104 -191 -104q-114 0 -179.5 72.5t-65.5 198.5t65.5 198t179.5 72q134 0 191 -104q57 104 194 104q98 0 151.5 -54.5t53.5 -155.5q0 -20 -3 -48.5t-7 -47.5h-316q4 -65 42.5 -95t116.5 -30q65 0 156 25v-97q-34 -18 -83 -28t-98 -10z
M302 97q106 0 106 159q0 158 -106 158q-110 0 -110 -158q0 -159 110 -159zM668 425q-50 0 -80 -30.5t-35 -84.5h201v17q0 98 -86 98z" />
    <glyph glyph-name="Racute" unicode="&#x154;" horiz-adv-x="637" 
d="M80 0v693h267q108 0 171 -57t63 -155q0 -60 -33 -108t-93 -75l172 -298h-155l-150 269h-98v-269h-144zM224 373h104q105 0 105 106q0 104 -103 104h-106v-210zM235 769l101 129h154l-133 -129h-122z" />
    <glyph glyph-name="racute" unicode="&#x155;" horiz-adv-x="405" 
d="M70 0v511h120l18 -76q40 44 75.5 62.5t75.5 18.5q19 0 40 -3v-135q-28 6 -62 6q-65 0 -121 -23v-361h-146zM174 600l96 169h156l-134 -169h-118z" />
    <glyph glyph-name="uni0156" unicode="&#x156;" horiz-adv-x="637" 
d="M80 0v693h267q108 0 171 -57t63 -155q0 -60 -33 -108t-93 -75l172 -298h-155l-150 269h-98v-269h-144zM224 373h104q105 0 105 106q0 104 -103 104h-106v-210zM259 -286l36 224h49q73 0 73 -46q0 -10 -4.5 -24t-17.5 -46l-47 -108h-89z" />
    <glyph glyph-name="uni0157" unicode="&#x157;" horiz-adv-x="405" 
d="M70 0v511h120l18 -76q40 44 75.5 62.5t75.5 18.5q19 0 40 -3v-135q-28 6 -62 6q-65 0 -121 -23v-361h-146zM54 -286l36 224h46q73 0 73 -47q0 -20 -21 -69l-47 -108h-87z" />
    <glyph glyph-name="Rcaron" unicode="&#x158;" horiz-adv-x="637" 
d="M80 0v693h267q108 0 171 -57t63 -155q0 -60 -33 -108t-93 -75l172 -298h-155l-150 269h-98v-269h-144zM224 373h104q105 0 105 106q0 104 -103 104h-106v-210zM223 769l-131 141h146l58 -83l58 83h146l-131 -141h-146z" />
    <glyph glyph-name="rcaron" unicode="&#x159;" horiz-adv-x="405" 
d="M70 0v511h120l18 -76q40 44 75.5 62.5t75.5 18.5q19 0 40 -3v-135q-28 6 -62 6q-65 0 -121 -23v-361h-146zM162 600l-128 170h132l67 -107l67 107h132l-128 -170h-142z" />
    <glyph glyph-name="Sacute" unicode="&#x15a;" horiz-adv-x="585" 
d="M215 303q-89 33 -128 80.5t-39 120.5q0 94 69.5 150t186.5 56q98 0 192 -36v-114q-97 30 -180 30q-118 0 -118 -76q0 -28 20.5 -46t76.5 -38l74 -27q93 -34 132.5 -79.5t39.5 -118.5q0 -103 -74 -162.5t-203 -59.5q-56 0 -112 10.5t-96 28.5v114q50 -15 107 -24t103 -9
q59 0 91 21.5t32 61.5q0 31 -19.5 49t-78.5 40zM241 769l101 129h154l-133 -129h-122z" />
    <glyph glyph-name="sacute" unicode="&#x15b;" horiz-adv-x="445" 
d="M287 141q0 20 -11.5 31t-46.5 24l-78 31q-61 24 -88 59t-27 89q0 68 54.5 109.5t145.5 41.5q84 0 155 -33v-97q-76 23 -142 23q-41 0 -60 -10t-19 -32q0 -17 11.5 -27.5t48.5 -25.5l76 -31q62 -25 88.5 -58t26.5 -86q0 -74 -56.5 -119.5t-148.5 -45.5q-103 0 -182 41v97
q99 -31 181 -31q72 0 72 50zM171 600l96 169h156l-134 -169h-118z" />
    <glyph glyph-name="Scircumflex" unicode="&#x15c;" horiz-adv-x="585" 
d="M215 303q-89 33 -128 80.5t-39 120.5q0 94 69.5 150t186.5 56q98 0 192 -36v-114q-97 30 -180 30q-118 0 -118 -76q0 -28 20.5 -46t76.5 -38l74 -27q93 -34 132.5 -79.5t39.5 -118.5q0 -103 -74 -162.5t-203 -59.5q-56 0 -112 10.5t-96 28.5v114q50 -15 107 -24t103 -9
q59 0 91 21.5t32 61.5q0 31 -19.5 49t-78.5 40zM377 769l-76 75l-76 -75h-128l130 141h148l130 -141h-128z" />
    <glyph glyph-name="scircumflex" unicode="&#x15d;" horiz-adv-x="445" 
d="M287 141q0 20 -11.5 31t-46.5 24l-78 31q-61 24 -88 59t-27 89q0 68 54.5 109.5t145.5 41.5q84 0 155 -33v-97q-76 23 -142 23q-41 0 -60 -10t-19 -32q0 -17 11.5 -27.5t48.5 -25.5l76 -31q62 -25 88.5 -58t26.5 -86q0 -74 -56.5 -119.5t-148.5 -45.5q-103 0 -182 41v97
q99 -31 181 -31q72 0 72 50zM315 600l-85 98l-85 -98h-114l127 170h144l127 -170h-114z" />
    <glyph glyph-name="Scedilla" unicode="&#x15e;" horiz-adv-x="585" 
d="M215 303q-89 33 -128 80.5t-39 120.5q0 94 69.5 150t186.5 56q98 0 192 -36v-114q-97 30 -180 30q-118 0 -118 -76q0 -28 20.5 -46t76.5 -38l74 -27q93 -34 132.5 -79.5t39.5 -118.5q0 -103 -74 -162.5t-203 -59.5q-56 0 -112 10.5t-96 28.5v114q50 -15 107 -24t103 -9
q59 0 91 21.5t32 61.5q0 31 -19.5 49t-78.5 40zM253 -59q44 0 70.5 -21t26.5 -56q0 -45 -29.5 -81.5t-96.5 -71.5l-54 49q36 20 56 41.5t20 38.5q0 20 -31 20q-11 0 -32 -3v73q33 11 70 11z" />
    <glyph glyph-name="scedilla" unicode="&#x15f;" horiz-adv-x="445" 
d="M287 141q0 20 -11.5 31t-46.5 24l-78 31q-61 24 -88 59t-27 89q0 68 54.5 109.5t145.5 41.5q84 0 155 -33v-97q-76 23 -142 23q-41 0 -60 -10t-19 -32q0 -17 11.5 -27.5t48.5 -25.5l76 -31q62 -25 88.5 -58t26.5 -86q0 -74 -56.5 -119.5t-148.5 -45.5q-103 0 -182 41v97
q99 -31 181 -31q72 0 72 50zM214 -59q44 0 70.5 -21t26.5 -56q0 -45 -29.5 -81.5t-96.5 -71.5l-53 48q37 21 57 42t20 39q0 22 -33 22q-11 0 -32 -3v71q33 11 70 11z" />
    <glyph glyph-name="Scaron" unicode="&#x160;" horiz-adv-x="585" 
d="M215 303q-89 33 -128 80.5t-39 120.5q0 94 69.5 150t186.5 56q98 0 192 -36v-114q-97 30 -180 30q-118 0 -118 -76q0 -28 20.5 -46t76.5 -38l74 -27q93 -34 132.5 -79.5t39.5 -118.5q0 -103 -74 -162.5t-203 -59.5q-56 0 -112 10.5t-96 28.5v114q50 -15 107 -24t103 -9
q59 0 91 21.5t32 61.5q0 31 -19.5 49t-78.5 40zM229 769l-131 141h146l58 -83l58 83h146l-131 -141h-146z" />
    <glyph glyph-name="scaron" unicode="&#x161;" horiz-adv-x="445" 
d="M287 141q0 20 -11.5 31t-46.5 24l-78 31q-61 24 -88 59t-27 89q0 68 54.5 109.5t145.5 41.5q84 0 155 -33v-97q-76 23 -142 23q-41 0 -60 -10t-19 -32q0 -17 11.5 -27.5t48.5 -25.5l76 -31q62 -25 88.5 -58t26.5 -86q0 -74 -56.5 -119.5t-148.5 -45.5q-103 0 -182 41v97
q99 -31 181 -31q72 0 72 50zM159 600l-128 170h132l67 -107l67 107h132l-128 -170h-142z" />
    <glyph glyph-name="uni0162" unicode="&#x162;" horiz-adv-x="596" 
d="M223 0v573h-211v120h572v-120h-211v-573h-150zM287 -59q44 0 70.5 -21t26.5 -56q0 -45 -29.5 -81.5t-96.5 -71.5l-54 49q36 20 56 41.5t20 38.5q0 20 -31 20q-11 0 -32 -3v73q33 11 70 11z" />
    <glyph glyph-name="uni0163" unicode="&#x163;" horiz-adv-x="394" 
d="M374 13q-54 -21 -121 -21q-85 0 -125.5 40t-40.5 124v247h-77v90l81 16l22 140h120v-138h138v-108h-138v-240q0 -32 16 -45t54 -13q31 0 71 6v-98zM232 -59q44 0 70.5 -21t26.5 -56q0 -45 -29.5 -81.5t-96.5 -71.5l-53 48q37 21 57 42t20 39q0 22 -33 22q-11 0 -32 -3v71
q33 11 70 11z" />
    <glyph glyph-name="Tcaron" unicode="&#x164;" horiz-adv-x="596" 
d="M223 0v573h-211v120h572v-120h-211v-573h-150zM225 769l-131 141h146l58 -83l58 83h146l-131 -141h-146z" />
    <glyph glyph-name="tcaron" unicode="&#x165;" horiz-adv-x="394" 
d="M374 13q-54 -21 -121 -21q-85 0 -125.5 40t-40.5 124v247h-77v90l81 16l22 140h120v-138h138v-108h-138v-240q0 -32 16 -45t54 -13q31 0 71 6v-98zM295 568v189q28 12 64 12q43 0 69 -20l-41 -181h-92z" />
    <glyph glyph-name="Tbar" unicode="&#x166;" horiz-adv-x="596" 
d="M223 0v302h-129v94h129v177h-211v120h572v-120h-211v-177h129v-94h-129v-302h-150z" />
    <glyph glyph-name="tbar" unicode="&#x167;" horiz-adv-x="434" 
d="M394 13q-54 -21 -121 -21q-85 0 -125.5 40t-40.5 124v63h-77v88h77v96h-77v90l81 16l22 140h120v-138h138v-108h-138v-96h138v-88h-138v-56q0 -32 16 -45t54 -13q31 0 71 6v-98z" />
    <glyph glyph-name="Utilde" unicode="&#x168;" horiz-adv-x="724" 
d="M498 693h150v-439q0 -129 -74.5 -200t-211.5 -71t-211.5 70.5t-74.5 201.5v438h150v-445q0 -70 35 -106.5t101 -36.5t101 36.5t35 106.5v445zM432 843q22 0 23 29l2 34h81q3 -20 3 -39q0 -47 -29.5 -75t-78.5 -28q-56 0 -94 37q-19 18 -28 23.5t-19 5.5q-22 0 -23 -29
l-2 -34h-81q-3 20 -3 39q0 47 29.5 75t78.5 28q56 0 94 -37q19 -18 28 -23.5t19 -5.5z" />
    <glyph glyph-name="utilde" unicode="&#x169;" horiz-adv-x="600" 
d="M410 0l-14 54q-89 -69 -186 -69q-68 0 -106 40.5t-38 111.5v374h146v-333q0 -81 70 -81q52 0 102 32v382h146v-511h-120zM368 672q22 0 24 31l2 34h80q3 -17 3 -39q0 -47 -29.5 -75t-78.5 -28q-55 0 -94 38q-21 20 -29 25t-18 5q-22 0 -24 -31l-2 -34h-80q-3 24 -3 39
q0 47 29.5 75t78.5 28q55 0 94 -38q21 -20 29 -25t18 -5z" />
    <glyph glyph-name="Umacron" unicode="&#x16a;" horiz-adv-x="724" 
d="M498 693h150v-439q0 -129 -74.5 -200t-211.5 -71t-211.5 70.5t-74.5 201.5v438h150v-445q0 -70 35 -106.5t101 -36.5t101 36.5t35 106.5v445zM193 791v90h338v-90h-338z" />
    <glyph glyph-name="umacron" unicode="&#x16b;" horiz-adv-x="600" 
d="M410 0l-14 54q-89 -69 -186 -69q-68 0 -106 40.5t-38 111.5v374h146v-333q0 -81 70 -81q52 0 102 32v382h146v-511h-120zM129 623v90h338v-90h-338z" />
    <glyph glyph-name="Ubreve" unicode="&#x16c;" horiz-adv-x="724" 
d="M498 693h150v-439q0 -129 -74.5 -200t-211.5 -71t-211.5 70.5t-74.5 201.5v438h150v-445q0 -70 35 -106.5t101 -36.5t101 36.5t35 106.5v445zM362 762q-73 0 -114.5 32t-41.5 89q0 17 3 27h82l1 -13q4 -47 70 -47q65 0 70 47l1 13h82q3 -10 3 -27q0 -57 -41.5 -89
t-114.5 -32z" />
    <glyph glyph-name="ubreve" unicode="&#x16d;" horiz-adv-x="600" 
d="M410 0l-14 54q-89 -69 -186 -69q-68 0 -106 40.5t-38 111.5v374h146v-333q0 -81 70 -81q52 0 102 32v382h146v-511h-120zM298 596q-71 0 -113.5 36.5t-42.5 97.5q0 19 3 32h82l3 -27q3 -27 19.5 -39.5t48.5 -12.5t48.5 12.5t19.5 39.5l3 27h82q3 -13 3 -32
q0 -61 -42.5 -97.5t-113.5 -36.5z" />
    <glyph glyph-name="Uring" unicode="&#x16e;" horiz-adv-x="724" 
d="M498 693h150v-439q0 -129 -74.5 -200t-211.5 -71t-211.5 70.5t-74.5 201.5v438h150v-445q0 -70 35 -106.5t101 -36.5t101 36.5t35 106.5v445zM362 733q-54 0 -87.5 28.5t-33.5 76.5t33.5 76.5t87.5 28.5t87.5 -28.5t33.5 -76.5t-33.5 -76.5t-87.5 -28.5zM362 793
q20 0 31 12t11 33t-11 33t-31 12t-31 -12t-11 -33t11 -33t31 -12z" />
    <glyph glyph-name="uring" unicode="&#x16f;" horiz-adv-x="600" 
d="M410 0l-14 54q-89 -69 -186 -69q-68 0 -106 40.5t-38 111.5v374h146v-333q0 -81 70 -81q52 0 102 32v382h146v-511h-120zM298 585q-59 0 -95 31t-36 83t36 83t95 31t95 -31t36 -83t-36 -83t-95 -31zM298 650q21 0 33 13t12 36t-12 36t-33 13t-33 -13t-12 -36t12 -36
t33 -13z" />
    <glyph glyph-name="Uhungarumlaut" unicode="&#x170;" horiz-adv-x="724" 
d="M498 693h150v-439q0 -129 -74.5 -200t-211.5 -71t-211.5 70.5t-74.5 201.5v438h150v-445q0 -70 35 -106.5t101 -36.5t101 36.5t35 106.5v445zM299 898h154l-133 -129h-122zM497 898h154l-133 -129h-122z" />
    <glyph glyph-name="uhungarumlaut" unicode="&#x171;" horiz-adv-x="600" 
d="M410 0l-14 54q-89 -69 -186 -69q-68 0 -106 40.5t-38 111.5v374h146v-333q0 -81 70 -81q52 0 102 32v382h146v-511h-120zM140 600l97 170h156l-135 -170h-118zM350 600l97 170h156l-135 -170h-118z" />
    <glyph glyph-name="Uogonek" unicode="&#x172;" horiz-adv-x="724" 
d="M498 693h150v-439q0 -88 -35 -149.5t-102 -92.5q-48 -24 -74 -57t-26 -67q0 -18 12 -27.5t35 -9.5q14 0 45 6v-75q-36 -13 -78 -13q-60 0 -92 24t-32 70q0 60 69 120h-8q-137 0 -211.5 70.5t-74.5 201.5v438h150v-445q0 -70 35 -106.5t101 -36.5t101 36.5t35 106.5v445z
" />
    <glyph glyph-name="uogonek" unicode="&#x173;" horiz-adv-x="600" 
d="M396 54q-89 -69 -186 -69q-68 0 -106 40.5t-38 111.5v374h146v-333q0 -81 70 -81q52 0 102 32v382h146v-511q-42 -32 -62 -60.5t-20 -56.5q0 -34 49 -34q14 0 45 6v-73q-36 -13 -78 -13q-59 0 -91.5 24t-32.5 67q0 75 92 140h-22z" />
    <glyph glyph-name="Wcircumflex" unicode="&#x174;" horiz-adv-x="954" 
d="M585 0l-110 489l-106 -489h-163l-192 693h166l110 -530l110 513h158l112 -511l108 528h162l-191 -693h-164zM550 769l-76 75l-76 -75h-128l130 141h148l130 -141h-128z" />
    <glyph glyph-name="wcircumflex" unicode="&#x175;" horiz-adv-x="798" 
d="M487 0l-88 359l-89 -359h-141l-163 511h154l85 -369l92 369h131l94 -370l80 370h150l-164 -511h-141zM484 600l-85 98l-85 -98h-114l127 170h144l127 -170h-114z" />
    <glyph glyph-name="Ycircumflex" unicode="&#x176;" horiz-adv-x="630" 
d="M239 0v256l-229 437h165l142 -324l146 324h157l-233 -439v-254h-148zM394 769l-76 75l-76 -75h-128l130 141h148l130 -141h-128z" />
    <glyph glyph-name="ycircumflex" unicode="&#x177;" horiz-adv-x="536" 
d="M206 -8l-202 519h155l114 -382l108 382h151l-216 -580q-29 -79 -71 -114t-106 -35q-50 0 -97 16v99q32 -3 57 -3q42 0 65 19.5t39 67.5zM358 600l-85 98l-85 -98h-114l127 170h144l127 -170h-114z" />
    <glyph glyph-name="Ydieresis" unicode="&#x178;" horiz-adv-x="630" 
d="M239 0v256l-229 437h165l142 -324l146 324h157l-233 -439v-254h-148zM205 770q-37 0 -59 20t-22 54t22 54.5t59 20.5t59 -20.5t22 -54.5t-22 -54t-59 -20zM433 770q-37 0 -59 20t-22 54t22 54.5t59 20.5t59 -20.5t22 -54.5t-22 -54t-59 -20z" />
    <glyph glyph-name="Zacute" unicode="&#x179;" horiz-adv-x="598" 
d="M38 0v108l357 469h-339v116h501v-108l-355 -469h358v-116h-522zM245 769l101 129h154l-133 -129h-122z" />
    <glyph glyph-name="zacute" unicode="&#x17a;" horiz-adv-x="493" 
d="M32 0v104l263 299h-253v108h414v-104l-266 -299h271v-108h-429zM190 600l96 169h156l-134 -169h-118z" />
    <glyph glyph-name="Zdotaccent" unicode="&#x17b;" horiz-adv-x="598" 
d="M38 0v108l357 469h-339v116h501v-108l-355 -469h358v-116h-522zM306 770q-39 0 -62.5 21.5t-23.5 58.5t23.5 58.5t62.5 21.5t62.5 -21.5t23.5 -58.5t-23.5 -58.5t-62.5 -21.5z" />
    <glyph glyph-name="zdotaccent" unicode="&#x17c;" horiz-adv-x="493" 
d="M32 0v104l263 299h-253v108h414v-104l-266 -299h271v-108h-429zM249 590q-38 0 -61 21t-23 57t23 57t61 21t61 -21t23 -57t-23 -57t-61 -21z" />
    <glyph glyph-name="Zcaron" unicode="&#x17d;" horiz-adv-x="598" 
d="M38 0v108l357 469h-339v116h501v-108l-355 -469h358v-116h-522zM233 769l-131 141h146l58 -83l58 83h146l-131 -141h-146z" />
    <glyph glyph-name="zcaron" unicode="&#x17e;" horiz-adv-x="493" 
d="M32 0v104l263 299h-253v108h414v-104l-266 -299h271v-108h-429zM178 600l-128 170h132l67 -107l67 107h132l-128 -170h-142z" />
    <glyph glyph-name="longs" unicode="&#x17f;" horiz-adv-x="290" 
d="M70 0v554q0 101 46.5 150.5t141.5 49.5q27 0 56 -5.5t51 -14.5v-99q-40 6 -68 6q-46 0 -63.5 -15t-17.5 -53v-573h-146z" />
    <glyph glyph-name="florin" unicode="&#x192;" horiz-adv-x="388" 
d="M241 -19q0 -95 -46 -147t-130 -52q-58 0 -102 19v99q37 -6 63 -6q69 0 69 67v442h-81v90l81 15v46q0 101 46.5 150.5t141.5 49.5q27 0 56 -5.5t51 -14.5v-99q-40 6 -68 6q-46 0 -63.5 -15t-17.5 -53v-62h143v-108h-143v-422z" />
    <glyph glyph-name="uni01D3" unicode="&#x1d3;" horiz-adv-x="724" 
d="M498 693h150v-439q0 -129 -74.5 -200t-211.5 -71t-211.5 70.5t-74.5 201.5v438h150v-445q0 -70 35 -106.5t101 -36.5t101 36.5t35 106.5v445zM289 769l-131 141h146l58 -83l58 83h146l-131 -141h-146z" />
    <glyph glyph-name="uni01D4" unicode="&#x1d4;" horiz-adv-x="600" 
d="M410 0l-14 54q-89 -69 -186 -69q-68 0 -106 40.5t-38 111.5v374h146v-333q0 -81 70 -81q52 0 102 32v382h146v-511h-120zM227 600l-128 170h132l67 -107l67 107h132l-128 -170h-142z" />
    <glyph glyph-name="Aringacute" unicode="&#x1fa;" horiz-adv-x="665" 
d="M496 0l-49 158h-237l-47 -158h-157l233 638q-32 29 -32 75q0 48 33.5 76.5t87.5 28.5t87.5 -28.5t33.5 -76.5q0 -42 -27 -71l237 -642h-163zM242 266h174l-88 290zM276 850l99 129h132l-129 -129h-102zM328 668q20 0 31 12t11 33t-11 33t-31 12t-31 -12t-11 -33t11 -33
t31 -12z" />
    <glyph glyph-name="aringacute" unicode="&#x1fb;" horiz-adv-x="546" 
d="M363 0l-12 45q-31 -28 -71.5 -44.5t-78.5 -16.5q-74 0 -118.5 42t-44.5 112q0 48 24 84.5t69 57.5t106 21q48 0 106 -13v50q0 46 -19 63t-70 17q-82 0 -181 -31v97q37 19 93 30.5t114 11.5q103 0 150.5 -41.5t47.5 -130.5v-354h-115zM242 82q25 0 51.5 11t49.5 30v87
q-44 7 -79 7q-87 0 -87 -70q0 -31 17 -48t48 -17zM265 579q-54 0 -87.5 28.5t-33.5 76.5t33.5 76.5t87.5 28.5t87.5 -28.5t33.5 -76.5t-33.5 -76.5t-87.5 -28.5zM265 639q20 0 31 12t11 33t-11 33t-31 12t-31 -12t-11 -33t11 -33t31 -12zM213 821l99 129h132l-129 -129h-102
z" />
    <glyph glyph-name="AEacute" unicode="&#x1fc;" horiz-adv-x="971" 
d="M473 0v158h-220l-79 -158h-168l376 693h547v-116h-306v-164h249v-116h-249v-181h306v-116h-456zM307 266h166v311h-10zM594 769l101 129h154l-133 -129h-122z" />
    <glyph glyph-name="aeacute" unicode="&#x1fd;" horiz-adv-x="851" 
d="M267 526q55 0 98.5 -18.5t68.5 -52.5q68 71 166 71q101 0 155 -54t54 -156q0 -59 -10 -104h-315q6 -62 43.5 -89.5t114.5 -27.5q65 0 156 25v-97q-35 -18 -83.5 -28t-100.5 -10q-143 0 -205 83q-34 -36 -91 -60t-109 -24q-79 0 -125 41t-46 112q0 76 55 123t144 47
q63 0 123 -10v26q0 49 -26 72t-80 23q-80 0 -181 -31v97q32 17 89 29.5t105 12.5zM243 82q32 0 68 17t61 43q-10 32 -13 78q-43 3 -95 3q-87 0 -87 -75q0 -32 17 -49t49 -17zM595 425q-51 0 -80 -32t-32 -91h201v17q0 55 -21.5 80.5t-67.5 25.5zM369 600l96 169h156
l-134 -169h-118z" />
    <glyph glyph-name="Oslashacute" unicode="&#x1fe;" horiz-adv-x="796" 
d="M60 347q0 110 39.5 192t116 126.5t182.5 44.5q113 0 194 -53l62 77l72 -57l-66 -82q76 -95 76 -248q0 -110 -39.5 -192t-116 -127t-182.5 -45q-111 0 -189 49l-65 -81l-72 57l67 84q-79 96 -79 255zM214 347q0 -81 21 -135l274 341q-44 35 -111 35q-90 0 -137 -61.5
t-47 -179.5zM582 347q0 72 -19 127l-271 -338q41 -31 106 -31q90 0 137 62t47 180zM337 769l101 129h154l-133 -129h-122z" />
    <glyph glyph-name="oslashacute" unicode="&#x1ff;" horiz-adv-x="594" 
d="M55 10l46 58q-57 69 -57 188q0 127 67 198.5t186 71.5q84 0 141 -36l47 59l59 -48l-49 -61q55 -69 55 -184q0 -128 -67 -199.5t-186 -71.5q-78 0 -138 33l-45 -56zM192 256q0 -38 6 -67l162 203q-25 22 -63 22q-105 0 -105 -158zM297 97q105 0 105 159q0 31 -5 61
l-160 -201q23 -19 60 -19zM238 600l96 169h156l-134 -169h-118z" />
    <glyph glyph-name="uni0218" unicode="&#x218;" horiz-adv-x="585" 
d="M215 303q-89 33 -128 80.5t-39 120.5q0 94 69.5 150t186.5 56q98 0 192 -36v-114q-97 30 -180 30q-118 0 -118 -76q0 -28 20.5 -46t76.5 -38l74 -27q93 -34 132.5 -79.5t39.5 -118.5q0 -103 -74 -162.5t-203 -59.5q-56 0 -112 10.5t-96 28.5v114q50 -15 107 -24t103 -9
q59 0 91 21.5t32 61.5q0 31 -19.5 49t-78.5 40zM174 -286l36 224h49q73 0 73 -46q0 -10 -4.5 -24t-17.5 -46l-47 -108h-89z" />
    <glyph glyph-name="uni0219" unicode="&#x219;" horiz-adv-x="445" 
d="M287 141q0 20 -11.5 31t-46.5 24l-78 31q-61 24 -88 59t-27 89q0 68 54.5 109.5t145.5 41.5q84 0 155 -33v-97q-76 23 -142 23q-41 0 -60 -10t-19 -32q0 -17 11.5 -27.5t48.5 -25.5l76 -31q62 -25 88.5 -58t26.5 -86q0 -74 -56.5 -119.5t-148.5 -45.5q-103 0 -182 41v97
q99 -31 181 -31q72 0 72 50zM141 -286l36 224h46q73 0 73 -47q0 -20 -21 -69l-47 -108h-87z" />
    <glyph glyph-name="uni021A" unicode="&#x21a;" horiz-adv-x="596" 
d="M223 0v573h-211v120h572v-120h-211v-573h-150zM208 -286l36 224h49q73 0 73 -46q0 -10 -4.5 -24t-17.5 -46l-47 -108h-89z" />
    <glyph glyph-name="uni021B" unicode="&#x21b;" horiz-adv-x="394" 
d="M374 13q-54 -21 -121 -21q-85 0 -125.5 40t-40.5 124v247h-77v90l81 16l22 140h120v-138h138v-108h-138v-240q0 -32 16 -45t54 -13q31 0 71 6v-98zM159 -286l36 224h46q73 0 73 -47q0 -20 -21 -69l-47 -108h-87z" />
    <glyph glyph-name="uni0237" unicode="&#x237;" horiz-adv-x="294" 
d="M74 511h146v-565q0 -83 -38 -123.5t-116 -40.5q-53 0 -101 16v99q30 -3 57 -3q28 0 40 11t12 37v569z" />
    <glyph glyph-name="uni02B9" unicode="&#x2b9;" horiz-adv-x="296" 
d="M148 472h-98l67 219q35 19 79 19q39 0 72 -19z" />
    <glyph glyph-name="uni02BA" unicode="&#x2ba;" horiz-adv-x="507" 
d="M148 472h-98l67 219q35 19 79 19q39 0 72 -19zM359 472h-98l67 219q35 19 79 19q39 0 72 -19z" />
    <glyph glyph-name="uni02BB" unicode="&#x2bb;" horiz-adv-x="284" 
d="M259 659q-63 -83 -77 -184q-4 -28 -4 -90h-57q-42 0 -61 15t-19 47q0 62 44 138t107 123z" />
    <glyph glyph-name="uni02BC" unicode="&#x2bc;" horiz-adv-x="284" 
d="M25 419q63 83 77 184q4 28 4 90h57q42 0 61 -15t19 -47q0 -62 -44 -138t-107 -123z" />
    <glyph glyph-name="circumflex" unicode="&#x2c6;" horiz-adv-x="612" 
d="M391 600l-85 98l-85 -98h-114l127 170h144l127 -170h-114z" />
    <glyph glyph-name="caron" unicode="&#x2c7;" horiz-adv-x="612" 
d="M235 600l-128 170h132l67 -107l67 107h132l-128 -170h-142z" />
    <glyph glyph-name="uni02C9" unicode="&#x2c9;" horiz-adv-x="612" 
d="M137 623v90h338v-90h-338z" />
    <glyph glyph-name="uni02CA" unicode="&#x2ca;" horiz-adv-x="612" 
d="M180 600l96 169h156l-134 -169h-118z" />
    <glyph glyph-name="uni02CB" unicode="&#x2cb;" horiz-adv-x="612" 
d="M314 600l-134 169h156l96 -169h-118z" />
    <glyph glyph-name="breve" unicode="&#x2d8;" horiz-adv-x="612" 
d="M306 596q-71 0 -113.5 36.5t-42.5 97.5q0 19 3 32h82l3 -27q3 -27 19.5 -39.5t48.5 -12.5t48.5 12.5t19.5 39.5l3 27h82q3 -13 3 -32q0 -61 -42.5 -97.5t-113.5 -36.5z" />
    <glyph glyph-name="dotaccent" unicode="&#x2d9;" horiz-adv-x="612" 
d="M306 590q-38 0 -61 21t-23 57t23 57t61 21t61 -21t23 -57t-23 -57t-61 -21z" />
    <glyph glyph-name="ring" unicode="&#x2da;" horiz-adv-x="612" 
d="M306 585q-59 0 -95 31t-36 83t36 83t95 31t95 -31t36 -83t-36 -83t-95 -31zM306 650q21 0 33 13t12 36t-12 36t-33 13t-33 -13t-12 -36t12 -36t33 -13z" />
    <glyph glyph-name="ogonek" unicode="&#x2db;" horiz-adv-x="612" 
d="M395 0q-42 -32 -62 -60.5t-20 -56.5q0 -34 49 -34q13 0 45 6v-73q-36 -13 -78 -13q-59 0 -91.5 24t-32.5 67q0 84 118 157z" />
    <glyph glyph-name="tilde" unicode="&#x2dc;" horiz-adv-x="612" 
d="M376 672q22 0 24 31l2 34h80q3 -17 3 -39q0 -47 -29.5 -75t-78.5 -28q-55 0 -94 38q-21 20 -29 25t-18 5q-22 0 -24 -31l-2 -34h-80q-3 24 -3 39q0 47 29.5 75t78.5 28q55 0 94 -38q21 -20 29 -25t18 -5z" />
    <glyph glyph-name="hungarumlaut" unicode="&#x2dd;" horiz-adv-x="612" 
d="M74 600l97 170h156l-135 -170h-118zM284 600l97 170h156l-135 -170h-118z" />
    <glyph glyph-name="gravecomb" unicode="&#x300;" horiz-adv-x="0" 
d="M-59 600l-134 169h156l96 -169h-118z" />
    <glyph glyph-name="acutecomb" unicode="&#x301;" horiz-adv-x="0" 
d="M-59 600l96 169h156l-134 -169h-118z" />
    <glyph glyph-name="uni0302" unicode="&#x302;" horiz-adv-x="0" 
d="M85 600l-85 98l-85 -98h-114l127 170h144l127 -170h-114z" />
    <glyph glyph-name="tildecomb" unicode="&#x303;" horiz-adv-x="0" 
d="M70 672q22 0 24 31l2 34h80q3 -17 3 -39q0 -47 -29.5 -75t-78.5 -28q-55 0 -94 38q-21 20 -29 25t-18 5q-22 0 -24 -31l-2 -34h-80q-3 24 -3 39q0 47 29.5 75t78.5 28q55 0 94 -38q21 -20 29 -25t18 -5z" />
    <glyph glyph-name="uni0304" unicode="&#x304;" horiz-adv-x="0" 
d="M-169 623v90h338v-90h-338z" />
    <glyph glyph-name="uni0306" unicode="&#x306;" horiz-adv-x="0" 
d="M0 596q-71 0 -113.5 36.5t-42.5 97.5q0 19 3 32h82l3 -27q3 -27 19.5 -39.5t48.5 -12.5t48.5 12.5t19.5 39.5l3 27h82q3 -13 3 -32q0 -61 -42.5 -97.5t-113.5 -36.5z" />
    <glyph glyph-name="uni0307" unicode="&#x307;" horiz-adv-x="0" 
d="M0 590q-38 0 -61 21t-23 57t23 57t61 21t61 -21t23 -57t-23 -57t-61 -21z" />
    <glyph glyph-name="uni0308" unicode="&#x308;" horiz-adv-x="0" 
d="M-116 587q-36 0 -57.5 19.5t-21.5 53.5t21.5 53.5t57.5 19.5t57.5 -19.5t21.5 -53.5t-21.5 -53.5t-57.5 -19.5zM116 587q-36 0 -57.5 19.5t-21.5 53.5t21.5 53.5t57.5 19.5t57.5 -19.5t21.5 -53.5t-21.5 -53.5t-57.5 -19.5z" />
    <glyph glyph-name="uni030A" unicode="&#x30a;" horiz-adv-x="0" 
d="M0 585q-59 0 -95 31t-36 83t36 83t95 31t95 -31t36 -83t-36 -83t-95 -31zM0 650q21 0 33 13t12 36t-12 36t-33 13t-33 -13t-12 -36t12 -36t33 -13z" />
    <glyph glyph-name="uni030B" unicode="&#x30b;" horiz-adv-x="0" 
d="M-158 600l97 170h156l-135 -170h-118zM52 600l97 170h156l-135 -170h-118z" />
    <glyph glyph-name="uni030C" unicode="&#x30c;" horiz-adv-x="0" 
d="M-71 600l-128 170h132l67 -107l67 107h132l-128 -170h-142z" />
    <glyph glyph-name="uni0312" unicode="&#x312;" horiz-adv-x="0" 
d="M91 820l-37 -232h-46q-73 0 -73 47q0 20 21 69l48 116h87z" />
    <glyph glyph-name="uni0315" unicode="&#x315;" horiz-adv-x="0" 
d="M-46 537v203q28 12 64 12q43 0 69 -20l-41 -195h-92z" />
    <glyph glyph-name="uni0326" unicode="&#x326;" horiz-adv-x="0" 
d="M-89 -286l36 224h46q73 0 73 -47q0 -20 -21 -69l-47 -108h-87z" />
    <glyph glyph-name="uni0327" unicode="&#x327;" horiz-adv-x="0" 
d="M-16 -59q44 0 70.5 -21t26.5 -56q0 -45 -29.5 -81.5t-96.5 -71.5l-53 48q37 21 57 42t20 39q0 22 -33 22q-11 0 -32 -3v71q33 11 70 11z" />
    <glyph glyph-name="uni0328" unicode="&#x328;" horiz-adv-x="0" 
d="M0 0q-42 -32 -62 -60.5t-20 -56.5q0 -34 49 -34q13 0 45 6v-73q-36 -13 -78 -13q-59 0 -91.5 24t-32.5 67q0 84 118 157z" />
    <glyph glyph-name="uni0344" unicode="&#x344;" horiz-adv-x="0" 
d="M-119 587q-35 0 -55.5 19t-20.5 51t20.5 51t55.5 19t55.5 -19t20.5 -51t-20.5 -51t-55.5 -19zM119 587q-35 0 -55.5 19t-20.5 51t20.5 51t55.5 19t55.5 -19t20.5 -51t-20.5 -51t-55.5 -19zM13 920h142l-109 -169h-96z" />
    <glyph glyph-name="uni0374" unicode="&#x374;" horiz-adv-x="296" 
d="M148 472h-98l67 219q35 19 79 19q39 0 72 -19z" />
    <glyph glyph-name="uni0375" unicode="&#x375;" horiz-adv-x="296" 
d="M50 -220l67 220q35 19 79 19q39 0 72 -19l-120 -220h-98z" />
    <glyph glyph-name="uni037E" unicode="&#x37e;" horiz-adv-x="284" 
d="M24 -159l59 313h42q49 0 70 -12.5t21 -41.5q0 -22 -18 -66l-78 -193h-96zM142 342q-40 0 -65 25t-25 65t25 65t65 25t65 -25t25 -65t-25 -65t-65 -25z" />
    <glyph glyph-name="tonos" unicode="&#x384;" horiz-adv-x="612" 
d="M285 781h142l-105 -181h-108z" />
    <glyph glyph-name="dieresistonos" unicode="&#x385;" horiz-adv-x="612" 
d="M187 587q-35 0 -55.5 19t-20.5 51t20.5 51t55.5 19t55.5 -19t20.5 -51t-20.5 -51t-55.5 -19zM425 587q-35 0 -55.5 19t-20.5 51t20.5 51t55.5 19t55.5 -19t20.5 -51t-20.5 -51t-55.5 -19zM319 920h142l-109 -169h-96z" />
    <glyph glyph-name="Alphatonos" unicode="&#x386;" horiz-adv-x="698" 
d="M529 0l-49 158h-237l-47 -158h-157l244 693h165l244 -693h-163zM275 266h174l-88 290zM7 512l71 181h144l-105 -181h-110z" />
    <glyph glyph-name="anoteleia" unicode="&#x387;" horiz-adv-x="284" 
d="M142 342q-40 0 -65 25t-25 65t25 65t65 25t65 -25t25 -65t-25 -65t-65 -25z" />
    <glyph glyph-name="Epsilontonos" unicode="&#x388;" horiz-adv-x="754" 
d="M256 0v693h456v-116h-306v-164h249v-116h-249v-181h306v-116h-456zM7 512l71 181h144l-105 -181h-110z" />
    <glyph glyph-name="Etatonos" unicode="&#x389;" horiz-adv-x="912" 
d="M682 0v295h-276v-295h-150v693h150v-282h276v282h150v-693h-150zM7 512l71 181h144l-105 -181h-110z" />
    <glyph glyph-name="Iotatonos" unicode="&#x38a;" horiz-adv-x="500" 
d="M266 0v693h150v-693h-150zM17 512l71 181h144l-105 -181h-110z" />
    <glyph glyph-name="Omicrontonos" unicode="&#x38c;" horiz-adv-x="933" 
d="M351 347q0 -118 47 -180t137 -62t137 62t47 180t-47 179.5t-137 61.5t-137 -61.5t-47 -179.5zM197 347q0 110 39.5 192t116 126.5t182.5 44.5q103 0 179 -43t117.5 -124.5t41.5 -195.5q0 -110 -39.5 -192t-116 -127t-182.5 -45q-103 0 -179 43t-117.5 125t-41.5 196z
M7 512l71 181h144l-105 -181h-110z" />
    <glyph glyph-name="Upsilontonos" unicode="&#x38e;" horiz-adv-x="876" 
d="M485 0v256l-229 437h165l142 -324l146 324h157l-233 -439v-254h-148zM7 512l71 181h144l-105 -181h-110z" />
    <glyph glyph-name="Omegatonos" unicode="&#x38f;" horiz-adv-x="920" 
d="M530 588q-84 0 -130 -57.5t-46 -163.5q0 -86 31 -148.5t98 -108.5v-110h-311v111h162q-65 45 -99.5 112t-34.5 148q0 100 40 176.5t114.5 119.5t175.5 43q97 0 171.5 -40.5t116.5 -117.5t42 -181q0 -81 -34.5 -148t-99.5 -112h162v-111h-311v110q67 46 98 108.5t31 148.5
q0 106 -46 163.5t-130 57.5zM7 512l71 181h144l-105 -181h-110z" />
    <glyph glyph-name="iotadieresistonos" unicode="&#x390;" horiz-adv-x="328" 
d="M307 10q-43 -17 -95 -17q-142 0 -142 151v367h146v-357q0 -26 11 -37.5t37 -11.5q18 0 43 3v-98zM24 587q-35 0 -55.5 19t-20.5 51t20.5 51t55.5 19t55.5 -19t20.5 -51t-20.5 -51t-55.5 -19zM262 587q-35 0 -55.5 19t-20.5 51t20.5 51t55.5 19t55.5 -19t20.5 -51
t-20.5 -51t-55.5 -19zM156 920h142l-109 -169h-96z" />
    <glyph glyph-name="Alpha" unicode="&#x391;" horiz-adv-x="665" 
d="M496 0l-49 158h-237l-47 -158h-157l244 693h165l244 -693h-163zM242 266h174l-88 290z" />
    <glyph glyph-name="Beta" unicode="&#x392;" horiz-adv-x="632" 
d="M80 0v693h249q100 0 161.5 -51t61.5 -133q0 -51 -23.5 -87.5t-69.5 -56.5q64 -19 97.5 -62.5t33.5 -106.5q0 -90 -67 -143t-180 -53h-263zM222 302v-195h118q102 0 102 96q0 99 -109 99h-111zM222 586v-182h87q97 0 97 90q0 92 -89 92h-95z" />
    <glyph glyph-name="Gamma" unicode="&#x393;" horiz-adv-x="528" 
d="M80 0v693h436v-120h-286v-573h-150z" />
    <glyph glyph-name="uni0394" unicode="&#x394;" horiz-adv-x="655" 
d="M28 0v106l215 587h169l215 -587v-106h-599zM327 571l-147 -460h286z" />
    <glyph glyph-name="Epsilon" unicode="&#x395;" horiz-adv-x="578" 
d="M80 0v693h456v-116h-306v-164h249v-116h-249v-181h306v-116h-456z" />
    <glyph glyph-name="Zeta" unicode="&#x396;" horiz-adv-x="598" 
d="M38 0v108l357 469h-339v116h501v-108l-355 -469h358v-116h-522z" />
    <glyph glyph-name="Eta" unicode="&#x397;" horiz-adv-x="736" 
d="M506 0v295h-276v-295h-150v693h150v-282h276v282h150v-693h-150z" />
    <glyph glyph-name="Theta" unicode="&#x398;" horiz-adv-x="796" 
d="M398 105q90 0 137 62t47 180t-47 179.5t-137 61.5t-137 -61.5t-47 -179.5t47 -180t137 -62zM398 -17q-103 0 -179 43t-117.5 125t-41.5 196q0 110 39.5 192t116 126.5t182.5 44.5q103 0 179 -43t117.5 -124.5t41.5 -195.5q0 -110 -39.5 -192t-116 -127t-182.5 -45z
M298 291v116h200v-116h-200z" />
    <glyph glyph-name="Iota" unicode="&#x399;" horiz-adv-x="318" 
d="M84 0v693h150v-693h-150z" />
    <glyph glyph-name="Kappa" unicode="&#x39a;" horiz-adv-x="672" 
d="M80 0v693h150v-297l251 297h169l-282 -322l306 -371h-179l-265 329v-329h-150z" />
    <glyph glyph-name="Lambda" unicode="&#x39b;" horiz-adv-x="659" 
d="M489 0l-164 535l-162 -535h-157l244 693h159l244 -693h-164z" />
    <glyph glyph-name="Mu" unicode="&#x39c;" horiz-adv-x="864" 
d="M652 0v480l-153 -311h-134l-153 311v-480h-132v693h164l189 -394l190 394h161v-693h-132z" />
    <glyph glyph-name="Nu" unicode="&#x39d;" horiz-adv-x="734" 
d="M212 481v-481h-132v693h160l282 -485v485h132v-693h-160z" />
    <glyph glyph-name="Xi" unicode="&#x39e;" horiz-adv-x="583" 
d="M36 0v120h511v-120h-511zM99 287v120h385v-120h-385zM46 573v120h491v-120h-491z" />
    <glyph glyph-name="Omicron" unicode="&#x39f;" horiz-adv-x="796" 
d="M214 347q0 -118 47 -180t137 -62t137 62t47 180t-47 179.5t-137 61.5t-137 -61.5t-47 -179.5zM60 347q0 110 39.5 192t116 126.5t182.5 44.5q103 0 179 -43t117.5 -124.5t41.5 -195.5q0 -110 -39.5 -192t-116 -127t-182.5 -45q-103 0 -179 43t-117.5 125t-41.5 196z" />
    <glyph glyph-name="Pi" unicode="&#x3a0;" horiz-adv-x="720" 
d="M490 0v577h-260v-577h-150v693h560v-693h-150z" />
    <glyph glyph-name="Rho" unicode="&#x3a1;" horiz-adv-x="619" 
d="M226 253v-253h-146v693h265q108 0 171 -59t63 -161t-63 -161t-171 -59h-119zM226 365h102q50 0 76.5 27.5t26.5 80.5t-26.5 80.5t-76.5 27.5h-102v-216z" />
    <glyph glyph-name="Sigma" unicode="&#x3a3;" horiz-adv-x="561" 
d="M28 0v106l196 248l-181 229v110h488v-116h-322l171 -221l-189 -240h348v-116h-511z" />
    <glyph glyph-name="Tau" unicode="&#x3a4;" horiz-adv-x="596" 
d="M223 0v573h-211v120h572v-120h-211v-573h-150z" />
    <glyph glyph-name="Upsilon" unicode="&#x3a5;" horiz-adv-x="630" 
d="M239 0v256l-229 437h165l142 -324l146 324h157l-233 -439v-254h-148z" />
    <glyph glyph-name="Phi" unicode="&#x3a6;" horiz-adv-x="867" 
d="M370 55q-153 8 -235.5 83.5t-82.5 208.5t82.5 208.5t235.5 83.5v84h127v-84q153 -8 235.5 -83.5t82.5 -208.5t-82.5 -208.5t-235.5 -83.5v-85h-127v85zM673 347q0 88 -44.5 135.5t-131.5 52.5v-376q87 5 131.5 52.5t44.5 135.5zM370 535q-87 -5 -131.5 -52.5
t-44.5 -135.5t44.5 -135.5t131.5 -52.5v376z" />
    <glyph glyph-name="Chi" unicode="&#x3a7;" horiz-adv-x="630" 
d="M457 0l-145 256l-143 -256h-165l225 360l-208 333h169l127 -225l127 225h165l-211 -331l228 -362h-169z" />
    <glyph glyph-name="Psi" unicode="&#x3a8;" horiz-adv-x="790" 
d="M321 0v172q-135 14 -201 84t-66 200v237h148v-254q0 -67 29 -103.5t90 -48.5v406h148v-406q61 12 90 48.5t29 103.5v254h148v-237q0 -130 -66 -200t-201 -84v-172h-148z" />
    <glyph glyph-name="uni03A9" unicode="&#x3a9;" horiz-adv-x="780" 
d="M390 588q-84 0 -130 -57.5t-46 -163.5q0 -86 31 -148.5t98 -108.5v-110h-311v111h162q-65 45 -99.5 112t-34.5 148q0 100 40 176.5t114.5 119.5t175.5 43q97 0 171.5 -40.5t116.5 -117.5t42 -181q0 -81 -34.5 -148t-99.5 -112h162v-111h-311v110q67 46 98 108.5t31 148.5
q0 106 -46 163.5t-130 57.5z" />
    <glyph glyph-name="Iotadieresis" unicode="&#x3aa;" horiz-adv-x="318" 
d="M84 0v693h150v-693h-150zM45 770q-37 0 -59 20t-22 54t22 54.5t59 20.5t59 -20.5t22 -54.5t-22 -54t-59 -20zM273 770q-37 0 -59 20t-22 54t22 54.5t59 20.5t59 -20.5t22 -54.5t-22 -54t-59 -20z" />
    <glyph glyph-name="Upsilondieresis" unicode="&#x3ab;" horiz-adv-x="630" 
d="M239 0v256l-229 437h165l142 -324l146 324h157l-233 -439v-254h-148zM205 770q-37 0 -59 20t-22 54t22 54.5t59 20.5t59 -20.5t22 -54.5t-22 -54t-59 -20zM433 770q-37 0 -59 20t-22 54t22 54.5t59 20.5t59 -20.5t22 -54.5t-22 -54t-59 -20z" />
    <glyph glyph-name="alphatonos" unicode="&#x3ac;" horiz-adv-x="643" 
d="M627 9q-35 -16 -85 -16q-57 0 -86 26.5t-37 84.5q-49 -119 -166 -119q-94 0 -151.5 72t-57.5 190q0 79 27 142t76.5 100t113.5 37q109 0 162 -116q8 58 20 101h144l-9 -35q-24 -95 -34.5 -159.5t-10.5 -119.5q0 -30 3.5 -46.5t11.5 -26.5t19.5 -14.5t31.5 -4.5q15 0 28 2
v-98zM285 97q45 0 78 47.5t44 128.5q-15 62 -50 101.5t-75 39.5q-41 0 -65.5 -43t-24.5 -115q0 -73 25 -116t68 -43zM313 781h142l-105 -181h-108z" />
    <glyph glyph-name="epsilontonos" unicode="&#x3ad;" horiz-adv-x="478" 
d="M444 22q-32 -17 -81 -27t-99 -10q-103 0 -161.5 39.5t-58.5 107.5q0 49 31.5 84t88.5 49q-51 16 -78.5 47.5t-27.5 74.5q0 64 55.5 101.5t149.5 37.5q90 0 164 -33v-100q-31 11 -72 18t-75 7q-40 0 -63 -13.5t-23 -36.5q0 -25 19.5 -39t56.5 -14h100v-104h-101
q-43 0 -66 -15.5t-23 -45.5t25 -43.5t79 -13.5q75 0 160 29v-100zM276 781h142l-105 -181h-108z" />
    <glyph glyph-name="etatonos" unicode="&#x3ae;" horiz-adv-x="629" 
d="M415 335q0 41 -18 60t-55 19q-55 0 -109 -34v-380h-146v360q0 43 -42 43q-15 0 -33 -4v101q40 17 88 17q88 0 118 -63q47 37 95 54.5t100 17.5q71 0 109.5 -38.5t38.5 -109.5v-584h-146v541zM334 781h142l-105 -181h-108z" />
    <glyph glyph-name="iotatonos" unicode="&#x3af;" horiz-adv-x="328" 
d="M307 10q-43 -17 -95 -17q-142 0 -142 151v367h146v-357q0 -26 11 -37.5t37 -11.5q18 0 43 3v-98zM160 781h142l-105 -181h-108z" />
    <glyph glyph-name="upsilondieresistonos" unicode="&#x3b0;" horiz-adv-x="587" 
d="M294 -15q-102 0 -156.5 58t-54.5 167v150q0 43 -42 43q-5 0 -13.5 -1t-19.5 -3v101q40 17 88 17q133 0 133 -141v-178q0 -52 17 -76.5t52 -24.5q45 0 70 41t25 115q0 112 -51 258h146q53 -134 53 -251q0 -129 -65.5 -202t-181.5 -73zM138 587q-35 0 -55.5 19t-20.5 51
t20.5 51t55.5 19t55.5 -19t20.5 -51t-20.5 -51t-55.5 -19zM376 587q-35 0 -55.5 19t-20.5 51t20.5 51t55.5 19t55.5 -19t20.5 -51t-20.5 -51t-55.5 -19zM270 920h142l-109 -169h-96z" />
    <glyph glyph-name="alpha" unicode="&#x3b1;" horiz-adv-x="643" 
d="M627 9q-35 -16 -85 -16q-57 0 -86 26.5t-37 84.5q-49 -119 -166 -119q-94 0 -151.5 72t-57.5 190q0 79 27 142t76.5 100t113.5 37q109 0 162 -116q8 58 20 101h144l-9 -35q-24 -95 -34.5 -159.5t-10.5 -119.5q0 -30 3.5 -46.5t11.5 -26.5t19.5 -14.5t31.5 -4.5q15 0 28 2
v-98zM285 97q45 0 78 47.5t44 128.5q-15 62 -50 101.5t-75 39.5q-41 0 -65.5 -43t-24.5 -115q0 -73 25 -116t68 -43z" />
    <glyph glyph-name="beta" unicode="&#x3b2;" horiz-adv-x="606" 
d="M70 -206v709q0 116 64 183.5t172 67.5q95 0 152.5 -51.5t57.5 -137.5q0 -61 -29 -105t-83 -64q75 -16 115.5 -64.5t40.5 -122.5q0 -61 -26.5 -111t-75.5 -79.5t-112 -29.5q-39 0 -75.5 12.5t-63.5 35.5v-243h-137zM207 126q44 -27 97 -27t83.5 30.5t30.5 85.5t-36 86.5
t-99 31.5h-26v104h26q47 0 75 30.5t28 81.5q0 46 -23 73t-61 27q-42 0 -68.5 -32.5t-26.5 -83.5v-407z" />
    <glyph glyph-name="gamma" unicode="&#x3b3;" horiz-adv-x="537" 
d="M189 -206l-3 65q-6 127 -44 261.5t-140 390.5h155q76 -213 115 -390q38 88 61.5 179t38.5 211h151q-22 -132 -75.5 -270t-130.5 -262q8 -41 13 -123l4 -62h-145z" />
    <glyph glyph-name="delta" unicode="&#x3b4;" horiz-adv-x="585" 
d="M294 -15q-53 0 -98 16t-79 47t-53.5 76t-19.5 99q0 80 39.5 141t111.5 92q-48 33 -67.5 64t-19.5 77q0 45 24.5 80.5t71.5 56t110 20.5q45 0 87 -10.5t74 -30.5v-102q-32 14 -73 22.5t-74 8.5q-45 0 -64.5 -10.5t-19.5 -34.5q0 -19 17.5 -34t78.5 -49q108 -60 154.5 -124
t46.5 -152q0 -118 -66 -185.5t-181 -67.5zM393 237q0 59 -27 97.5t-92 73.5q-82 -54 -82 -171q0 -66 27 -103t75 -37q99 0 99 140z" />
    <glyph glyph-name="epsilon" unicode="&#x3b5;" horiz-adv-x="478" 
d="M444 22q-32 -17 -81 -27t-99 -10q-103 0 -161.5 39.5t-58.5 107.5q0 49 31.5 84t88.5 49q-51 16 -78.5 47.5t-27.5 74.5q0 64 55.5 101.5t149.5 37.5q90 0 164 -33v-100q-31 11 -72 18t-75 7q-40 0 -63 -13.5t-23 -36.5q0 -25 19.5 -39t56.5 -14h100v-104h-101
q-43 0 -66 -15.5t-23 -45.5t25 -43.5t79 -13.5q75 0 160 29v-100z" />
    <glyph glyph-name="zeta" unicode="&#x3b6;" horiz-adv-x="451" 
d="M304 -206q26 71 26 117q0 24 -7.5 37.5t-25.5 23.5t-53 21l-36 11q-83 25 -123.5 78.5t-40.5 137.5q0 105 62 206.5t190 205.5h-231v108h381v-108q-130 -116 -192 -210t-62 -176q0 -55 24.5 -83t93.5 -49l33 -10q116 -34 116 -140q0 -34 -12 -78.5t-34 -91.5h-109z" />
    <glyph glyph-name="eta" unicode="&#x3b7;" horiz-adv-x="629" 
d="M415 335q0 41 -18 60t-55 19q-55 0 -109 -34v-380h-146v360q0 43 -42 43q-15 0 -33 -4v101q40 17 88 17q88 0 118 -63q47 37 95 54.5t100 17.5q71 0 109.5 -38.5t38.5 -109.5v-584h-146v541z" />
    <glyph glyph-name="theta" unicode="&#x3b8;" horiz-adv-x="612" 
d="M306 -15q-124 0 -191.5 100.5t-67.5 284.5q0 183 68 283.5t191 100.5t191 -100.5t68 -283.5q0 -184 -67.5 -284.5t-191.5 -100.5zM306 642q-42 0 -66.5 -22.5t-37 -70.5t-14.5 -126h236q-2 81 -15 129t-38 69t-65 21zM188 317q4 -116 32 -168t86 -52t86 52t32 168h-236z
" />
    <glyph glyph-name="iota" unicode="&#x3b9;" horiz-adv-x="328" 
d="M307 10q-43 -17 -95 -17q-142 0 -142 151v367h146v-357q0 -26 11 -37.5t37 -11.5q18 0 43 3v-98z" />
    <glyph glyph-name="kappa" unicode="&#x3ba;" horiz-adv-x="582" 
d="M70 0v511h146v-192l173 192h174l-207 -211l226 -300h-166l-155 226l-45 -47v-179h-146z" />
    <glyph glyph-name="lambda" unicode="&#x3bb;" horiz-adv-x="533" 
d="M380 0l-107 359l-112 -359h-151l203 500l-7 25q-20 68 -40.5 92t-57.5 24q-26 0 -53 -6v101q39 18 93 18q44 0 74 -17t53 -54t47 -103l207 -580h-149z" />
    <glyph glyph-name="uni03BC" unicode="&#x3bc;" horiz-adv-x="626" 
d="M70 511h146v-333q0 -41 19 -61t59 -20q51 0 94 37v377h146v-363q0 -43 44 -43q15 0 35 4v-99q-42 -17 -90 -17q-43 0 -70.5 15.5t-43.5 48.5q-66 -72 -139 -72q-36 0 -64 14v-205h-136v717z" />
    <glyph glyph-name="nu" unicode="&#x3bd;" horiz-adv-x="528" 
d="M189 0l-185 511h155l105 -392q75 184 103 392h147q-16 -113 -68.5 -251t-123.5 -260h-133z" />
    <glyph glyph-name="xi" unicode="&#x3be;" horiz-adv-x="458" 
d="M308 -206q26 71 26 117q0 24 -8 38t-26.5 24t-53.5 20l-38 11q-85 26 -124.5 75.5t-39.5 128.5q0 68 36 116t100 65q-55 21 -84.5 63.5t-29.5 101.5q0 90 62.5 145t165.5 55q76 0 140 -25v-102q-63 17 -106 17q-58 0 -88 -26.5t-30 -77.5q0 -42 29.5 -70.5t72.5 -28.5h74
v-108h-79q-54 0 -84.5 -27.5t-30.5 -76.5q0 -46 24 -70t94 -45l35 -10q60 -17 89 -51t29 -89q0 -70 -46 -170h-109z" />
    <glyph glyph-name="omicron" unicode="&#x3bf;" horiz-adv-x="590" 
d="M295 -15q-118 0 -184.5 71.5t-66.5 198.5q0 128 66.5 199.5t184.5 71.5t184.5 -71.5t66.5 -199.5q0 -127 -66.5 -198.5t-184.5 -71.5zM295 97q103 0 103 158q0 159 -103 159t-103 -159q0 -158 103 -158z" />
    <glyph glyph-name="pi" unicode="&#x3c0;" horiz-adv-x="641" 
d="M621 10q-43 -17 -95 -17q-142 0 -142 151v255h-133v-399h-146v399h-91v112h607v-112h-91v-245q0 -26 11 -37.5t37 -11.5q18 0 43 3v-98z" />
    <glyph glyph-name="rho" unicode="&#x3c1;" horiz-adv-x="607" 
d="M62 -206v458q0 128 66.5 201t183.5 73t184 -71.5t67 -195.5q0 -78 -26.5 -139t-75.5 -96t-114 -35q-40 0 -77 13t-62 36v-244h-146zM208 126q44 -27 98 -27q56 0 82.5 37.5t26.5 117.5q0 160 -103 160q-104 0 -104 -162v-126z" />
    <glyph glyph-name="sigma1" unicode="&#x3c2;" horiz-adv-x="465" 
d="M289 -206q26 71 26 117q0 26 -8.5 40.5t-27 24.5t-50.5 19l-28 8q-56 16 -97 61q-60 71 -60 189q0 127 68 198t189 71q73 0 135 -32v-97q-59 17 -108 17q-70 0 -103 -35.5t-33 -112.5v-14q0 -81 41 -110q9 -7 21.5 -12t36.5 -12l35 -10q60 -17 89 -51t29 -89
q0 -70 -46 -170h-109z" />
    <glyph glyph-name="sigma" unicode="&#x3c3;" horiz-adv-x="611" 
d="M459 399q38 -27 58.5 -72.5t20.5 -101.5q0 -70 -29.5 -124.5t-86.5 -85t-133 -30.5q-113 0 -179 70.5t-66 190.5q0 126 74.5 195.5t209.5 69.5h259v-112h-128zM390 241q0 55 -14.5 98.5t-38.5 59.5h-9q-136 0 -136 -156q0 -71 25.5 -108.5t73.5 -37.5q99 0 99 144z" />
    <glyph glyph-name="tau" unicode="&#x3c4;" horiz-adv-x="486" 
d="M425 11q-56 -18 -114 -18q-83 0 -120.5 37.5t-37.5 116.5v252h-147v112h468v-112h-175v-242q0 -29 14 -40.5t49 -11.5t63 5v-99z" />
    <glyph glyph-name="upsilon" unicode="&#x3c5;" horiz-adv-x="587" 
d="M294 -15q-102 0 -156.5 58t-54.5 167v150q0 43 -42 43q-5 0 -13.5 -1t-19.5 -3v101q40 17 88 17q133 0 133 -141v-178q0 -52 17 -76.5t52 -24.5q45 0 70 41t25 115q0 112 -51 258h146q53 -134 53 -251q0 -129 -65.5 -202t-181.5 -73z" />
    <glyph glyph-name="phi" unicode="&#x3c6;" horiz-adv-x="782" 
d="M327 -206v191q-78 3 -143 37.5t-102.5 94t-37.5 139.5q0 75 34.5 134.5t100.5 96t148 39.5v113h128v-113q78 -3 143 -37.5t102.5 -94t37.5 -139.5q0 -75 -34.5 -134.5t-100.5 -96t-148 -39.5v-191h-128zM596 255q0 76 -37 119t-104 46v-329q67 3 104 45.5t37 118.5z
M327 420q-67 -3 -104 -45.5t-37 -118.5t37 -119t104 -46v329z" />
    <glyph glyph-name="chi" unicode="&#x3c7;" horiz-adv-x="524" 
d="M13 -206l184 372l-55 126q-13 33 -24.5 58.5t-27 40t-41.5 14.5q-21 0 -41 -6v104q38 14 75 14q41 0 67.5 -15t47.5 -48.5t51 -107.5l26 -64l106 229h135l-174 -346l67 -154q22 -51 36.5 -73.5t30 -30t41.5 -7.5q11 0 24 2v-105q-33 -9 -66 -9q-43 0 -71.5 16t-52.5 52.5
t-51 102.5l-36 87l-116 -252h-135z" />
    <glyph glyph-name="psi" unicode="&#x3c8;" horiz-adv-x="740" 
d="M306 -15q-124 8 -191 82.5t-67 203.5v240h139v-247q0 -83 28.5 -124t90.5 -47v546h128v-546q62 6 90.5 47t28.5 124v247h139v-240q0 -129 -67 -203.5t-191 -82.5v-191h-128v191z" />
    <glyph glyph-name="omega" unicode="&#x3c9;" horiz-adv-x="757" 
d="M230 -10q-55 0 -96.5 28t-65.5 80.5t-24 121.5q0 77 30 156.5t79 134.5h143q-54 -77 -79 -146t-25 -140q0 -57 15.5 -88t44.5 -31q26 0 41 25.5t15 71.5v145h141v-145q0 -46 15 -71.5t41 -25.5q29 0 44.5 31t15.5 88q0 71 -25 140t-79 146h143q49 -55 79 -134.5
t30 -156.5q0 -66 -22.5 -118.5t-64.5 -82t-99 -29.5q-60 0 -99 32.5t-50 87.5q-11 -55 -50 -87.5t-98 -32.5z" />
    <glyph glyph-name="iotadieresis" unicode="&#x3ca;" horiz-adv-x="328" 
d="M307 10q-43 -17 -95 -17q-142 0 -142 151v367h146v-357q0 -26 11 -37.5t37 -11.5q18 0 43 3v-98zM27 587q-36 0 -57.5 19.5t-21.5 53.5t21.5 53.5t57.5 19.5t57.5 -19.5t21.5 -53.5t-21.5 -53.5t-57.5 -19.5zM259 587q-36 0 -57.5 19.5t-21.5 53.5t21.5 53.5t57.5 19.5
t57.5 -19.5t21.5 -53.5t-21.5 -53.5t-57.5 -19.5z" />
    <glyph glyph-name="upsilondieresis" unicode="&#x3cb;" horiz-adv-x="587" 
d="M294 -15q-102 0 -156.5 58t-54.5 167v150q0 43 -42 43q-5 0 -13.5 -1t-19.5 -3v101q40 17 88 17q133 0 133 -141v-178q0 -52 17 -76.5t52 -24.5q45 0 70 41t25 115q0 112 -51 258h146q53 -134 53 -251q0 -129 -65.5 -202t-181.5 -73zM141 587q-36 0 -57.5 19.5
t-21.5 53.5t21.5 53.5t57.5 19.5t57.5 -19.5t21.5 -53.5t-21.5 -53.5t-57.5 -19.5zM373 587q-36 0 -57.5 19.5t-21.5 53.5t21.5 53.5t57.5 19.5t57.5 -19.5t21.5 -53.5t-21.5 -53.5t-57.5 -19.5z" />
    <glyph glyph-name="omicrontonos" unicode="&#x3cc;" horiz-adv-x="590" 
d="M295 -15q-118 0 -184.5 71.5t-66.5 198.5q0 128 66.5 199.5t184.5 71.5t184.5 -71.5t66.5 -199.5q0 -127 -66.5 -198.5t-184.5 -71.5zM295 97q103 0 103 158q0 159 -103 159t-103 -159q0 -158 103 -158zM312 781h142l-105 -181h-108z" />
    <glyph glyph-name="upsilontonos" unicode="&#x3cd;" horiz-adv-x="587" 
d="M294 -15q-102 0 -156.5 58t-54.5 167v150q0 43 -42 43q-5 0 -13.5 -1t-19.5 -3v101q40 17 88 17q133 0 133 -141v-178q0 -52 17 -76.5t52 -24.5q45 0 70 41t25 115q0 112 -51 258h146q53 -134 53 -251q0 -129 -65.5 -202t-181.5 -73zM274 781h142l-105 -181h-108z" />
    <glyph glyph-name="omegatonos" unicode="&#x3ce;" horiz-adv-x="757" 
d="M230 -10q-55 0 -96.5 28t-65.5 80.5t-24 121.5q0 77 30 156.5t79 134.5h143q-54 -77 -79 -146t-25 -140q0 -57 15.5 -88t44.5 -31q26 0 41 25.5t15 71.5v145h141v-145q0 -46 15 -71.5t41 -25.5q29 0 44.5 31t15.5 88q0 71 -25 140t-79 146h143q49 -55 79 -134.5
t30 -156.5q0 -66 -22.5 -118.5t-64.5 -82t-99 -29.5q-60 0 -99 32.5t-50 87.5q-11 -55 -50 -87.5t-98 -32.5zM395 781h142l-105 -181h-108z" />
    <glyph glyph-name="uni03D7" unicode="&#x3d7;" horiz-adv-x="584" 
d="M70 0v511h146v-192l173 192h174l-207 -211l75 -100q32 -43 69.5 -79.5t68.5 -54.5v-55q0 -111 -64.5 -170t-185.5 -59q-62 0 -119 16v100q41 -11 101 -11q72 0 104 27.5t33 89.5q-44 32 -88 95l-89 128l-45 -48v-179h-146z" />
    <glyph glyph-name="uni0400" unicode="&#x400;" horiz-adv-x="578" 
d="M80 0v693h456v-116h-306v-164h249v-116h-249v-181h306v-116h-456zM247 769l-133 129h154l101 -129h-122z" />
    <glyph glyph-name="uni0401" unicode="&#x401;" horiz-adv-x="578" 
d="M80 0v693h456v-116h-306v-164h249v-116h-249v-181h306v-116h-456zM194 770q-37 0 -59 20t-22 54t22 54.5t59 20.5t59 -20.5t22 -54.5t-22 -54t-59 -20zM422 770q-37 0 -59 20t-22 54t22 54.5t59 20.5t59 -20.5t22 -54.5t-22 -54t-59 -20z" />
    <glyph glyph-name="uni0402" unicode="&#x402;" horiz-adv-x="789" 
d="M488 98q61 0 88 25t27 84q0 105 -134 105q-54 0 -114 -5v-307h-150v573h-193v120h566v-120h-223v-163q82 10 143 10q124 0 189.5 -54t65.5 -158q0 -108 -59.5 -164t-174.5 -56q-53 0 -89 14v101q29 -5 58 -5z" />
    <glyph glyph-name="uni0403" unicode="&#x403;" horiz-adv-x="528" 
d="M80 0v693h436v-120h-286v-573h-150zM237 769l101 129h154l-133 -129h-122z" />
    <glyph glyph-name="uni0404" unicode="&#x404;" horiz-adv-x="625" 
d="M413 -13q-173 0 -263 90.5t-90 265.5q0 172 93.5 267.5t263.5 95.5q88 0 167 -28v-116q-91 20 -149 20q-108 0 -159.5 -40t-58.5 -131h267v-116h-268q3 -67 26.5 -107t70 -58.5t118.5 -18.5q58 0 163 23v-116q-81 -31 -181 -31z" />
    <glyph glyph-name="uni0405" unicode="&#x405;" horiz-adv-x="585" 
d="M215 303q-89 33 -128 80.5t-39 120.5q0 94 69.5 150t186.5 56q98 0 192 -36v-114q-97 30 -180 30q-118 0 -118 -76q0 -28 20.5 -46t76.5 -38l74 -27q93 -34 132.5 -79.5t39.5 -118.5q0 -103 -74 -162.5t-203 -59.5q-56 0 -112 10.5t-96 28.5v114q50 -15 107 -24t103 -9
q59 0 91 21.5t32 61.5q0 31 -19.5 49t-78.5 40z" />
    <glyph glyph-name="uni0406" unicode="&#x406;" horiz-adv-x="318" 
d="M84 0v693h150v-693h-150z" />
    <glyph glyph-name="uni0407" unicode="&#x407;" horiz-adv-x="318" 
d="M84 0v693h150v-693h-150zM45 770q-37 0 -59 20t-22 54t22 54.5t59 20.5t59 -20.5t22 -54.5t-22 -54t-59 -20zM273 770q-37 0 -59 20t-22 54t22 54.5t59 20.5t59 -20.5t22 -54.5t-22 -54t-59 -20z" />
    <glyph glyph-name="uni0408" unicode="&#x408;" horiz-adv-x="455" 
d="M22 121q56 -14 107 -14q54 0 77 26.5t23 89.5v470h150v-467q0 -243 -229 -243q-34 0 -63 5.5t-65 17.5v115z" />
    <glyph glyph-name="uni0409" unicode="&#x409;" horiz-adv-x="984" 
d="M468 577h-115q-20 -239 -52.5 -364t-84.5 -175.5t-137 -50.5q-35 0 -63 8v113q5 -1 24 -1q51 0 82 47t51.5 150.5t38.5 294.5l9 94h397v-263h83q115 0 181 -57.5t66 -157.5t-66 -157.5t-181 -57.5h-233v577zM618 322v-214h75q55 0 81 26t26 81q0 56 -25.5 81.5
t-81.5 25.5h-75z" />
    <glyph glyph-name="uni040A" unicode="&#x40a;" horiz-adv-x="992" 
d="M80 693h150v-282h246v282h150v-263h83q114 0 180.5 -57.5t66.5 -157.5t-66.5 -157.5t-180.5 -57.5h-233v295h-246v-295h-150v693zM626 322v-214h75q55 0 81 26t26 81t-26 81t-81 26h-75z" />
    <glyph glyph-name="uni040B" unicode="&#x40b;" horiz-adv-x="811" 
d="M603 210q0 57 -27.5 79.5t-94.5 22.5q-68 0 -126 -5v-307h-150v573h-193v120h566v-120h-223v-163q94 12 169 12q229 0 229 -183v-239h-150v210z" />
    <glyph glyph-name="uni040C" unicode="&#x40c;" horiz-adv-x="672" 
d="M80 0v693h150v-309l251 309h169l-273 -322l297 -371h-179l-265 341v-341h-150zM271 769l101 129h154l-133 -129h-122z" />
    <glyph glyph-name="uni040D" unicode="&#x40d;" horiz-adv-x="740" 
d="M80 693h146v-481l287 481h147v-693h-146v480l-287 -480h-147v693zM307 769l-133 129h154l101 -129h-122z" />
    <glyph glyph-name="uni040E" unicode="&#x40e;" horiz-adv-x="647" 
d="M123 108q30 -2 45 -2q45 0 72 15t45 48l-271 524h166l167 -374l136 374h162l-239 -542q-29 -65 -59.5 -100.5t-69.5 -50.5t-95 -15q-32 0 -59 7v116zM331 762q-78 0 -124.5 38t-46.5 102q0 13 5 30h89l2 -24q3 -31 22.5 -47t52.5 -16t52.5 16t22.5 47l2 24h89
q5 -17 5 -30q0 -64 -46.5 -102t-124.5 -38z" />
    <glyph glyph-name="uni040F" unicode="&#x40f;" horiz-adv-x="706" 
d="M285 -176v176h-205v693h150v-577h246v577h150v-693h-205v-176h-136z" />
    <glyph glyph-name="uni0410" unicode="&#x410;" horiz-adv-x="665" 
d="M496 0l-49 158h-237l-47 -158h-157l244 693h165l244 -693h-163zM242 266h174l-88 290z" />
    <glyph glyph-name="uni0411" unicode="&#x411;" horiz-adv-x="616" 
d="M80 693h451v-116h-301v-161h103q118 0 182.5 -54.5t64.5 -153.5t-64.5 -153.5t-182.5 -54.5h-253v693zM230 308v-200h100q52 0 77 24t25 76t-25 76t-77 24h-100z" />
    <glyph glyph-name="uni0412" unicode="&#x412;" horiz-adv-x="632" 
d="M80 0v693h249q100 0 161.5 -51t61.5 -133q0 -51 -23.5 -87.5t-69.5 -56.5q64 -19 97.5 -62.5t33.5 -106.5q0 -90 -67 -143t-180 -53h-263zM222 302v-195h118q102 0 102 96q0 99 -109 99h-111zM222 586v-182h87q97 0 97 90q0 92 -89 92h-95z" />
    <glyph glyph-name="uni0413" unicode="&#x413;" horiz-adv-x="528" 
d="M80 0v693h436v-120h-286v-573h-150z" />
    <glyph glyph-name="uni0414" unicode="&#x414;" horiz-adv-x="756" 
d="M20 114h55q116 122 147 485l8 94h410v-579h98v-290h-136v176h-446v-176h-136v290zM359 577q-17 -184 -49 -297t-84 -166h266v463h-133z" />
    <glyph glyph-name="uni0415" unicode="&#x415;" horiz-adv-x="578" 
d="M80 0v693h456v-116h-306v-164h249v-116h-249v-181h306v-116h-456z" />
    <glyph glyph-name="uni0416" unicode="&#x416;" horiz-adv-x="946" 
d="M6 0l258 371l-240 322h159l218 -312v312h144v-312l218 312h159l-240 -322l258 -371h-170l-225 344v-344h-144v344l-225 -344h-170z" />
    <glyph glyph-name="uni0417" unicode="&#x417;" horiz-adv-x="564" 
d="M223 -13q-99 0 -192 37v114q112 -31 190 -31q153 0 153 102q0 87 -136 87h-107v116h87q136 0 136 84q0 90 -140 90q-80 0 -166 -30v114q39 16 90.5 26t99.5 10q122 0 192 -51.5t70 -141.5q0 -52 -27 -90t-77 -58q61 -20 93.5 -64t32.5 -109q0 -94 -81 -149.5t-218 -55.5z
" />
    <glyph glyph-name="uni0418" unicode="&#x418;" horiz-adv-x="740" 
d="M80 693h146v-481l287 481h147v-693h-146v480l-287 -480h-147v693z" />
    <glyph glyph-name="uni0419" unicode="&#x419;" horiz-adv-x="740" 
d="M80 693h146v-481l287 481h147v-693h-146v480l-287 -480h-147v693zM368 762q-78 0 -124.5 38t-46.5 102q0 13 5 30h89l2 -24q3 -31 22.5 -47t52.5 -16t52.5 16t22.5 47l2 24h89q5 -17 5 -30q0 -64 -46.5 -102t-124.5 -38z" />
    <glyph glyph-name="uni041A" unicode="&#x41a;" horiz-adv-x="672" 
d="M80 0v693h150v-309l251 309h169l-273 -322l297 -371h-179l-265 341v-341h-150z" />
    <glyph glyph-name="uni041B" unicode="&#x41b;" horiz-adv-x="710" 
d="M480 0v577h-127q-20 -239 -52.5 -364t-84.5 -175.5t-137 -50.5q-35 0 -63 8v113q5 -1 24 -1q51 0 82 47t51.5 150.5t38.5 294.5l9 94h409v-693h-150z" />
    <glyph glyph-name="uni041C" unicode="&#x41c;" horiz-adv-x="864" 
d="M652 0v480l-153 -311h-134l-153 311v-480h-132v693h164l189 -394l190 394h161v-693h-132z" />
    <glyph glyph-name="uni041D" unicode="&#x41d;" horiz-adv-x="736" 
d="M506 0v295h-276v-295h-150v693h150v-282h276v282h150v-693h-150z" />
    <glyph glyph-name="uni041E" unicode="&#x41e;" horiz-adv-x="796" 
d="M214 347q0 -118 47 -180t137 -62t137 62t47 180t-47 179.5t-137 61.5t-137 -61.5t-47 -179.5zM60 347q0 110 39.5 192t116 126.5t182.5 44.5q103 0 179 -43t117.5 -124.5t41.5 -195.5q0 -110 -39.5 -192t-116 -127t-182.5 -45q-103 0 -179 43t-117.5 125t-41.5 196z" />
    <glyph glyph-name="uni041F" unicode="&#x41f;" horiz-adv-x="720" 
d="M490 0v577h-260v-577h-150v693h560v-693h-150z" />
    <glyph glyph-name="uni0420" unicode="&#x420;" horiz-adv-x="619" 
d="M226 253v-253h-146v693h265q108 0 171 -59t63 -161t-63 -161t-171 -59h-119zM226 365h102q50 0 76.5 27.5t26.5 80.5t-26.5 80.5t-76.5 27.5h-102v-216z" />
    <glyph glyph-name="uni0421" unicode="&#x421;" horiz-adv-x="615" 
d="M584 18q-81 -31 -181 -31q-169 0 -256 90.5t-87 265.5q0 173 91 268t256 95q88 0 167 -28v-118q-91 20 -149 20q-104 0 -155.5 -55t-51.5 -168v-23q0 -112 50 -166.5t153 -54.5q58 0 163 23v-118z" />
    <glyph glyph-name="uni0422" unicode="&#x422;" horiz-adv-x="596" 
d="M223 0v573h-211v120h572v-120h-211v-573h-150z" />
    <glyph glyph-name="uni0423" unicode="&#x423;" horiz-adv-x="647" 
d="M123 108q30 -2 45 -2q45 0 72 15t45 48l-271 524h166l167 -374l136 374h162l-239 -542q-29 -65 -59.5 -100.5t-69.5 -50.5t-95 -15q-32 0 -59 7v116z" />
    <glyph glyph-name="uni0424" unicode="&#x424;" horiz-adv-x="867" 
d="M370 55q-153 8 -235.5 83.5t-82.5 208.5t82.5 208.5t235.5 83.5v84h127v-84q153 -8 235.5 -83.5t82.5 -208.5t-82.5 -208.5t-235.5 -83.5v-85h-127v85zM673 347q0 88 -44.5 135.5t-131.5 52.5v-376q87 5 131.5 52.5t44.5 135.5zM370 535q-87 -5 -131.5 -52.5
t-44.5 -135.5t44.5 -135.5t131.5 -52.5v376z" />
    <glyph glyph-name="uni0425" unicode="&#x425;" horiz-adv-x="630" 
d="M457 0l-145 256l-143 -256h-165l225 360l-208 333h169l127 -225l127 225h165l-211 -331l228 -362h-169z" />
    <glyph glyph-name="uni0426" unicode="&#x426;" horiz-adv-x="732" 
d="M578 -176v176h-498v693h150v-577h236v577h150v-577h98v-292h-136z" />
    <glyph glyph-name="uni0427" unicode="&#x427;" horiz-adv-x="688" 
d="M458 261q-82 -18 -172 -18q-226 0 -226 183v267h150v-233q0 -57 26.5 -81t91.5 -24q68 0 130 13v325h150v-693h-150v261z" />
    <glyph glyph-name="uni0428" unicode="&#x428;" horiz-adv-x="1004" 
d="M80 0v693h146v-577h203v577h146v-577h203v577h146v-693h-844z" />
    <glyph glyph-name="uni0429" unicode="&#x429;" horiz-adv-x="1020" 
d="M866 -176v176h-786v693h146v-577h193v577h146v-577h193v577h146v-577h98v-292h-136z" />
    <glyph glyph-name="uni042A" unicode="&#x42a;" horiz-adv-x="739" 
d="M213 573h-201v120h351v-263h93q114 0 180.5 -57.5t66.5 -157.5t-66.5 -157.5t-180.5 -57.5h-243v573zM448 108q55 0 81 26t26 81t-26 81t-81 26h-85v-214h85z" />
    <glyph glyph-name="uni042B" unicode="&#x42b;" horiz-adv-x="866" 
d="M80 693h150v-263h83q114 0 180.5 -57.5t66.5 -157.5t-66.5 -157.5t-180.5 -57.5h-233v693zM636 693h150v-693h-150v693zM230 322v-214h75q55 0 81 26t26 81t-26 81t-81 26h-75z" />
    <glyph glyph-name="uni042C" unicode="&#x42c;" horiz-adv-x="626" 
d="M80 693h150v-263h113q114 0 180.5 -57.5t66.5 -157.5t-66.5 -157.5t-180.5 -57.5h-263v693zM230 322v-214h105q55 0 81 26t26 81t-26 81t-81 26h-105z" />
    <glyph glyph-name="uni042D" unicode="&#x42d;" horiz-adv-x="625" 
d="M222 -13q-105 0 -191 31v116q98 -23 173 -23q71 0 115 19.5t65.5 60t23.5 104.5h-267v116h266q-7 91 -56 131t-151 40q-71 0 -159 -20v116q84 28 177 28q165 0 256 -95t91 -268q0 -175 -87 -265.5t-256 -90.5z" />
    <glyph glyph-name="uni042E" unicode="&#x42e;" horiz-adv-x="1044" 
d="M80 693h148v-282h127q16 143 97 221t214 78q97 0 168.5 -42.5t110.5 -124.5t39 -196q0 -111 -37.5 -193t-109 -126.5t-171.5 -44.5q-136 0 -217.5 82t-94.5 230h-126v-295h-148v693zM666 103q81 0 123.5 62.5t42.5 181.5t-42.5 181t-123.5 62t-123.5 -62t-42.5 -181
t42.5 -181.5t123.5 -62.5z" />
    <glyph glyph-name="uni042F" unicode="&#x42f;" horiz-adv-x="636" 
d="M193 289q-62 24 -95.5 74t-33.5 118q0 63 29 111t85 74.5t133 26.5h245v-693h-144v269h-84l-147 -269h-175zM228 478q0 -54 26.5 -79.5t82.5 -25.5h75v210h-75q-56 0 -82.5 -25.5t-26.5 -79.5z" />
    <glyph glyph-name="uni0430" unicode="&#x430;" horiz-adv-x="550" 
d="M363 0l-12 45q-31 -28 -71.5 -44.5t-78.5 -16.5q-74 0 -118.5 42t-44.5 112q0 48 24 84.5t69 57.5t106 21q48 0 106 -13v50q0 46 -19 63t-70 17q-82 0 -181 -31v97q37 19 93 30.5t114 11.5q103 0 150.5 -41.5t47.5 -130.5v-354h-115zM242 82q25 0 51.5 11t49.5 30v87
q-44 7 -79 7q-87 0 -87 -70q0 -31 17 -48t48 -17z" />
    <glyph glyph-name="uni0431" unicode="&#x431;" horiz-adv-x="603" 
d="M307 -15q-134 0 -196.5 76t-62.5 238q0 141 31 227t97 132.5t174 63.5l164 25v-121l-167 -26q-63 -10 -87.5 -21t-36.5 -30.5t-17.5 -49t-7.5 -74.5q37 20 77.5 31.5t74.5 11.5q209 0 209 -231q0 -117 -68 -184.5t-184 -67.5zM324 366q-60 0 -128 -30v-43
q0 -109 25 -152.5t86 -43.5q51 0 77.5 35.5t26.5 104.5t-20 99t-67 30z" />
    <glyph glyph-name="uni0432" unicode="&#x432;" horiz-adv-x="557" 
d="M74 511h260q74 0 119 -38t45 -99q0 -37 -17.5 -63.5t-51.5 -40.5q94 -29 94 -125q0 -67 -51 -106t-138 -39h-260v511zM202 217v-125h119q39 0 55 14t16 49q0 34 -16 48t-55 14h-119zM202 419v-115h108q59 0 59 57q0 58 -59 58h-108z" />
    <glyph glyph-name="uni0433" unicode="&#x433;" horiz-adv-x="434" 
d="M74 0v511h344v-115h-198v-396h-146z" />
    <glyph glyph-name="uni0434" unicode="&#x434;" horiz-adv-x="608" 
d="M10 107h47q33 31 52.5 73.5t32 107.5t20.5 155l6 68h355v-404h77v-271h-129v164h-332v-164h-129v271zM287 401q-14 -124 -35 -193.5t-54 -100.5h187v294h-98z" />
    <glyph glyph-name="uni0435" unicode="&#x435;" horiz-adv-x="541" 
d="M179 220q4 -66 40 -95.5t113 -29.5q67 0 156 25v-97q-35 -18 -83.5 -28t-100.5 -10q-127 0 -193.5 69t-66.5 202q0 128 66 199t183 71q99 0 152.5 -54.5t53.5 -155.5q0 -22 -3 -50t-7 -46h-310zM288 425q-49 0 -77.5 -29.5t-32.5 -85.5h196v17q0 98 -86 98z" />
    <glyph glyph-name="uni0436" unicode="&#x436;" horiz-adv-x="812" 
d="M6 0l209 259l-193 252h155l164 -237v237h130v-237l164 237h155l-193 -252l209 -259h-159l-176 231v-231h-130v231l-176 -231h-159z" />
    <glyph glyph-name="uni0437" unicode="&#x437;" horiz-adv-x="472" 
d="M204 -15q-89 0 -170 29v100q95 -23 167 -23q104 0 104 66q0 29 -26 43t-79 14h-73v89h67q96 0 96 59q0 30 -23 44t-75 14q-66 0 -141 -20v100q75 26 168 26q95 0 148.5 -38t53.5 -107q0 -82 -73 -114q44 -14 67 -46.5t23 -81.5q0 -71 -64 -112.5t-170 -41.5z" />
    <glyph glyph-name="uni0438" unicode="&#x438;" horiz-adv-x="628" 
d="M412 0v323l-200 -323h-138v511h142v-323l200 323h138v-511h-142z" />
    <glyph glyph-name="uni0439" unicode="&#x439;" horiz-adv-x="628" 
d="M412 0v323l-200 -323h-138v511h142v-323l200 323h138v-511h-142zM311 596q-81 0 -126 39t-45 109q0 13 5 35h87l2 -27q6 -75 77 -75t77 75l2 27h87q5 -22 5 -35q0 -70 -45 -109t-126 -39z" />
    <glyph glyph-name="uni043A" unicode="&#x43a;" 
d="M74 0v511h145v-229l177 229h174l-211 -254l227 -257h-178l-189 222v-222h-145z" />
    <glyph glyph-name="uni043B" unicode="&#x43b;" horiz-adv-x="593" 
d="M377 0v401h-100q-16 -160 -41.5 -249t-66.5 -126t-108 -37q-29 0 -49 4v110h13q38 0 61.5 34t39 107.5t26.5 191.5l7 75h360v-511h-142z" />
    <glyph glyph-name="uni043C" unicode="&#x43c;" horiz-adv-x="712" 
d="M514 0v321l-108 -217h-98l-108 216v-320h-126v511h146l139 -280l138 280h141v-511h-124z" />
    <glyph glyph-name="uni043D" unicode="&#x43d;" horiz-adv-x="621" 
d="M401 0v205h-181v-205h-146v511h146v-196h181v196h146v-511h-146z" />
    <glyph glyph-name="uni043E" unicode="&#x43e;" horiz-adv-x="594" 
d="M297 -15q-119 0 -186 71.5t-67 199.5q0 127 67 198.5t186 71.5t186 -71.5t67 -198.5q0 -128 -67 -199.5t-186 -71.5zM297 97q105 0 105 159q0 158 -105 158t-105 -158q0 -159 105 -159z" />
    <glyph glyph-name="uni043F" unicode="&#x43f;" horiz-adv-x="611" 
d="M391 0v401h-171v-401h-146v511h463v-511h-146z" />
    <glyph glyph-name="uni0440" unicode="&#x440;" horiz-adv-x="619" 
d="M74 -206v717h120l12 -48q30 29 72.5 46t86.5 17q97 0 153.5 -71t56.5 -192q0 -79 -26 -141t-75 -97.5t-113 -35.5q-41 0 -78 13t-63 36v-244h-146zM318 416q-52 0 -98 -27v-263q44 -27 98 -27q56 0 82.5 38t26.5 120q0 83 -26 121t-83 38z" />
    <glyph glyph-name="uni0441" unicode="&#x441;" horiz-adv-x="473" 
d="M439 22q-27 -16 -65 -24.5t-79 -8.5q-122 0 -186.5 68t-64.5 196q0 127 68 198t189 71q73 0 135 -32v-97q-59 17 -108 17q-70 0 -103 -35.5t-33 -112.5v-14q0 -76 32.5 -111.5t100.5 -35.5q49 0 114 18v-97z" />
    <glyph glyph-name="uni0442" unicode="&#x442;" horiz-adv-x="474" 
d="M165 0v396h-153v115h450v-115h-153v-396h-144z" />
    <glyph glyph-name="uni0443" unicode="&#x443;" horiz-adv-x="536" 
d="M206 -8l-202 519h155l114 -382l108 382h151l-216 -580q-29 -79 -71 -114t-106 -35q-50 0 -97 16v99q32 -3 57 -3q42 0 65 19.5t39 67.5z" />
    <glyph glyph-name="uni0444" unicode="&#x444;" horiz-adv-x="773" 
d="M320 -13q-78 3 -141 36.5t-99 92t-36 136.5q0 55 18.5 101.5t55 82t89 57t113.5 24.5v223h133v-223q78 -3 141 -36.5t99 -92t36 -136.5q0 -55 -18.5 -101.5t-55 -82t-89 -57t-113.5 -24.5v-193h-133v193zM588 252q0 69 -39 112.5t-96 46.5v-318q57 3 96 46.5t39 112.5z
M320 411q-57 -3 -96 -46.5t-39 -112.5t39 -112.5t96 -46.5v318z" />
    <glyph glyph-name="uni0445" unicode="&#x445;" horiz-adv-x="506" 
d="M345 0l-97 162l-93 -162h-151l171 258l-169 253h157l93 -155l87 155h151l-167 -245l175 -266h-157z" />
    <glyph glyph-name="uni0446" unicode="&#x446;" horiz-adv-x="617" 
d="M480 -164v164h-406v511h146v-401h166v401h146v-401h77v-274h-129z" />
    <glyph glyph-name="uni0447" unicode="&#x447;" horiz-adv-x="576" 
d="M356 0v196q-62 -17 -141 -17q-167 0 -167 155v177h146v-149q0 -44 18.5 -61.5t63.5 -17.5q40 0 80 6v222h146v-511h-146z" />
    <glyph glyph-name="uni0448" unicode="&#x448;" horiz-adv-x="858" 
d="M784 511v-511h-710v511h142v-401h142v401h142v-401h142v401h142z" />
    <glyph glyph-name="uni0449" unicode="&#x449;" horiz-adv-x="861" 
d="M776 511v-401h77v-274h-129v164h-650v511h142v-401h138v401h142v-401h138v401h142z" />
    <glyph glyph-name="uni044A" unicode="&#x44a;" horiz-adv-x="623" 
d="M169 399h-160v112h296v-171h104q90 0 141 -45t51 -125t-51 -125t-141 -45h-240v399zM305 240v-140h87q35 0 53 18t18 52t-18 52t-53 18h-87z" />
    <glyph glyph-name="uni044B" unicode="&#x44b;" horiz-adv-x="789" 
d="M74 511h140v-171h90q90 0 141 -45t51 -124q0 -80 -51.5 -125.5t-140.5 -45.5h-230v511zM569 511h146v-511h-146v511zM214 242v-144h73q34 0 52.5 19t18.5 54q0 34 -18 52.5t-53 18.5h-73z" />
    <glyph glyph-name="uni044C" unicode="&#x44c;" horiz-adv-x="543" 
d="M74 511h140v-171h115q90 0 141 -45t51 -125t-51 -125t-141 -45h-255v511zM214 240v-140h96q35 0 53 18t18 52t-18 52t-53 18h-96z" />
    <glyph glyph-name="uni044D" unicode="&#x44d;" horiz-adv-x="493" 
d="M182 -11q-43 0 -81.5 8.5t-66.5 24.5v93q74 -18 131 -18q56 0 87 11.5t45.5 36t16.5 66.5h-226v93h226q-4 62 -36.5 86t-108.5 24q-63 0 -132 -16v93q30 14 71.5 22.5t79.5 8.5q127 0 194 -68t67 -196t-69.5 -198.5t-197.5 -70.5z" />
    <glyph glyph-name="uni044E" unicode="&#x44e;" horiz-adv-x="842" 
d="M560 -15q-97 0 -158 58t-73 162h-117v-205h-138v511h138v-196h118q14 100 74.5 155.5t155.5 55.5q112 0 175 -71.5t63 -198.5t-63 -199t-175 -72zM560 95q47 0 71.5 41t24.5 120t-24.5 119.5t-71.5 40.5t-71.5 -40.5t-24.5 -119.5t24.5 -120t71.5 -41z" />
    <glyph glyph-name="uni044F" unicode="&#x44f;" horiz-adv-x="559" 
d="M164 216q-47 16 -73.5 52t-26.5 86q0 73 47 115t129 42h245v-511h-138v195h-69l-103 -195h-155zM204 353q0 -35 20.5 -54t58.5 -19h64v145h-63q-80 0 -80 -72z" />
    <glyph glyph-name="uni0450" unicode="&#x450;" horiz-adv-x="541" 
d="M179 220q4 -66 40 -95.5t113 -29.5q67 0 156 25v-97q-35 -18 -83.5 -28t-100.5 -10q-127 0 -193.5 69t-66.5 202q0 128 66 199t183 71q99 0 152.5 -54.5t53.5 -155.5q0 -22 -3 -50t-7 -46h-310zM288 425q-49 0 -77.5 -29.5t-32.5 -85.5h196v17q0 98 -86 98zM225 600
l-134 169h156l96 -169h-118z" />
    <glyph glyph-name="uni0451" unicode="&#x451;" horiz-adv-x="541" 
d="M179 220q4 -66 40 -95.5t113 -29.5q67 0 156 25v-97q-35 -18 -83.5 -28t-100.5 -10q-127 0 -193.5 69t-66.5 202q0 128 66 199t183 71q99 0 152.5 -54.5t53.5 -155.5q0 -22 -3 -50t-7 -46h-310zM288 425q-49 0 -77.5 -29.5t-32.5 -85.5h196v17q0 98 -86 98zM168 587
q-36 0 -57.5 19.5t-21.5 53.5t21.5 53.5t57.5 19.5t57.5 -19.5t21.5 -53.5t-21.5 -53.5t-57.5 -19.5zM400 587q-36 0 -57.5 19.5t-21.5 53.5t21.5 53.5t57.5 19.5t57.5 -19.5t21.5 -53.5t-21.5 -53.5t-57.5 -19.5z" />
    <glyph glyph-name="uni0452" unicode="&#x452;" horiz-adv-x="596" 
d="M324 -218q-17 0 -42 5.5t-38 12.5v97q30 -5 59 -5q52 0 73.5 60t21.5 203q0 84 -8.5 125.5t-28.5 57.5t-56 16q-20 0 -43.5 -8.5t-45.5 -23.5v-322h-146v550h-86v92h86v98h146v-98h157v-92h-157v-143q35 28 74.5 43.5t75.5 15.5q70 0 108 -31t54 -98t16 -182
q0 -193 -53 -283t-167 -90z" />
    <glyph glyph-name="uni0453" unicode="&#x453;" horiz-adv-x="434" 
d="M74 0v511h344v-115h-198v-396h-146zM187 600l96 169h156l-134 -169h-118z" />
    <glyph glyph-name="uni0454" unicode="&#x454;" horiz-adv-x="493" 
d="M179 208q6 -59 42 -84t114 -25q55 0 124 18v-95q-27 -16 -65 -24.5t-79 -8.5q-131 0 -201 68t-70 196q0 126 73 197.5t204 71.5q74 0 135 -32v-95q-66 17 -118 17q-78 0 -115 -24.5t-44 -80.5h226v-99h-226z" />
    <glyph glyph-name="uni0455" unicode="&#x455;" horiz-adv-x="445" 
d="M287 141q0 20 -11.5 31t-46.5 24l-78 31q-61 24 -88 59t-27 89q0 68 54.5 109.5t145.5 41.5q84 0 155 -33v-97q-76 23 -142 23q-41 0 -60 -10t-19 -32q0 -17 11.5 -27.5t48.5 -25.5l76 -31q62 -25 88.5 -58t26.5 -86q0 -74 -56.5 -119.5t-148.5 -45.5q-103 0 -182 41v97
q99 -31 181 -31q72 0 72 50z" />
    <glyph glyph-name="uni0456" unicode="&#x456;" horiz-adv-x="302" 
d="M78 0v511h146v-511h-146zM151 590q-38 0 -61 21t-23 57t23 57t61 21t61 -21t23 -57t-23 -57t-61 -21z" />
    <glyph glyph-name="uni0457" unicode="&#x457;" horiz-adv-x="302" 
d="M78 0v511h146v-511h-146zM35 587q-36 0 -57.5 19.5t-21.5 53.5t21.5 53.5t57.5 19.5t57.5 -19.5t21.5 -53.5t-21.5 -53.5t-57.5 -19.5zM267 587q-36 0 -57.5 19.5t-21.5 53.5t21.5 53.5t57.5 19.5t57.5 -19.5t21.5 -53.5t-21.5 -53.5t-57.5 -19.5z" />
    <glyph glyph-name="uni0458" unicode="&#x458;" horiz-adv-x="302" 
d="M78 511h146v-565q0 -83 -38 -123.5t-116 -40.5q-53 0 -101 16v99q30 -3 57 -3q28 0 40 11t12 37v569zM151 590q-38 0 -61 21t-23 57t23 57t61 21t61 -21t23 -57t-23 -57t-61 -21z" />
    <glyph glyph-name="uni0459" unicode="&#x459;" horiz-adv-x="807" 
d="M367 401h-90q-16 -160 -41.5 -249t-66.5 -126t-108 -37q-29 0 -49 4v110h13q38 0 61.5 34t39 107.5t26.5 191.5l7 75h344v-171h90q90 0 141 -45t51 -124q0 -80 -51.5 -125.5t-140.5 -45.5h-226v401zM503 242v-144h73q34 0 52.5 19t18.5 54q0 34 -18 52.5t-53 18.5h-73z
" />
    <glyph glyph-name="uni045A" unicode="&#x45a;" horiz-adv-x="850" 
d="M74 511h146v-183h171v183h140v-183h106q88 0 139.5 -44.5t51.5 -119.5q0 -77 -51 -120.5t-140 -43.5h-246v226h-171v-226h-146v511zM531 228v-128h90q69 0 69 65q0 63 -69 63h-90z" />
    <glyph glyph-name="uni045B" unicode="&#x45b;" horiz-adv-x="612" 
d="M398 0v275q0 41 -18 60t-55 19q-55 0 -109 -34v-320h-146v550h-86v92h86v98h146v-98h157v-92h-157v-145q86 61 180 61q71 0 109.5 -38.5t38.5 -109.5v-318h-146z" />
    <glyph glyph-name="uni045C" unicode="&#x45c;" 
d="M74 0v511h145v-229l177 229h174l-211 -254l227 -257h-178l-189 222v-222h-145zM237 600l96 169h156l-134 -169h-118z" />
    <glyph glyph-name="uni045D" unicode="&#x45d;" horiz-adv-x="628" 
d="M412 0v323l-200 -323h-138v511h142v-323l200 323h138v-511h-142zM252 600l-134 169h156l96 -169h-118z" />
    <glyph glyph-name="uni045E" unicode="&#x45e;" horiz-adv-x="536" 
d="M206 -8l-202 519h155l114 -382l108 382h151l-216 -580q-29 -79 -71 -114t-106 -35q-50 0 -97 16v99q32 -3 57 -3q42 0 65 19.5t39 67.5zM273 596q-81 0 -126 39t-45 109q0 13 5 35h87l2 -27q6 -75 77 -75t77 75l2 27h87q5 -22 5 -35q0 -70 -45 -109t-126 -39z" />
    <glyph glyph-name="uni045F" unicode="&#x45f;" horiz-adv-x="613" 
d="M242 -164v164h-168v511h146v-401h173v401h146v-511h-168v-164h-129z" />
    <glyph glyph-name="uni0462" unicode="&#x462;" horiz-adv-x="680" 
d="M149 0v521h-147v110h147v99h150v-99h210v-110h-210v-113h98q113 0 180 -55t67 -149q0 -95 -66 -149.5t-181 -54.5h-248zM299 300v-192h95q52 0 77 23.5t25 72.5q0 96 -102 96h-95z" />
    <glyph glyph-name="uni0463" unicode="&#x463;" horiz-adv-x="599" 
d="M135 432h-131v92h131v105h140v-105h173v-92h-173v-104h111q88 0 139.5 -44.5t51.5 -119.5q0 -77 -51 -120.5t-140 -43.5h-251v432zM275 228v-128h95q69 0 69 65q0 63 -69 63h-95z" />
    <glyph glyph-name="uni0472" unicode="&#x472;" horiz-adv-x="796" 
d="M60 347q0 110 39.5 192t116 126.5t182.5 44.5q103 0 179 -43t117.5 -124.5t41.5 -195.5q0 -110 -39.5 -192t-116 -127t-182.5 -45q-103 0 -179 43t-117.5 125t-41.5 196zM398 103q87 0 134.5 48t56.5 146h-383q18 -194 192 -194zM398 590q-168 0 -190 -179h380
q-12 90 -59 134.5t-131 44.5z" />
    <glyph glyph-name="uni0473" unicode="&#x473;" horiz-adv-x="594" 
d="M297 -15q-119 0 -186 71.5t-67 199.5q0 127 67 198.5t186 71.5t186 -71.5t67 -198.5q0 -128 -67 -199.5t-186 -71.5zM297 95q52 0 80 28.5t35 88.5h-230q7 -61 34.5 -89t80.5 -28zM297 416q-52 0 -80 -28t-35 -88h229q-7 59 -34.5 87.5t-79.5 28.5z" />
    <glyph glyph-name="uni0474" unicode="&#x474;" horiz-adv-x="703" 
d="M252 0l-246 693h166l162 -546l115 389q27 92 69 129t119 37q34 0 63 -11v-109q-20 2 -33 2q-30 0 -43 -11t-26 -47l-187 -526h-159z" />
    <glyph glyph-name="uni0475" unicode="&#x475;" horiz-adv-x="568" 
d="M198 0l-194 511h155l109 -381l70 239q25 85 57.5 118.5t90.5 33.5q38 0 77 -13v-98q-21 3 -38 3q-19 0 -29 -10.5t-23 -44.5l-136 -358h-139z" />
    <glyph glyph-name="uni0490" unicode="&#x490;" horiz-adv-x="528" 
d="M80 0v693h304v142h132v-262h-286v-573h-150z" />
    <glyph glyph-name="uni0491" unicode="&#x491;" horiz-adv-x="444" 
d="M74 0v511h229v131h125v-246h-208v-396h-146z" />
    <glyph glyph-name="Wgrave" unicode="&#x1e80;" horiz-adv-x="954" 
d="M585 0l-110 489l-106 -489h-163l-192 693h166l110 -530l110 513h158l112 -511l108 528h162l-191 -693h-164zM414 769l-133 129h154l101 -129h-122z" />
    <glyph glyph-name="wgrave" unicode="&#x1e81;" horiz-adv-x="798" 
d="M487 0l-88 359l-89 -359h-141l-163 511h154l85 -369l92 369h131l94 -370l80 370h150l-164 -511h-141zM340 600l-134 169h156l96 -169h-118z" />
    <glyph glyph-name="Wacute" unicode="&#x1e82;" horiz-adv-x="954" 
d="M585 0l-110 489l-106 -489h-163l-192 693h166l110 -530l110 513h158l112 -511l108 528h162l-191 -693h-164zM414 769l101 129h154l-133 -129h-122z" />
    <glyph glyph-name="wacute" unicode="&#x1e83;" horiz-adv-x="798" 
d="M487 0l-88 359l-89 -359h-141l-163 511h154l85 -369l92 369h131l94 -370l80 370h150l-164 -511h-141zM340 600l96 169h156l-134 -169h-118z" />
    <glyph glyph-name="Wdieresis" unicode="&#x1e84;" horiz-adv-x="954" 
d="M585 0l-110 489l-106 -489h-163l-192 693h166l110 -530l110 513h158l112 -511l108 528h162l-191 -693h-164zM361 770q-37 0 -59 20t-22 54t22 54.5t59 20.5t59 -20.5t22 -54.5t-22 -54t-59 -20zM589 770q-37 0 -59 20t-22 54t22 54.5t59 20.5t59 -20.5t22 -54.5t-22 -54
t-59 -20z" />
    <glyph glyph-name="wdieresis" unicode="&#x1e85;" horiz-adv-x="798" 
d="M487 0l-88 359l-89 -359h-141l-163 511h154l85 -369l92 369h131l94 -370l80 370h150l-164 -511h-141zM283 587q-36 0 -57.5 19.5t-21.5 53.5t21.5 53.5t57.5 19.5t57.5 -19.5t21.5 -53.5t-21.5 -53.5t-57.5 -19.5zM515 587q-36 0 -57.5 19.5t-21.5 53.5t21.5 53.5
t57.5 19.5t57.5 -19.5t21.5 -53.5t-21.5 -53.5t-57.5 -19.5z" />
    <glyph glyph-name="uni1E9E" unicode="&#x1e9e;" horiz-adv-x="730" 
d="M496 399q89 -2 142.5 -53.5t53.5 -135.5q0 -67 -33 -117.5t-95.5 -79t-146.5 -28.5q-60 0 -121 23v108q77 -15 116 -15q65 0 98.5 27.5t33.5 80.5q0 84 -105 84q-61 0 -91 -5v93l137 194q-26 9 -51.5 13t-61.5 4q-72 0 -109 -39.5t-37 -115.5v-437h-150v421
q0 138 78.5 213.5t223.5 75.5q62 0 124.5 -16.5t102.5 -43.5v-106z" />
    <glyph glyph-name="Ygrave" unicode="&#x1ef2;" horiz-adv-x="630" 
d="M239 0v256l-229 437h165l142 -324l146 324h157l-233 -439v-254h-148zM258 769l-133 129h154l101 -129h-122z" />
    <glyph glyph-name="ygrave" unicode="&#x1ef3;" horiz-adv-x="536" 
d="M206 -8l-202 519h155l114 -382l108 382h151l-216 -580q-29 -79 -71 -114t-106 -35q-50 0 -97 16v99q32 -3 57 -3q42 0 65 19.5t39 67.5zM214 600l-134 169h156l96 -169h-118z" />
    <glyph glyph-name="uni2000" unicode="&#x2000;" horiz-adv-x="500" 
 />
    <glyph glyph-name="uni2001" unicode="&#x2001;" horiz-adv-x="1000" 
 />
    <glyph glyph-name="uni2002" unicode="&#x2002;" horiz-adv-x="500" 
 />
    <glyph glyph-name="uni2003" unicode="&#x2003;" horiz-adv-x="1000" 
 />
    <glyph glyph-name="uni2004" unicode="&#x2004;" horiz-adv-x="333" 
 />
    <glyph glyph-name="uni2005" unicode="&#x2005;" horiz-adv-x="250" 
 />
    <glyph glyph-name="uni2006" unicode="&#x2006;" horiz-adv-x="166" 
 />
    <glyph glyph-name="uni2007" unicode="&#x2007;" 
 />
    <glyph glyph-name="uni2008" unicode="&#x2008;" horiz-adv-x="284" 
 />
    <glyph glyph-name="uni2009" unicode="&#x2009;" horiz-adv-x="200" 
 />
    <glyph glyph-name="uni200A" unicode="&#x200a;" horiz-adv-x="50" 
 />
    <glyph glyph-name="uni200B" unicode="&#x200b;" horiz-adv-x="0" 
 />
    <glyph glyph-name="uni2010" unicode="&#x2010;" horiz-adv-x="402" 
d="M42 198v120h318v-120h-318z" />
    <glyph glyph-name="uni2012" unicode="&#x2012;" 
d="M43 291v114h500v-114h-500z" />
    <glyph glyph-name="endash" unicode="&#x2013;" horiz-adv-x="500" 
d="M0 201v114h500v-114h-500z" />
    <glyph glyph-name="emdash" unicode="&#x2014;" horiz-adv-x="1000" 
d="M0 201v114h1000v-114h-1000z" />
    <glyph glyph-name="uni2015" unicode="&#x2015;" horiz-adv-x="1000" 
d="M0 201v114h1000v-114h-1000z" />
    <glyph glyph-name="quoteleft" unicode="&#x2018;" horiz-adv-x="284" 
d="M233 693l-45 -292h-56q-81 0 -81 53q0 21 18 68l68 171h96z" />
    <glyph glyph-name="quoteright" unicode="&#x2019;" horiz-adv-x="284" 
d="M51 401l45 292h56q81 0 81 -53q0 -21 -18 -68l-68 -171h-96z" />
    <glyph glyph-name="quotesinglbase" unicode="&#x201a;" horiz-adv-x="284" 
d="M51 -158l45 292h56q81 0 81 -53q0 -21 -18 -68l-68 -171h-96z" />
    <glyph glyph-name="uni201B" unicode="&#x201b;" horiz-adv-x="284" 
d="M137 401l-68 171q-18 47 -18 68q0 53 81 53h56l45 -292h-96z" />
    <glyph glyph-name="quotedblleft" unicode="&#x201c;" horiz-adv-x="505" 
d="M233 693l-45 -292h-56q-81 0 -81 53q0 21 18 68l68 171h96zM454 693l-45 -292h-56q-81 0 -81 53q0 21 18 68l68 171h96z" />
    <glyph glyph-name="quotedblright" unicode="&#x201d;" horiz-adv-x="505" 
d="M51 401l45 292h56q81 0 81 -53q0 -21 -18 -68l-68 -171h-96zM272 401l45 292h56q81 0 81 -53q0 -21 -18 -68l-68 -171h-96z" />
    <glyph glyph-name="quotedblbase" unicode="&#x201e;" horiz-adv-x="505" 
d="M51 -158l45 292h56q81 0 81 -53q0 -21 -18 -68l-68 -171h-96zM272 -158l45 292h56q81 0 81 -53q0 -21 -18 -68l-68 -171h-96z" />
    <glyph glyph-name="uni201F" unicode="&#x201f;" horiz-adv-x="505" 
d="M137 401l-68 171q-18 47 -18 68q0 53 81 53h56l45 -292h-96zM358 401l-68 171q-18 47 -18 68q0 53 81 53h56l45 -292h-96z" />
    <glyph glyph-name="dagger" unicode="&#x2020;" horiz-adv-x="530" 
d="M328 421l12 -547h-150l12 547l-182 -7v110l182 -7l-12 223h150l-12 -223l182 7v-110z" />
    <glyph glyph-name="daggerdbl" unicode="&#x2021;" horiz-adv-x="530" 
d="M190 -126l12 223l-182 -7v110l182 -7l-10 114l10 114l-182 -7v110l182 -7l-12 223h150l-12 -223l182 7v-110l-182 7l10 -114l-10 -114l182 7v-110l-182 7l12 -223h-150z" />
    <glyph glyph-name="bullet" unicode="&#x2022;" horiz-adv-x="390" 
d="M195 103q-42 0 -77 19.5t-56.5 55t-21.5 80.5q0 42 19.5 77t55.5 56.5t80 21.5q42 0 77 -19.5t56.5 -55t21.5 -80.5q0 -42 -19.5 -77t-55.5 -56.5t-80 -21.5z" />
    <glyph glyph-name="ellipsis" unicode="&#x2026;" horiz-adv-x="1000" 
d="M167 -13q-40 0 -65 25t-25 65t25 65t65 25t65 -25t25 -65t-25 -65t-65 -25zM500 -13q-40 0 -65 25t-25 65t25 65t65 25t65 -25t25 -65t-25 -65t-65 -25zM833 -13q-40 0 -65 25t-25 65t25 65t65 25t65 -25t25 -65t-25 -65t-65 -25z" />
    <glyph glyph-name="perthousand" unicode="&#x2030;" horiz-adv-x="1339" 
d="M250 0l332 693h108l-332 -693h-108zM735 -8q-82 0 -127.5 54t-45.5 151q0 99 45.5 153t127.5 54t127.5 -54t45.5 -151q0 -99 -45.5 -153t-127.5 -54zM735 76q65 0 65 121q0 63 -16 93t-49 30q-65 0 -65 -121q0 -63 16 -93t49 -30zM1134 -8q-82 0 -127.5 54t-45.5 151
q0 99 45.5 153t127.5 54t127.5 -54t45.5 -151q0 -99 -45.5 -153t-127.5 -54zM1134 76q65 0 65 121q0 63 -16 93t-49 30q-65 0 -65 -121q0 -63 16 -93t49 -30zM205 289q-82 0 -127.5 54t-45.5 151q0 99 45.5 153t127.5 54t127.5 -54t45.5 -151q0 -99 -45.5 -153t-127.5 -54z
M205 373q65 0 65 121q0 63 -16 93t-49 30q-65 0 -65 -121q0 -63 16 -93t49 -30z" />
    <glyph glyph-name="minute" unicode="&#x2032;" horiz-adv-x="296" 
d="M148 472h-98l67 219q35 19 79 19q39 0 72 -19z" />
    <glyph glyph-name="second" unicode="&#x2033;" horiz-adv-x="507" 
d="M148 472h-98l67 219q35 19 79 19q39 0 72 -19zM359 472h-98l67 219q35 19 79 19q39 0 72 -19z" />
    <glyph glyph-name="guilsinglleft" unicode="&#x2039;" horiz-adv-x="366" 
d="M178 51l-136 208l136 208h140l-122 -208l122 -208h-140z" />
    <glyph glyph-name="guilsinglright" unicode="&#x203a;" horiz-adv-x="366" 
d="M188 467l136 -208l-136 -208h-140l122 208l-122 208h140z" />
    <glyph glyph-name="uni203D" unicode="&#x203d;" horiz-adv-x="454" 
d="M130 231l-13 285q29 17 65 17q38 0 67 -17l-3 -101q59 44 59 111q0 36 -27.5 57t-75.5 21q-74 0 -171 -46v105q89 47 189 47q97 0 152 -46.5t55 -128.5q0 -68 -42 -118.5t-138 -96.5l-2 -89h-115zM192 -13q-40 0 -65 25t-25 65t25 65t65 25t65 -25t25 -65t-25 -65
t-65 -25z" />
    <glyph glyph-name="fraction" unicode="&#x2044;" horiz-adv-x="0" 
d="M-220 0l332 693h108l-332 -693h-108z" />
    <glyph glyph-name="uni2052" unicode="&#x2052;" 
d="M111 580q-40 0 -65 25t-25 65q0 41 25 65.5t65 24.5t65 -25t25 -65t-24.5 -65t-65.5 -25zM49 -144l341 898h147l-341 -898h-147zM475 -150q-40 0 -65 25t-25 65t25 65t65 25t65 -25t25 -65q0 -41 -24.5 -65.5t-65.5 -24.5z" />
    <glyph glyph-name="uni2070" unicode="&#x2070;" horiz-adv-x="410" 
d="M205 382q-82 0 -127.5 54t-45.5 151q0 99 45.5 153t127.5 54t127.5 -54t45.5 -151q0 -99 -45.5 -153t-127.5 -54zM205 466q65 0 65 121q0 63 -16 93t-49 30q-65 0 -65 -121q0 -63 16 -93t49 -30z" />
    <glyph glyph-name="uni2074" unicode="&#x2074;" horiz-adv-x="410" 
d="M230 390v77h-194v74l184 251h102v-250h54v-75h-54v-77h-92zM129 542h101v138z" />
    <glyph glyph-name="uni2075" unicode="&#x2075;" horiz-adv-x="410" 
d="M190 382q-63 0 -119 23v78q68 -17 116 -17q32 0 50.5 12.5t18.5 34.5q0 23 -17.5 34t-53.5 11q-49 0 -100 -5v55l11 178h241v-82h-156l-5 -79q11 2 23 2.5t23 0.5q64 0 99 -30.5t35 -85.5q0 -61 -44.5 -95.5t-121.5 -34.5z" />
    <glyph glyph-name="uni2076" unicode="&#x2076;" horiz-adv-x="410" 
d="M244 714q-49 0 -74 -24t-27 -77q22 11 48.5 17.5t51.5 6.5q57 0 93 -32.5t36 -85.5q0 -61 -45 -99t-117 -38q-83 0 -125.5 49t-42.5 145q0 103 50.5 160.5t141.5 57.5q26 0 57.5 -6t51.5 -15v-73q-44 14 -99 14zM213 563q-34 0 -68 -14q1 -46 17 -66.5t52 -20.5
q27 0 41.5 13t14.5 38q0 23 -15.5 36.5t-41.5 13.5z" />
    <glyph glyph-name="uni2077" unicode="&#x2077;" horiz-adv-x="410" 
d="M90 390l172 312h-213v84h323v-78l-166 -318h-116z" />
    <glyph glyph-name="uni2078" unicode="&#x2078;" horiz-adv-x="410" 
d="M347 690q0 -30 -17 -54.5t-47 -38.5q43 -19 61.5 -41.5t18.5 -55.5q0 -55 -43 -86.5t-117 -31.5q-71 0 -113.5 29t-42.5 77q0 34 20 62t55 43q-31 16 -45.5 36.5t-14.5 49.5q0 52 39.5 83.5t104.5 31.5q62 0 101.5 -29t39.5 -75zM173 566q-30 -27 -30 -58q0 -26 16 -40
t45 -14t46 13t17 34q0 29 -40 44zM154 682q0 -33 44 -50l29 -11q28 24 28 55q0 22 -13 34t-37 12q-23 0 -37 -11t-14 -29z" />
    <glyph glyph-name="uni2079" unicode="&#x2079;" horiz-adv-x="410" 
d="M60 480q50 -18 109 -18q50 0 72 22.5t22 71.5q-19 -10 -45 -16.5t-50 -6.5q-59 0 -93.5 32t-34.5 86q0 63 44.5 103t114.5 40q81 0 124 -51t43 -148q0 -100 -49.5 -156.5t-138.5 -56.5q-32 0 -65 7t-53 18v73zM194 607q40 0 69 13v4q0 90 -66 90q-27 0 -41.5 -14.5
t-14.5 -40.5q0 -25 14 -38.5t39 -13.5z" />
    <glyph glyph-name="uni207A" unicode="&#x207a;" horiz-adv-x="410" 
d="M158 439v104h-100v83h100v104h94v-104h100v-83h-100v-104h-94z" />
    <glyph glyph-name="uni207B" unicode="&#x207b;" horiz-adv-x="410" 
d="M58 543v83h294v-83h-294z" />
    <glyph glyph-name="uni207C" unicode="&#x207c;" horiz-adv-x="410" 
d="M58 466v83h294v-83h-294zM58 620v83h294v-83h-294z" />
    <glyph glyph-name="uni207D" unicode="&#x207d;" horiz-adv-x="244" 
d="M136 333q-90 121 -90 255t90 255h94q-76 -116 -76 -255t76 -255h-94z" />
    <glyph glyph-name="uni207E" unicode="&#x207e;" horiz-adv-x="244" 
d="M14 333q76 116 76 255t-76 255h94q90 -121 90 -255t-90 -255h-94z" />
    <glyph glyph-name="uni207F" unicode="&#x207f;" horiz-adv-x="448" 
d="M300 390v261q0 61 -57 61q-38 0 -93 -31v-291h-106v396h90l9 -45q72 57 148 57q55 0 85 -30.5t30 -85.5v-292h-106z" />
    <glyph glyph-name="uni2080" unicode="&#x2080;" horiz-adv-x="410" 
d="M205 -112q-82 0 -127.5 54t-45.5 151q0 99 45.5 153t127.5 54t127.5 -54t45.5 -151q0 -99 -45.5 -153t-127.5 -54zM205 -28q65 0 65 121q0 63 -16 93t-49 30q-65 0 -65 -121q0 -63 16 -93t49 -30z" />
    <glyph glyph-name="uni2081" unicode="&#x2081;" horiz-adv-x="410" 
d="M187 -104v294l-119 -37v81l129 58h96v-396h-106z" />
    <glyph glyph-name="uni2082" unicode="&#x2082;" horiz-adv-x="410" 
d="M67 255q31 21 67.5 33t72.5 12q61 0 97.5 -32t36.5 -85q0 -37 -37.5 -85.5t-121.5 -117.5h173v-84h-296v72q99 89 135.5 132.5t36.5 74.5q0 18 -13 28.5t-35 10.5q-21 0 -53 -12t-63 -32v85z" />
    <glyph glyph-name="uni2083" unicode="&#x2083;" horiz-adv-x="410" 
d="M189 -112q-71 0 -120 25v78q60 -19 110 -19q37 0 58 12.5t21 34.5q0 23 -18 33.5t-57 10.5q-14 0 -58 -4v50l103 101h-155v82h263v-72l-100 -98h7q53 0 84 -27t31 -74q0 -64 -44 -98.5t-125 -34.5z" />
    <glyph glyph-name="uni2084" unicode="&#x2084;" horiz-adv-x="410" 
d="M230 -104v77h-194v74l184 251h102v-250h54v-75h-54v-77h-92zM129 48h101v138z" />
    <glyph glyph-name="uni2085" unicode="&#x2085;" horiz-adv-x="410" 
d="M190 -112q-63 0 -119 23v78q68 -17 116 -17q32 0 50.5 12.5t18.5 34.5q0 23 -17.5 34t-53.5 11q-49 0 -100 -5v55l11 178h241v-82h-156l-5 -79q11 2 23 2.5t23 0.5q64 0 99 -30.5t35 -85.5q0 -61 -44.5 -95.5t-121.5 -34.5z" />
    <glyph glyph-name="uni2086" unicode="&#x2086;" horiz-adv-x="410" 
d="M244 220q-49 0 -74 -24t-27 -77q22 11 48.5 17.5t51.5 6.5q57 0 93 -32.5t36 -85.5q0 -61 -45 -99t-117 -38q-83 0 -125.5 49t-42.5 145q0 103 50.5 160.5t141.5 57.5q26 0 57.5 -6t51.5 -15v-73q-44 14 -99 14zM213 69q-34 0 -68 -14q1 -46 17 -66.5t52 -20.5
q27 0 41.5 13t14.5 38q0 23 -15.5 36.5t-41.5 13.5z" />
    <glyph glyph-name="uni2087" unicode="&#x2087;" horiz-adv-x="410" 
d="M90 -104l172 312h-213v84h323v-78l-166 -318h-116z" />
    <glyph glyph-name="uni2088" unicode="&#x2088;" horiz-adv-x="410" 
d="M347 196q0 -30 -17 -54.5t-47 -38.5q43 -19 61.5 -41.5t18.5 -55.5q0 -55 -43 -86.5t-117 -31.5q-71 0 -113.5 29t-42.5 77q0 34 20 62t55 43q-31 16 -45.5 36.5t-14.5 49.5q0 52 39.5 83.5t104.5 31.5q62 0 101.5 -29t39.5 -75zM173 72q-30 -27 -30 -58q0 -26 16 -40
t45 -14t46 13t17 34q0 29 -40 44zM154 188q0 -33 44 -50l29 -11q28 24 28 55q0 22 -13 34t-37 12q-23 0 -37 -11t-14 -29z" />
    <glyph glyph-name="uni2089" unicode="&#x2089;" horiz-adv-x="410" 
d="M60 -14q50 -18 109 -18q50 0 72 22.5t22 71.5q-19 -10 -45 -16.5t-50 -6.5q-59 0 -93.5 32t-34.5 86q0 63 44.5 103t114.5 40q81 0 124 -51t43 -148q0 -100 -49.5 -156.5t-138.5 -56.5q-32 0 -65 7t-53 18v73zM194 113q40 0 69 13v4q0 90 -66 90q-27 0 -41.5 -14.5
t-14.5 -40.5q0 -25 14 -38.5t39 -13.5z" />
    <glyph glyph-name="uni208A" unicode="&#x208a;" horiz-adv-x="410" 
d="M158 -55v104h-100v83h100v104h94v-104h100v-83h-100v-104h-94z" />
    <glyph glyph-name="uni208B" unicode="&#x208b;" horiz-adv-x="410" 
d="M58 49v83h294v-83h-294z" />
    <glyph glyph-name="uni208C" unicode="&#x208c;" horiz-adv-x="410" 
d="M58 -27v83h294v-83h-294zM58 126v83h294v-83h-294z" />
    <glyph glyph-name="uni208D" unicode="&#x208d;" horiz-adv-x="244" 
d="M136 -161q-90 121 -90 255t90 255h94q-76 -116 -76 -255t76 -255h-94z" />
    <glyph glyph-name="uni208E" unicode="&#x208e;" horiz-adv-x="244" 
d="M14 -161q76 116 76 255t-76 255h94q90 -121 90 -255t-90 -255h-94z" />
    <glyph glyph-name="Euro" unicode="&#x20ac;" 
d="M238 381v-75h234l-24 -86h-198q33 -113 168 -113q81 0 154 21v-110q-75 -31 -171 -31q-121 0 -195.5 59t-99.5 174h-82v86h71q-1 8 -1 17v18v20t1 20h-71v86h83q27 115 104.5 175.5t197.5 60.5q86 0 159 -28v-110q-65 18 -141 18q-71 0 -114.5 -28.5t-62.5 -87.5h264
l-24 -86h-252z" />
    <glyph glyph-name="uni20B9" unicode="&#x20b9;" 
d="M317 0l-237 262v88h106q69 0 104.5 19t45.5 61h-255v88h253q-24 79 -143 79h-111v96h500l-19 -96h-150q40 -29 52 -79h82l-18 -88h-63q-12 -75 -66.5 -118t-144.5 -50l-13 -1l253 -261h-176z" />
    <glyph glyph-name="uni20BA" unicode="&#x20ba;" 
d="M249 276v-158h12q87 0 128.5 40.5t41.5 127.5v9h132v-18q0 -129 -85 -203t-234 -74h-137v209l-90 -42v92l90 42v84l-90 -42v92l90 42v216h142v-149l159 75v-92l-159 -75v-84l159 75v-92z" />
    <glyph glyph-name="uni2105" unicode="&#x2105;" horiz-adv-x="973" 
d="M327 311q-47 -22 -100 -22q-94 0 -144.5 53t-50.5 153q0 97 52 151.5t144 54.5q25 0 50.5 -5t43.5 -14v-79q-46 10 -81 10q-47 0 -72 -27.5t-25 -78.5v-22q0 -106 102 -106q34 0 81 14v-82zM749 -8q-91 0 -141.5 54t-50.5 151t51.5 152t140.5 55q91 0 141.5 -54
t50.5 -151t-51.5 -152t-140.5 -55zM749 76q43 0 63.5 30t20.5 92t-20.5 92t-63.5 30t-63.5 -30t-20.5 -92t20.5 -92t63.5 -30zM247 0l332 693h108l-332 -693h-108z" />
    <glyph glyph-name="uni2113" unicode="&#x2113;" horiz-adv-x="451" 
d="M24 219l76 50v294q0 88 44.5 139.5t119.5 51.5q77 0 121 -52.5t44 -144.5q0 -89 -53 -172.5t-148 -143.5v-81q0 -37 16 -55t50 -18q36 0 93 21v-95q-57 -30 -132 -30q-74 0 -114.5 42.5t-40.5 119.5v16l-76 -48v106zM228 356q23 22 41 55.5t28 74.5t10 84q0 39 -10 59.5
t-29 20.5q-21 0 -30.5 -19t-9.5 -61v-214z" />
    <glyph glyph-name="uni2116" unicode="&#x2116;" horiz-adv-x="1074" 
d="M200 500v-500h-120v693h152l262 -504v504h120v-693h-152zM866 328q-83 0 -127.5 49t-44.5 141q0 91 45 141.5t127 50.5t127 -50.5t45 -141.5q0 -92 -44.5 -141t-127.5 -49zM866 406q70 0 70 112q0 114 -70 114t-70 -114q0 -112 70 -112zM1023 274v-78h-314v78h314z" />
    <glyph glyph-name="uni2117" unicode="&#x2117;" horiz-adv-x="782" 
d="M391 -17q-104 0 -187.5 44.5t-132.5 127t-49 190.5q0 102 45.5 184t130 130t193.5 48q104 0 187.5 -44.5t132.5 -127t49 -190.5q0 -102 -45 -184t-129.5 -130t-194.5 -48zM391 63q80 0 142 34t96.5 98t34.5 150q0 83 -33 146.5t-95 99.5t-145 36q-80 0 -141.5 -34
t-96.5 -98t-35 -150q0 -83 33 -146.5t95 -99.5t145 -36zM269 145v400h143q67 0 106 -36t39 -98t-39 -98t-106 -36h-41v-132h-102zM371 353h30q25 0 38.5 14.5t13.5 40.5q0 61 -52 61h-30v-116z" />
    <glyph glyph-name="trademark" unicode="&#x2122;" horiz-adv-x="861" 
d="M721 309v242l-66 -151h-93l-66 151v-242h-92v384h109l96 -209l97 209h107v-384h-92zM128 309v302h-116v82h336v-82h-116v-302h-104z" />
    <glyph glyph-name="uni2126" unicode="&#x2126;" horiz-adv-x="780" 
d="M390 588q-84 0 -130 -57.5t-46 -163.5q0 -86 31 -148.5t98 -108.5v-110h-311v111h162q-65 45 -99.5 112t-34.5 148q0 100 40 176.5t114.5 119.5t175.5 43q97 0 171.5 -40.5t116.5 -117.5t42 -181q0 -81 -34.5 -148t-99.5 -112h162v-111h-311v110q67 46 98 108.5t31 148.5
q0 106 -46 163.5t-130 57.5z" />
    <glyph glyph-name="estimated" unicode="&#x212e;" horiz-adv-x="882" 
d="M198 134q0 -12 9 -22q84 -96 234 -96q74 0 138 28t107 80h62q-50 -63 -130.5 -98t-176.5 -35q-115 0 -203.5 46.5t-136 126.5t-47.5 180q0 105 52 187t139.5 126.5t194.5 44.5q115 0 203.5 -46.5t136.5 -126t48 -178.5v-15h-624q-6 0 -6 -6v-196zM679 358q6 0 6 6v194
q0 12 -9 24q-45 45 -107 70t-129 25q-146 0 -234 -98q-8 -10 -8 -25v-190q0 -6 6 -6h475z" />
    <glyph glyph-name="oneseventh" unicode="&#x2150;" horiz-adv-x="940" 
d="M218 0l332 693h108l-332 -693h-108zM620 0l172 312h-213v84h323v-78l-166 -318h-116zM187 297v294l-119 -37v81l129 58h96v-396h-106z" />
    <glyph glyph-name="oneninth" unicode="&#x2151;" horiz-adv-x="940" 
d="M230 0l332 693h108l-332 -693h-108zM590 90q50 -18 109 -18q50 0 72 22.5t22 71.5q-19 -10 -45 -16.5t-50 -6.5q-59 0 -93.5 32t-34.5 86q0 63 44.5 103t114.5 40q81 0 124 -51t43 -148q0 -100 -49.5 -156.5t-138.5 -56.5q-32 0 -65 7t-53 18v73zM724 217q40 0 69 13v4
q0 90 -66 90q-27 0 -41.5 -14.5t-14.5 -40.5q0 -25 14 -38.5t39 -13.5zM187 297v294l-119 -37v81l129 58h96v-396h-106z" />
    <glyph glyph-name="onethird" unicode="&#x2153;" horiz-adv-x="940" 
d="M230 0l332 693h108l-332 -693h-108zM719 -8q-71 0 -120 25v78q60 -19 110 -19q37 0 58 12.5t21 34.5q0 23 -18 33.5t-57 10.5q-14 0 -58 -4v50l103 101h-155v82h263v-72l-100 -98h7q53 0 84 -27t31 -74q0 -64 -44 -98.5t-125 -34.5zM187 297v294l-119 -37v81l129 58h96
v-396h-106z" />
    <glyph glyph-name="twothirds" unicode="&#x2154;" horiz-adv-x="940" 
d="M259 0l332 693h108l-332 -693h-108zM719 -8q-71 0 -120 25v78q60 -19 110 -19q37 0 58 12.5t21 34.5q0 23 -18 33.5t-57 10.5q-14 0 -58 -4v50l103 101h-155v82h263v-72l-100 -98h7q53 0 84 -27t31 -74q0 -64 -44 -98.5t-125 -34.5zM67 656q31 21 67.5 33t72.5 12
q61 0 97.5 -32t36.5 -85q0 -37 -37.5 -85.5t-121.5 -117.5h173v-84h-296v72q99 89 135.5 132.5t36.5 74.5q0 18 -13 28.5t-35 10.5q-21 0 -53 -12t-63 -32v85z" />
    <glyph glyph-name="onefifth" unicode="&#x2155;" horiz-adv-x="940" 
d="M239 0l332 693h108l-332 -693h-108zM720 -8q-63 0 -119 23v78q68 -17 116 -17q32 0 50.5 12.5t18.5 34.5q0 23 -17.5 34t-53.5 11q-49 0 -100 -5v55l11 178h241v-82h-156l-5 -79q11 2 23 2.5t23 0.5q64 0 99 -30.5t35 -85.5q0 -61 -44.5 -95.5t-121.5 -34.5zM187 297v294
l-119 -37v81l129 58h96v-396h-106z" />
    <glyph glyph-name="twofifths" unicode="&#x2156;" horiz-adv-x="940" 
d="M269 0l332 693h108l-332 -693h-108zM720 -8q-63 0 -119 23v78q68 -17 116 -17q32 0 50.5 12.5t18.5 34.5q0 23 -17.5 34t-53.5 11q-49 0 -100 -5v55l11 178h241v-82h-156l-5 -79q11 2 23 2.5t23 0.5q64 0 99 -30.5t35 -85.5q0 -61 -44.5 -95.5t-121.5 -34.5zM67 656
q31 21 67.5 33t72.5 12q61 0 97.5 -32t36.5 -85q0 -37 -37.5 -85.5t-121.5 -117.5h173v-84h-296v72q99 89 135.5 132.5t36.5 74.5q0 18 -13 28.5t-35 10.5q-21 0 -53 -12t-63 -32v85z" />
    <glyph glyph-name="threefifths" unicode="&#x2157;" horiz-adv-x="940" 
d="M255 0l332 693h108l-332 -693h-108zM720 -8q-63 0 -119 23v78q68 -17 116 -17q32 0 50.5 12.5t18.5 34.5q0 23 -17.5 34t-53.5 11q-49 0 -100 -5v55l11 178h241v-82h-156l-5 -79q11 2 23 2.5t23 0.5q64 0 99 -30.5t35 -85.5q0 -61 -44.5 -95.5t-121.5 -34.5zM189 289
q-71 0 -120 25v78q60 -19 110 -19q37 0 58 12.5t21 34.5q0 23 -18 33.5t-57 10.5q-14 0 -58 -4v50l103 101h-155v82h263v-72l-100 -98h7q53 0 84 -27t31 -74q0 -64 -44 -98.5t-125 -34.5z" />
    <glyph glyph-name="fourfifths" unicode="&#x2158;" horiz-adv-x="940" 
d="M258 0l332 693h108l-332 -693h-108zM720 -8q-63 0 -119 23v78q68 -17 116 -17q32 0 50.5 12.5t18.5 34.5q0 23 -17.5 34t-53.5 11q-49 0 -100 -5v55l11 178h241v-82h-156l-5 -79q11 2 23 2.5t23 0.5q64 0 99 -30.5t35 -85.5q0 -61 -44.5 -95.5t-121.5 -34.5zM230 297v77
h-194v74l184 251h102v-250h54v-75h-54v-77h-92zM129 449h101v138z" />
    <glyph glyph-name="onesixth" unicode="&#x2159;" horiz-adv-x="940" 
d="M245 0l332 693h108l-332 -693h-108zM774 324q-49 0 -74 -24t-27 -77q22 11 48.5 17.5t51.5 6.5q57 0 93 -32.5t36 -85.5q0 -61 -45 -99t-117 -38q-83 0 -125.5 49t-42.5 145q0 103 50.5 160.5t141.5 57.5q26 0 57.5 -6t51.5 -15v-73q-44 14 -99 14zM743 173
q-34 0 -68 -14q1 -46 17 -66.5t52 -20.5q27 0 41.5 13t14.5 38q0 23 -15.5 36.5t-41.5 13.5zM187 297v294l-119 -37v81l129 58h96v-396h-106z" />
    <glyph glyph-name="fivesixths" unicode="&#x215a;" horiz-adv-x="940" 
d="M255 0l332 693h108l-332 -693h-108zM774 324q-49 0 -74 -24t-27 -77q22 11 48.5 17.5t51.5 6.5q57 0 93 -32.5t36 -85.5q0 -61 -45 -99t-117 -38q-83 0 -125.5 49t-42.5 145q0 103 50.5 160.5t141.5 57.5q26 0 57.5 -6t51.5 -15v-73q-44 14 -99 14zM743 173
q-34 0 -68 -14q1 -46 17 -66.5t52 -20.5q27 0 41.5 13t14.5 38q0 23 -15.5 36.5t-41.5 13.5zM190 289q-63 0 -119 23v78q68 -17 116 -17q32 0 50.5 12.5t18.5 34.5q0 23 -17.5 34t-53.5 11q-49 0 -100 -5v55l11 178h241v-82h-156l-5 -79q11 2 23 2.5t23 0.5q64 0 99 -30.5
t35 -85.5q0 -61 -44.5 -95.5t-121.5 -34.5z" />
    <glyph glyph-name="oneeighth" unicode="&#x215b;" horiz-adv-x="940" 
d="M240 0l332 693h108l-332 -693h-108zM877 300q0 -30 -17 -54.5t-47 -38.5q43 -19 61.5 -41.5t18.5 -55.5q0 -55 -43 -86.5t-117 -31.5q-71 0 -113.5 29t-42.5 77q0 34 20 62t55 43q-31 16 -45.5 36.5t-14.5 49.5q0 52 39.5 83.5t104.5 31.5q62 0 101.5 -29t39.5 -75z
M703 176q-30 -27 -30 -58q0 -26 16 -40t45 -14t46 13t17 34q0 29 -40 44zM684 292q0 -33 44 -50l29 -11q28 24 28 55q0 22 -13 34t-37 12q-23 0 -37 -11t-14 -29zM187 297v294l-119 -37v81l129 58h96v-396h-106z" />
    <glyph glyph-name="threeeighths" unicode="&#x215c;" horiz-adv-x="940" 
d="M254 0l332 693h108l-332 -693h-108zM877 300q0 -30 -17 -54.5t-47 -38.5q43 -19 61.5 -41.5t18.5 -55.5q0 -55 -43 -86.5t-117 -31.5q-71 0 -113.5 29t-42.5 77q0 34 20 62t55 43q-31 16 -45.5 36.5t-14.5 49.5q0 52 39.5 83.5t104.5 31.5q62 0 101.5 -29t39.5 -75z
M703 176q-30 -27 -30 -58q0 -26 16 -40t45 -14t46 13t17 34q0 29 -40 44zM684 292q0 -33 44 -50l29 -11q28 24 28 55q0 22 -13 34t-37 12q-23 0 -37 -11t-14 -29zM189 289q-71 0 -120 25v78q60 -19 110 -19q37 0 58 12.5t21 34.5q0 23 -18 33.5t-57 10.5q-14 0 -58 -4v50
l103 101h-155v82h263v-72l-100 -98h7q53 0 84 -27t31 -74q0 -64 -44 -98.5t-125 -34.5z" />
    <glyph glyph-name="fiveeighths" unicode="&#x215d;" horiz-adv-x="940" 
d="M252 0l332 693h108l-332 -693h-108zM877 300q0 -30 -17 -54.5t-47 -38.5q43 -19 61.5 -41.5t18.5 -55.5q0 -55 -43 -86.5t-117 -31.5q-71 0 -113.5 29t-42.5 77q0 34 20 62t55 43q-31 16 -45.5 36.5t-14.5 49.5q0 52 39.5 83.5t104.5 31.5q62 0 101.5 -29t39.5 -75z
M703 176q-30 -27 -30 -58q0 -26 16 -40t45 -14t46 13t17 34q0 29 -40 44zM684 292q0 -33 44 -50l29 -11q28 24 28 55q0 22 -13 34t-37 12q-23 0 -37 -11t-14 -29zM190 289q-63 0 -119 23v78q68 -17 116 -17q32 0 50.5 12.5t18.5 34.5q0 23 -17.5 34t-53.5 11q-49 0 -100 -5
v55l11 178h241v-82h-156l-5 -79q11 2 23 2.5t23 0.5q64 0 99 -30.5t35 -85.5q0 -61 -44.5 -95.5t-121.5 -34.5z" />
    <glyph glyph-name="seveneighths" unicode="&#x215e;" horiz-adv-x="940" 
d="M212 0l332 693h108l-332 -693h-108zM877 300q0 -30 -17 -54.5t-47 -38.5q43 -19 61.5 -41.5t18.5 -55.5q0 -55 -43 -86.5t-117 -31.5q-71 0 -113.5 29t-42.5 77q0 34 20 62t55 43q-31 16 -45.5 36.5t-14.5 49.5q0 52 39.5 83.5t104.5 31.5q62 0 101.5 -29t39.5 -75z
M703 176q-30 -27 -30 -58q0 -26 16 -40t45 -14t46 13t17 34q0 29 -40 44zM684 292q0 -33 44 -50l29 -11q28 24 28 55q0 22 -13 34t-37 12q-23 0 -37 -11t-14 -29zM90 297l172 312h-213v84h323v-78l-166 -318h-116z" />
    <glyph glyph-name="partialdiff" unicode="&#x2202;" 
d="M304 709q115 0 177 -77.5t62 -222.5q0 -206 -75 -315t-217 -109q-102 0 -162.5 57t-60.5 152q0 65 29.5 116t85 80.5t129.5 29.5q67 0 130 -34q0 6 0.5 11.5t0.5 11.5q0 186 -121 186q-37 0 -75 -12.5t-93 -42.5v110q89 59 190 59zM265 99q51 0 84.5 49.5t46.5 142.5
q-52 29 -108 29q-52 0 -84 -33.5t-32 -87.5q0 -48 24.5 -74t68.5 -26z" />
    <glyph glyph-name="uni2206" unicode="&#x2206;" 
d="M5 0v108l206 585h165l206 -585v-108h-577zM289 556l-133 -448h268z" />
    <glyph glyph-name="product" unicode="&#x220f;" 
d="M416 -120v703h-246v-703h-146v813h538v-813h-146z" />
    <glyph glyph-name="summation" unicode="&#x2211;" 
d="M23 -120v116l208 293l-198 288v116h500v-116h-347l200 -289l-211 -292h388v-116h-540z" />
    <glyph glyph-name="minus" unicode="&#x2212;" 
d="M60 291v112h466v-112h-466z" />
    <glyph glyph-name="uni2215" unicode="&#x2215;" 
d="M73 0l332 693h108l-332 -693h-108z" />
    <glyph glyph-name="uni2219" unicode="&#x2219;" 
d="M293 237q-40 0 -65 25t-25 65t25 65t65 25t65 -25t25 -65t-25 -65t-65 -25z" />
    <glyph glyph-name="radical" unicode="&#x221a;" 
d="M471 740h139l-247 -740h-143l-99 256h-92v106h189l71 -215z" />
    <glyph glyph-name="infinity" unicode="&#x221e;" 
d="M155 505q43 0 76 -22t63 -70q33 49 65.5 70.5t75.5 21.5q62 0 103 -45t41 -115q0 -44 -18.5 -81t-52.5 -59t-77 -22q-44 0 -77 22t-63 69q-32 -48 -64.5 -69.5t-75.5 -21.5q-62 0 -103 45t-41 115q0 44 18.5 81t52.5 59t77 22zM422 416q-26 0 -46 -16.5t-43 -55.5
q22 -39 42 -55.5t47 -16.5q26 0 42 20.5t16 52.5q0 31 -16.5 51t-41.5 20zM164 272q25 0 45 16t44 55q-22 39 -42.5 56t-46.5 17t-42 -20.5t-16 -52.5q0 -31 16.5 -51t41.5 -20z" />
    <glyph glyph-name="integral" unicode="&#x222b;" 
d="M366 -19q0 -95 -46 -147t-130 -52q-58 0 -102 19v99q37 -6 63 -6q69 0 69 67v594q0 95 46 147t130 52q58 0 102 -19v-99q-37 6 -63 6q-69 0 -69 -67v-594z" />
    <glyph glyph-name="approxequal" unicode="&#x2248;" 
d="M50 136q-7 38 -7 60q0 62 36 98t98 36t135 -53q32 -23 48 -30.5t32 -7.5q38 0 41 41l3 44h100q7 -38 7 -60q0 -62 -36 -98t-98 -36t-135 53q-32 23 -48 30.5t-32 7.5q-38 0 -41 -41l-3 -44h-100zM50 376q-7 38 -7 60q0 62 36 98t98 36t135 -53q32 -23 48 -30.5t32 -7.5
q38 0 41 41l3 44h100q7 -38 7 -60q0 -62 -36 -98t-98 -36t-135 53q-32 23 -48 30.5t-32 7.5q-38 0 -41 -41l-3 -44h-100z" />
    <glyph glyph-name="notequal" unicode="&#x2260;" 
d="M90 89l53 93h-83v112h147l63 109h-210v112h274l49 85h104l-49 -85h88v-112h-152l-63 -109h215v-112h-279l-53 -93h-104z" />
    <glyph glyph-name="lessequal" unicode="&#x2264;" 
d="M68 359v114l450 188v-128l-314 -116l314 -115v-131zM60 1v112h466v-112h-466z" />
    <glyph glyph-name="greaterequal" unicode="&#x2265;" 
d="M518 473v-114l-450 -188v128l314 116l-314 115v131zM60 1v112h466v-112h-466z" />
    <glyph glyph-name="lozenge" unicode="&#x25ca;" 
d="M224 0l-201 347l201 346h138l201 -346l-201 -347h-138zM416 347l-123 223l-123 -223l123 -224z" />
    <glyph glyph-name="uni27E8" unicode="&#x27e8;" horiz-adv-x="364" 
d="M204 -144l-162 449l162 449h142l-161 -449l161 -449h-142z" />
    <glyph glyph-name="uni27E9" unicode="&#x27e9;" horiz-adv-x="364" 
d="M160 754l162 -449l-162 -449h-142l161 449l-161 449h142z" />
    <glyph glyph-name="twosevenths" unicode="&#xf507;" horiz-adv-x="940" 
d="M249 0l332 693h108l-332 -693h-108zM620 0l172 312h-213v84h323v-78l-166 -318h-116zM67 656q31 21 67.5 33t72.5 12q61 0 97.5 -32t36.5 -85q0 -37 -37.5 -85.5t-121.5 -117.5h173v-84h-296v72q99 89 135.5 132.5t36.5 74.5q0 18 -13 28.5t-35 10.5q-21 0 -53 -12
t-63 -32v85z" />
    <glyph glyph-name="threesevenths" unicode="&#xf508;" horiz-adv-x="940" 
d="M233 0l332 693h108l-332 -693h-108zM620 0l172 312h-213v84h323v-78l-166 -318h-116zM189 289q-71 0 -120 25v78q60 -19 110 -19q37 0 58 12.5t21 34.5q0 23 -18 33.5t-57 10.5q-14 0 -58 -4v50l103 101h-155v82h263v-72l-100 -98h7q53 0 84 -27t31 -74q0 -64 -44 -98.5
t-125 -34.5z" />
    <glyph glyph-name="foursevenths" unicode="&#xf509;" horiz-adv-x="940" 
d="M240 0l332 693h108l-332 -693h-108zM620 0l172 312h-213v84h323v-78l-166 -318h-116zM230 297v77h-194v74l184 251h102v-250h54v-75h-54v-77h-92zM129 449h101v138z" />
    <glyph glyph-name="fivesevenths" unicode="&#xf50a;" horiz-adv-x="940" 
d="M232 0l332 693h108l-332 -693h-108zM620 0l172 312h-213v84h323v-78l-166 -318h-116zM190 289q-63 0 -119 23v78q68 -17 116 -17q32 0 50.5 12.5t18.5 34.5q0 23 -17.5 34t-53.5 11q-49 0 -100 -5v55l11 178h241v-82h-156l-5 -79q11 2 23 2.5t23 0.5q64 0 99 -30.5
t35 -85.5q0 -61 -44.5 -95.5t-121.5 -34.5z" />
    <glyph glyph-name="sixsevenths" unicode="&#xf50b;" horiz-adv-x="940" 
d="M238 0l332 693h108l-332 -693h-108zM620 0l172 312h-213v84h323v-78l-166 -318h-116zM244 621q-49 0 -74 -24t-27 -77q22 11 48.5 17.5t51.5 6.5q57 0 93 -32.5t36 -85.5q0 -61 -45 -99t-117 -38q-83 0 -125.5 49t-42.5 145q0 103 50.5 160.5t141.5 57.5q26 0 57.5 -6
t51.5 -15v-73q-44 14 -99 14zM213 470q-34 0 -68 -14q1 -46 17 -66.5t52 -20.5q27 0 41.5 13t14.5 38q0 23 -15.5 36.5t-41.5 13.5z" />
    <glyph glyph-name="twoninths" unicode="&#xf50d;" horiz-adv-x="940" 
d="M261 0l332 693h108l-332 -693h-108zM590 90q50 -18 109 -18q50 0 72 22.5t22 71.5q-19 -10 -45 -16.5t-50 -6.5q-59 0 -93.5 32t-34.5 86q0 63 44.5 103t114.5 40q81 0 124 -51t43 -148q0 -100 -49.5 -156.5t-138.5 -56.5q-32 0 -65 7t-53 18v73zM724 217q40 0 69 13v4
q0 90 -66 90q-27 0 -41.5 -14.5t-14.5 -40.5q0 -25 14 -38.5t39 -13.5zM67 656q31 21 67.5 33t72.5 12q61 0 97.5 -32t36.5 -85q0 -37 -37.5 -85.5t-121.5 -117.5h173v-84h-296v72q99 89 135.5 132.5t36.5 74.5q0 18 -13 28.5t-35 10.5q-21 0 -53 -12t-63 -32v85z" />
    <glyph glyph-name="fourninths" unicode="&#xf50e;" horiz-adv-x="940" 
d="M254 0l332 693h108l-332 -693h-108zM590 90q50 -18 109 -18q50 0 72 22.5t22 71.5q-19 -10 -45 -16.5t-50 -6.5q-59 0 -93.5 32t-34.5 86q0 63 44.5 103t114.5 40q81 0 124 -51t43 -148q0 -100 -49.5 -156.5t-138.5 -56.5q-32 0 -65 7t-53 18v73zM724 217q40 0 69 13v4
q0 90 -66 90q-27 0 -41.5 -14.5t-14.5 -40.5q0 -25 14 -38.5t39 -13.5zM230 297v77h-194v74l184 251h102v-250h54v-75h-54v-77h-92zM129 449h101v138z" />
    <glyph glyph-name="fiveninths" unicode="&#xf50f;" horiz-adv-x="940" 
d="M245 0l332 693h108l-332 -693h-108zM590 90q50 -18 109 -18q50 0 72 22.5t22 71.5q-19 -10 -45 -16.5t-50 -6.5q-59 0 -93.5 32t-34.5 86q0 63 44.5 103t114.5 40q81 0 124 -51t43 -148q0 -100 -49.5 -156.5t-138.5 -56.5q-32 0 -65 7t-53 18v73zM724 217q40 0 69 13v4
q0 90 -66 90q-27 0 -41.5 -14.5t-14.5 -40.5q0 -25 14 -38.5t39 -13.5zM190 289q-63 0 -119 23v78q68 -17 116 -17q32 0 50.5 12.5t18.5 34.5q0 23 -17.5 34t-53.5 11q-49 0 -100 -5v55l11 178h241v-82h-156l-5 -79q11 2 23 2.5t23 0.5q64 0 99 -30.5t35 -85.5
q0 -61 -44.5 -95.5t-121.5 -34.5z" />
    <glyph glyph-name="sevenninths" unicode="&#xf510;" horiz-adv-x="940" 
d="M220 0l332 693h108l-332 -693h-108zM590 90q50 -18 109 -18q50 0 72 22.5t22 71.5q-19 -10 -45 -16.5t-50 -6.5q-59 0 -93.5 32t-34.5 86q0 63 44.5 103t114.5 40q81 0 124 -51t43 -148q0 -100 -49.5 -156.5t-138.5 -56.5q-32 0 -65 7t-53 18v73zM724 217q40 0 69 13v4
q0 90 -66 90q-27 0 -41.5 -14.5t-14.5 -40.5q0 -25 14 -38.5t39 -13.5zM90 297l172 312h-213v84h323v-78l-166 -318h-116z" />
    <glyph glyph-name="eightninths" unicode="&#xf511;" horiz-adv-x="940" 
d="M250 0l332 693h108l-332 -693h-108zM590 90q50 -18 109 -18q50 0 72 22.5t22 71.5q-19 -10 -45 -16.5t-50 -6.5q-59 0 -93.5 32t-34.5 86q0 63 44.5 103t114.5 40q81 0 124 -51t43 -148q0 -100 -49.5 -156.5t-138.5 -56.5q-32 0 -65 7t-53 18v73zM724 217q40 0 69 13v4
q0 90 -66 90q-27 0 -41.5 -14.5t-14.5 -40.5q0 -25 14 -38.5t39 -13.5zM347 597q0 -30 -17 -54.5t-47 -38.5q43 -19 61.5 -41.5t18.5 -55.5q0 -55 -43 -86.5t-117 -31.5q-71 0 -113.5 29t-42.5 77q0 34 20 62t55 43q-31 16 -45.5 36.5t-14.5 49.5q0 52 39.5 83.5t104.5 31.5
q62 0 101.5 -29t39.5 -75zM173 473q-30 -27 -30 -58q0 -26 16 -40t45 -14t46 13t17 34q0 29 -40 44zM154 589q0 -33 44 -50l29 -11q28 24 28 55q0 22 -13 34t-37 12q-23 0 -37 -11t-14 -29z" />
    <glyph glyph-name="uniFEFF" unicode="&#xfeff;" horiz-adv-x="0" 
 />
    <glyph glyph-name="uniFFFD" unicode="&#xfffd;" horiz-adv-x="1000" 
d="M29 340l471 471l471 -471l-471 -471zM609 456q0 -39 -27 -70t-86 -59l-47 -22l9 -136h78v103q85 38 125 85t40 108q0 74 -47.5 115t-132.5 41q-43 0 -85.5 -12t-79.5 -34v-74q80 42 150 42q103 0 103 -87zM500 -6q25 0 40.5 16t15.5 41t-15.5 41t-40.5 16t-40.5 -16
t-15.5 -41t15.5 -41t40.5 -16z" />
    <glyph glyph-name="zero.pnum" horiz-adv-x="602" 
d="M301 105q61 0 87 56t26 187q0 130 -26 186t-87 56t-87 -56t-26 -186q0 -131 26 -187t87 -56zM301 -15q-127 0 -195 94t-68 269q0 174 68.5 268t194.5 94t194.5 -94t68.5 -268q0 -175 -68 -269t-195 -94z" />
    <glyph glyph-name="one.pnum" horiz-adv-x="449" 
d="M205 0v547l-178 -56v114l195 88h131v-693h-148z" />
    <glyph glyph-name="two.pnum" horiz-adv-x="551" 
d="M47 630q56 43 109.5 61.5t118.5 18.5q95 0 152.5 -53t57.5 -140q0 -52 -29 -108t-92 -126.5t-169 -166.5h318v-116h-484v108q128 129 191.5 201.5t88 116.5t24.5 81q0 38 -23 59.5t-62 21.5q-44 0 -96 -20t-105 -57v119z" />
    <glyph glyph-name="three.pnum" horiz-adv-x="529" 
d="M284 404q96 -5 151 -57t55 -137q0 -66 -32.5 -117t-94.5 -79.5t-145 -28.5q-94 0 -189 41v113q112 -38 184 -38q64 0 97.5 27.5t33.5 80.5q0 47 -31 69.5t-96 22.5q-13 0 -44.5 -2.5t-48.5 -4.5v92l179 193h-265v114h422v-110z" />
    <glyph glyph-name="four.pnum" horiz-adv-x="590" 
d="M349 0v137h-323v107l314 449h136v-444h88v-112h-88v-137h-127zM349 249v266l-186 -266h186z" />
    <glyph glyph-name="five.pnum" horiz-adv-x="536" 
d="M31 139q118 -38 198 -38q62 0 94 28t32 82t-32 79.5t-99 25.5q-74 0 -164 -10v90l18 297h393v-114h-270l-11 -164q41 10 86 10q103 0 165 -57.5t62 -153.5q0 -66 -32 -118t-93 -81.5t-142 -29.5q-109 0 -205 42v112z" />
    <glyph glyph-name="six.pnum" horiz-adv-x="585" 
d="M356 596q-82 0 -122.5 -51t-46.5 -163q79 42 157 42q93 0 150 -55.5t57 -146.5q0 -69 -31 -122.5t-88.5 -84t-134.5 -30.5q-127 0 -191 84.5t-64 251.5q0 120 34.5 207.5t101 134.5t160.5 47q44 0 90 -10t78 -27v-104q-30 12 -72.5 19.5t-77.5 7.5zM296 314
q-49 0 -108 -25q2 -100 29 -145t86 -45q102 0 102 109q0 51 -28 78.5t-81 27.5z" />
    <glyph glyph-name="seven.pnum" horiz-adv-x="549" 
d="M104 0l260 577h-347v116h495v-109l-249 -584h-159z" />
    <glyph glyph-name="eight.pnum" horiz-adv-x="598" 
d="M529 525q0 -52 -29 -95t-79 -68q71 -34 102 -73.5t31 -98.5q0 -97 -67 -151t-189 -54q-118 0 -186 50t-68 137q0 59 33.5 108.5t92.5 76.5q-51 29 -75 66.5t-24 89.5q0 89 62.5 143t165.5 54q102 0 166 -51.5t64 -133.5zM249 320q-31 -23 -48 -53.5t-17 -66.5
q0 -52 29.5 -78.5t86.5 -26.5q55 0 84.5 25t29.5 71q0 35 -25.5 58t-96.5 53zM207 521q0 -35 23.5 -61.5t74.5 -47.5l37 -16q51 48 51 111q0 48 -24.5 73.5t-71.5 25.5q-44 0 -67 -22t-23 -63z" />
    <glyph glyph-name="nine.pnum" horiz-adv-x="579" 
d="M62 136q37 -16 85 -26.5t84 -10.5q79 0 115.5 46t43.5 152q-73 -41 -148 -41q-95 0 -151 57.5t-56 155.5q0 68 30 122.5t87 86.5t132 32q124 0 189 -85t65 -248q0 -191 -75 -291.5t-218 -100.5q-50 0 -100 13t-83 34v104zM287 366q51 0 105 24v1q0 106 -27 155.5
t-84 49.5q-47 0 -73.5 -30t-26.5 -83q0 -117 106 -117z" />
    <glyph glyph-name="florin.crcy" 
d="M346 -19q0 -95 -46 -147t-130 -52q-58 0 -102 19v99q37 -6 63 -6q69 0 69 67v442h-81v90l81 15v46q0 101 46.5 150.5t141.5 49.5q27 0 56 -5.5t51 -14.5v-99q-40 6 -68 6q-46 0 -63.5 -15t-17.5 -53v-62h143v-108h-143v-422z" />
    <glyph glyph-name="hyphen.case" horiz-adv-x="402" 
d="M42 291v120h318v-120h-318z" />
    <glyph glyph-name="endash.case" horiz-adv-x="500" 
d="M0 294v114h500v-114h-500z" />
    <glyph glyph-name="emdash.case" horiz-adv-x="1000" 
d="M0 294v114h1000v-114h-1000z" />
    <glyph glyph-name="parenleft.case" horiz-adv-x="351" 
d="M198 -113q-68 95 -104 210.5t-36 238.5q0 122 36 238t104 211h139q-60 -93 -92.5 -209t-32.5 -240t32.5 -240t92.5 -209h-139z" />
    <glyph glyph-name="parenright.case" horiz-adv-x="351" 
d="M153 785q68 -95 104 -211t36 -238q0 -123 -36 -238.5t-104 -210.5h-139q60 93 92.5 209t32.5 240t-32.5 240t-92.5 209h139z" />
    <glyph glyph-name="slash.case" horiz-adv-x="516" 
d="M14 -113l341 898h147l-341 -898h-147z" />
    <glyph glyph-name="backslash.case" horiz-adv-x="516" 
d="M355 -113l-341 898h147l341 -898h-147z" />
    <glyph glyph-name="bracketleft.case" horiz-adv-x="370" 
d="M80 -113v898h274v-110h-124v-678h124v-110h-274z" />
    <glyph glyph-name="bracketright.case" horiz-adv-x="370" 
d="M16 -113v110h124v678h-124v110h274v-898h-274z" />
    <glyph glyph-name="braceleft.case" horiz-adv-x="396" 
d="M380 -104q-37 -17 -90 -17q-83 0 -131 51t-48 140v149q0 33 -15 47.5t-49 14.5h-21v110h21q34 0 49 14.5t15 47.5v149q0 89 48 140t131 51q53 0 90 -17v-98q-30 5 -60 5q-59 0 -59 -67v-160q0 -49 -23.5 -77.5t-76.5 -42.5q53 -14 76.5 -42.5t23.5 -77.5v-160
q0 -67 59 -67q30 0 60 5v-98z" />
    <glyph glyph-name="braceright.case" horiz-adv-x="396" 
d="M16 776q37 17 90 17q83 0 131 -51t48 -140v-149q0 -33 15 -47.5t49 -14.5h21v-110h-21q-34 0 -49 -14.5t-15 -47.5v-149q0 -89 -48 -140t-131 -51q-53 0 -90 17v98q30 -5 60 -5q59 0 59 67v160q0 50 23.5 78t76.5 42q-53 14 -76.5 42t-23.5 78v160q0 67 -59 67
q-30 0 -60 -5v98z" />
    <glyph glyph-name="bullet.case" horiz-adv-x="390" 
d="M195 196q-42 0 -77 19.5t-56.5 55t-21.5 80.5q0 42 19.5 77t55.5 56.5t80 21.5q42 0 77 -19.5t56.5 -55t21.5 -80.5q0 -42 -19.5 -77t-55.5 -56.5t-80 -21.5z" />
    <glyph glyph-name="guilsinglleft.case" horiz-adv-x="366" 
d="M178 144l-136 208l136 208h140l-122 -208l122 -208h-140z" />
    <glyph glyph-name="guilsinglright.case" horiz-adv-x="366" 
d="M188 560l136 -208l-136 -208h-140l122 208l-122 208h140z" />
    <glyph glyph-name="guillemotleft.case" horiz-adv-x="611" 
d="M178 144l-136 208l136 208h140l-122 -208l122 -208h-140zM423 144l-136 208l136 208h140l-122 -208l122 -208h-140z" />
    <glyph glyph-name="guillemotright.case" horiz-adv-x="611" 
d="M188 560l136 -208l-136 -208h-140l122 208l-122 208h140zM433 560l136 -208l-136 -208h-140l122 208l-122 208h140z" />
    <glyph glyph-name="at.case" horiz-adv-x="975" 
d="M437 -23q79 0 172 29v-94q-83 -37 -184 -37q-118 0 -203.5 45t-131.5 131.5t-46 207.5q0 140 62 256t177 185.5t262 69.5q181 0 283.5 -96.5t102.5 -267.5q0 -92 -29 -165t-83 -115.5t-124 -42.5q-46 0 -80 17t-51 48q-26 -30 -65 -48.5t-78 -18.5q-75 0 -115 47t-40 135
q0 75 29.5 143.5t81.5 112.5t112 44q71 0 113 -53l15 38h102l-53 -310q-3 -19 -3 -27q0 -17 10.5 -26.5t29.5 -9.5q31 0 57.5 28.5t42.5 81.5t16 120q0 128 -71.5 195.5t-206.5 67.5q-104 0 -189 -50.5t-135.5 -143.5t-50.5 -213q0 -137 70 -210.5t201 -73.5zM468 177
q45 0 81 44q0 11 3 33l33 195q-34 18 -67 18q-31 0 -58.5 -24.5t-44.5 -69t-17 -98.5q0 -98 70 -98z" />
    <glyph glyph-name="periodcentered.case" horiz-adv-x="284" 
d="M142 261q-40 0 -65 25t-25 65t25 65t65 25t65 -25t25 -65t-25 -65t-65 -25z" />
    <glyph glyph-name="periodcentered.locl_CAT" horiz-adv-x="274" 
d="M137 292q-35 0 -57 20.5t-22 52.5t22 52.5t57 20.5t57 -20.5t22 -52.5t-22 -52.5t-57 -20.5z" />
    <glyph glyph-name="periodcentered.locl_CAT.cap" horiz-adv-x="274" 
d="M137 312q-35 0 -57 20.5t-22 52.5t22 52.5t57 20.5t57 -20.5t22 -52.5t-22 -52.5t-57 -20.5z" />
    <glyph glyph-name="uni0327.cap" horiz-adv-x="0" 
d="M-11 -59q44 0 70.5 -21t26.5 -56q0 -45 -29.5 -81.5t-96.5 -71.5l-54 49q36 20 56 41.5t20 38.5q0 20 -31 20q-11 0 -32 -3v73q33 11 70 11z" />
    <glyph glyph-name="uni0326.cap" horiz-adv-x="0" 
d="M-90 -286l36 224h49q73 0 73 -46q0 -10 -4.5 -24t-17.5 -46l-47 -108h-89z" />
    <glyph glyph-name="uni0328.cap" horiz-adv-x="0" 
d="M0 0q-82 -62 -82 -115q0 -34 46 -34q19 0 46 6v-75q-36 -13 -78 -13q-59 0 -91.5 24t-32.5 67q0 84 118 157z" />
    <glyph glyph-name="uni0328.round" horiz-adv-x="0" 
d="M0 9q-46 -23 -72 -56t-26 -67q0 -37 49 -37q13 0 45 6v-73q-36 -13 -78 -13q-60 0 -92 24t-32 70q0 55 53 105.5t153 90.5v-50z" />
    <glyph glyph-name="uni0328.round.cap" horiz-adv-x="0" 
d="M0 12q-48 -24 -74 -57t-26 -67q0 -18 12 -27.5t35 -9.5q13 0 45 6v-75q-36 -13 -78 -13q-60 0 -92 24t-32 70q0 55 55.5 108t154.5 92v-51z" />
    <glyph glyph-name="iogonek.dotless" horiz-adv-x="294" 
d="M74 511h146v-511q-42 -32 -62 -60.5t-20 -56.5q0 -34 49 -34q14 0 45 6v-73q-36 -13 -78 -13q-59 0 -91.5 24t-32.5 67q0 75 92 140h-48v511z" />
    <glyph glyph-name="acutecomb.cap" horiz-adv-x="0" 
d="M-61 769l101 129h154l-133 -129h-122z" />
    <glyph glyph-name="uni030B.cap" horiz-adv-x="0" 
d="M-63 898h154l-133 -129h-122zM135 898h154l-133 -129h-122z" />
    <glyph glyph-name="gravecomb.cap" horiz-adv-x="0" 
d="M-61 769l-133 129h154l101 -129h-122z" />
    <glyph glyph-name="uni0302.cap" horiz-adv-x="0" 
d="M75 769l-76 75l-76 -75h-128l130 141h148l130 -141h-128z" />
    <glyph glyph-name="tildecomb.cap" horiz-adv-x="0" 
d="M70 843q22 0 23 29l2 34h81q3 -20 3 -39q0 -47 -29.5 -75t-78.5 -28q-56 0 -94 37q-19 18 -28 23.5t-19 5.5q-22 0 -23 -29l-2 -34h-81q-3 20 -3 39q0 47 29.5 75t78.5 28q56 0 94 -37q19 -18 28 -23.5t19 -5.5z" />
    <glyph glyph-name="uni030C.cap" horiz-adv-x="0" 
d="M-73 769l-131 141h146l58 -83l58 83h146l-131 -141h-146z" />
    <glyph glyph-name="uni0315.short" horiz-adv-x="0" 
d="M-46 568v189q28 12 64 12q43 0 69 -20l-41 -181h-92z" />
    <glyph glyph-name="uni0304.cap" horiz-adv-x="0" 
d="M-169 791v90h338v-90h-338z" />
    <glyph glyph-name="uni0308.cap" horiz-adv-x="0" 
d="M-114 770q-37 0 -59 20t-22 54t22 54.5t59 20.5t59 -20.5t22 -54.5t-22 -54t-59 -20zM114 770q-37 0 -59 20t-22 54t22 54.5t59 20.5t59 -20.5t22 -54.5t-22 -54t-59 -20z" />
    <glyph glyph-name="uni0306.cap" horiz-adv-x="0" 
d="M0 762q-73 0 -114.5 32t-41.5 89q0 17 3 27h82l1 -13q4 -47 70 -47q65 0 70 47l1 13h82q3 -10 3 -27q0 -57 -41.5 -89t-114.5 -32z" />
    <glyph glyph-name="uni0307.cap" horiz-adv-x="0" 
d="M0 770q-39 0 -62.5 21.5t-23.5 58.5t23.5 58.5t62.5 21.5t62.5 -21.5t23.5 -58.5t-23.5 -58.5t-62.5 -21.5z" />
    <glyph glyph-name="uni030A.cap" horiz-adv-x="0" 
d="M0 733q-54 0 -87.5 28.5t-33.5 76.5t33.5 76.5t87.5 28.5t87.5 -28.5t33.5 -76.5t-33.5 -76.5t-87.5 -28.5zM0 793q20 0 31 12t11 33t-11 33t-31 12t-31 -12t-11 -33t11 -33t31 -12z" />
    <glyph glyph-name="uni030A0301" horiz-adv-x="0" 
d="M0 579q-54 0 -87.5 28.5t-33.5 76.5t33.5 76.5t87.5 28.5t87.5 -28.5t33.5 -76.5t-33.5 -76.5t-87.5 -28.5zM0 639q20 0 31 12t11 33t-11 33t-31 12t-31 -12t-11 -33t11 -33t31 -12zM-52 821l99 129h132l-129 -129h-102z" />
    <glyph glyph-name="uni0431.locl_MKDSRB" horiz-adv-x="588" 
d="M44 219q0 77 38.5 136t113.5 97l-9 6q-38 22 -59 57t-21 75q0 67 42.5 104t122.5 42l213 11v-108l-187 -9q-51 -3 -51 -46q0 -18 13 -32.5t42 -30.5l90 -49q84 -46 118 -100.5t34 -143.5q0 -112 -67.5 -177.5t-183.5 -65.5q-74 0 -130 28t-87.5 81t-31.5 125zM189 219
q0 -56 28.5 -89t77.5 -33q51 0 77.5 33.5t26.5 97.5q0 57 -15.5 90t-53.5 56l-40 23l-7 -4q-94 -51 -94 -174z" />
    <glyph glyph-name="uni0432.locl_BGR" horiz-adv-x="588" 
d="M514 561q0 -59 -27.5 -100t-79.5 -61q66 -15 101.5 -64t35.5 -125q0 -106 -64.5 -166t-177.5 -60q-126 0 -185 84t-59 266v54q0 174 68 269.5t192 95.5q91 0 143.5 -52t52.5 -141zM200 341v-40q0 -108 25 -156t82 -48q95 0 95 134q0 53 -33.5 81.5t-97.5 28.5h-71z
M373 541q0 49 -17.5 75t-51.5 26q-53 0 -78 -49.5t-26 -153.5h71q102 0 102 102z" />
    <glyph glyph-name="uni0433.locl_BGR" horiz-adv-x="455" 
d="M158 138q0 -21 22 -34t57 -13q46 0 88.5 7.5t94.5 24.5v-97q-84 -42 -184 -42t-156 39t-56 108q0 59 30 97t95 62l76 28q36 13 49 24.5t13 31.5q0 24 -18 34.5t-59 10.5q-66 0 -148 -23v97q81 33 161 33q87 0 142.5 -41t55.5 -105q0 -57 -28.5 -92.5t-91.5 -59.5l-85 -32
q-32 -12 -45 -25t-13 -33z" />
    <glyph glyph-name="uni0434.locl_BGR" horiz-adv-x="600" 
d="M382 62q-57 -51 -134 -51q-93 0 -148.5 69.5t-55.5 185.5q0 118 56 189t150 71q42 0 79 -15t66 -44l11 44h120v-471q0 -122 -68 -190t-188 -68q-97 0 -184 43v98q99 -31 171 -31q66 0 95.5 30.5t29.5 99.5v40zM293 119q23 0 46.5 7.5t42.5 20.5v246q-41 25 -96 25
q-96 0 -96 -148q0 -77 25 -114t78 -37z" />
    <glyph glyph-name="uni0436.locl_BGR" horiz-adv-x="812" 
d="M6 0l209 259l-193 252h155l164 -237v466h130v-466l164 237h155l-193 -252l209 -259h-159l-176 231v-231h-130v231l-176 -231h-159z" />
    <glyph glyph-name="uni0437.locl_BGR" horiz-adv-x="464" 
d="M164 -218q-40 0 -76 7t-78 23v102q48 -12 77 -16t60 -4q135 0 135 117q0 49 -33 74.5t-96 25.5h-75v108h75q110 0 110 102q0 46 -27.5 69.5t-81.5 23.5q-59 0 -127 -20v102q73 30 150 30q106 0 168 -50t62 -135q0 -61 -29 -104t-85 -63q64 -16 98.5 -63.5t34.5 -119.5
q0 -95 -71 -152t-191 -57z" />
    <glyph glyph-name="uni0438.locl_BGR" horiz-adv-x="608" 
d="M414 0l-14 54q-89 -69 -186 -69q-68 0 -106 40.5t-38 111.5v374h146v-333q0 -81 70 -81q52 0 102 32v382h146v-511h-120z" />
    <glyph glyph-name="uni043A.locl_BGR" 
d="M74 0v740h145v-447l177 218h174l-211 -244l227 -267h-178l-189 233v-233h-145z" />
    <glyph glyph-name="uni043F.locl_BGR" horiz-adv-x="620" 
d="M402 0v335q0 41 -18 60t-55 19q-55 0 -109 -34v-380h-146v511h120l14 -55q90 70 192 70q71 0 109.5 -38.5t38.5 -109.5v-378h-146z" />
    <glyph glyph-name="uni0442.locl_BGR" horiz-adv-x="925" 
d="M707 0v346q0 68 -61 68q-54 0 -109 -26v-10v-378h-146v346q0 68 -61 68q-56 0 -110 -27v-387h-146v511h120l13 -49q53 35 95.5 49.5t87.5 14.5q90 0 127 -64q51 34 96 49t93 15q70 0 108.5 -39t38.5 -109v-378h-146z" />
    <glyph glyph-name="uni0446.locl_BGR" horiz-adv-x="619" 
d="M482 -164v160q-57 6 -79 60q-91 -71 -189 -71q-68 0 -106 40.5t-38 111.5v374h146v-333q0 -81 70 -81q52 0 102 32v15v367h146v-355q0 -28 9.5 -39.5t31.5 -11.5q12 0 36 3v-272h-129z" />
    <glyph glyph-name="uni0448.locl_BGR" horiz-adv-x="902" 
d="M708 0l-14 52q-82 -67 -179 -67q-45 0 -76.5 18t-46.5 52q-45 -36 -89 -53t-94 -17q-67 0 -103 39.5t-36 112.5v374h144v-333q0 -43 16.5 -63t50.5 -20q53 0 96 32v384h144v-333q0 -43 16 -63t50 -20q50 0 97 33v383h144v-511h-120z" />
    <glyph glyph-name="uni0449.locl_BGR" horiz-adv-x="913" 
d="M776 -164v160q-55 6 -77 60q-43 -36 -88 -53.5t-96 -17.5q-45 0 -76.5 18t-46.5 52q-45 -36 -89 -53t-94 -17q-67 0 -103 39.5t-36 112.5v374h144v-333q0 -43 16.5 -63t50.5 -20q53 0 96 32v384h144v-333q0 -43 16 -63t50 -20q52 0 97 34v15v367h144v-355
q0 -28 9.5 -39.5t31.5 -11.5q12 0 36 3v-272h-129z" />
    <glyph glyph-name="uni044A.locl_BGR" horiz-adv-x="639" 
d="M390 -15q-109 0 -169 58.5t-60 163.5v192h-152v112h292v-180q60 35 132 35q52 0 93.5 -23t66 -66t24.5 -98t-28 -98.5t-80 -69.5t-119 -26zM390 262q-42 0 -89 -18v-47q0 -48 23.5 -76t64.5 -28q38 0 62 23t24 60q0 40 -22.5 63t-62.5 23z" />
    <glyph glyph-name="uni044C.locl_BGR" horiz-adv-x="544" 
d="M295 -15q-109 0 -169 58.5t-60 163.5v304h140v-180q60 35 132 35q52 0 93.5 -23t66 -66t24.5 -98t-28 -98.5t-80 -69.5t-119 -26zM295 262q-42 0 -89 -18v-47q0 -48 23.5 -76t64.5 -28q38 0 62 23t24 60q0 40 -22.5 63t-62.5 23z" />
    <glyph glyph-name="uni044E.locl_BGR" horiz-adv-x="842" 
d="M560 -15q-97 0 -158 58t-73 162h-117v-205h-138v740h138v-425h118q14 100 74.5 155.5t155.5 55.5q112 0 175 -71.5t63 -198.5t-63 -199t-175 -72zM560 95q47 0 71.5 41t24.5 120t-24.5 119.5t-71.5 40.5t-71.5 -40.5t-24.5 -119.5t24.5 -120t71.5 -41z" />
    <glyph glyph-name="uni0306.cyrl" horiz-adv-x="0" 
d="M0 596q-81 0 -126 39t-45 109q0 13 5 35h87l2 -27q6 -75 77 -75t77 75l2 27h87q5 -22 5 -35q0 -70 -45 -109t-126 -39z" />
    <glyph glyph-name="uni0306.cyrl.cap" horiz-adv-x="0" 
d="M0 762q-78 0 -124.5 38t-46.5 102q0 13 5 30h89l2 -24q3 -31 22.5 -47t52.5 -16t52.5 16t22.5 47l2 24h89q5 -17 5 -30q0 -64 -46.5 -102t-124.5 -38z" />
    <glyph glyph-name="uni0439.locl_BGR" horiz-adv-x="608" 
d="M414 0l-14 54q-89 -69 -186 -69q-68 0 -106 40.5t-38 111.5v374h146v-333q0 -81 70 -81q52 0 102 32v382h146v-511h-120zM302 596q-81 0 -126 39t-45 109q0 13 5 35h87l2 -27q6 -75 77 -75t77 75l2 27h87q5 -22 5 -35q0 -70 -45 -109t-126 -39z" />
    <glyph glyph-name="acutecomb.grek" horiz-adv-x="0" 
d="M17 781h142l-105 -181h-108z" />
    <glyph glyph-name="acutecomb.grek.cap" horiz-adv-x="0" 
d="M-55 512l71 181h144l-105 -181h-110z" />
    </font>
</defs>
</svg>
